# 3ds Max Wavefront OBJ Exporter v0.97b - (c)2007 guruware
# File Created: 27.03.2018 15:19:42

mtllib lavandino.mtl

#
# object Object002
#

v  0.2464 0.9056 -0.7811
v  0.2464 0.9056 0.7189
v  -0.3536 0.9056 0.7189
v  -0.3536 0.9056 -0.7811
v  0.1946 0.9674 -0.6916
v  -0.2598 0.9674 -0.6916
v  -0.2598 0.9674 0.6293
v  0.1946 0.9674 0.6293
v  0.2464 1.2368 0.7189
v  -0.3536 1.2368 0.7189
v  0.2464 1.2368 -0.7811
v  -0.3536 1.2368 -0.7811
v  0.2034 1.2368 0.6549
v  -0.2686 1.2368 0.6549
v  0.2034 1.2368 -0.7171
v  -0.2686 1.2368 -0.7171
v  -0.2968 1.2222 -0.0079
v  -0.2968 1.4326 -0.0079
v  -0.3268 1.4626 -0.0079
v  -0.3268 1.2222 -0.0079
v  -0.3268 1.4626 -0.1479
v  -0.3268 1.2222 -0.1479
v  -0.2968 1.4326 -0.1479
v  -0.2968 1.2222 -0.1479
v  -0.2568 1.4726 -0.0079
v  -0.0839 1.4726 -0.0079
v  -0.0839 1.5026 -0.0079
v  -0.2868 1.5026 -0.0079
v  -0.0839 1.5026 -0.1479
v  -0.2868 1.5026 -0.1479
v  -0.0839 1.4726 -0.1479
v  -0.2568 1.4726 -0.1479
# 32 vertices

vn 0.5774 -0.5774 -0.5774
vn 0.5774 -0.5774 0.5774
vn -0.5774 -0.5774 0.5774
vn -0.5774 -0.5774 -0.5774
vn -0.5718 0.6102 0.5484
vn 0.5718 0.6102 0.5484
vn 0.5718 0.6103 -0.5482
vn -0.5718 0.6103 -0.5482
vn 0.5774 0.5774 0.5774
vn -0.5774 0.5774 0.5774
vn 0.5774 0.5774 -0.5774
vn -0.5774 0.5774 -0.5774
vn -0.2759 0.9175 -0.2864
vn 0.2759 0.9175 -0.2864
vn -0.2760 0.9175 0.2864
vn 0.2760 0.9175 0.2864
vn 0.7071 0.0000 0.7071
vn 0.5491 -0.2275 0.8042
vn -0.7173 0.2971 0.6303
vn -0.7071 0.0000 0.7071
vn -0.7173 0.2971 -0.6303
vn -0.7071 0.0000 -0.7071
vn 0.5491 -0.2275 -0.8042
vn 0.7071 0.0000 -0.7071
vn 0.2275 -0.5491 0.8042
vn -0.2971 0.7173 0.6303
vn -0.2971 0.7173 -0.6303
vn 0.2275 -0.5491 -0.8042
# 28 vertex normals

vt 0.0864 0.6189 0.0000
vt 0.0864 0.3944 0.0000
vt 0.1762 0.3944 0.0000
vt 0.1762 0.6189 0.0000
vt 0.1684 0.6055 0.0000
vt 0.1004 0.6055 0.0000
vt 0.1004 0.4078 0.0000
vt 0.1684 0.4078 0.0000
vt 0.2692 0.4451 0.0000
vt 0.1794 0.4451 0.0000
vt 0.1794 0.3956 0.0000
vt 0.2692 0.3956 0.0000
vt 0.3104 0.3928 0.0000
vt 0.0859 0.3928 0.0000
vt 0.0859 0.3433 0.0000
vt 0.3104 0.3433 0.0000
vt 0.1698 0.4040 0.0000
vt 0.0991 0.4040 0.0000
vt 0.1698 0.6093 0.0000
vt 0.0991 0.6093 0.0000
vt 0.1861 0.4461 0.0000
vt 0.2541 0.4461 0.0000
vt 0.2554 0.4864 0.0000
vt 0.1848 0.4864 0.0000
vt 0.0921 0.2993 0.0000
vt 0.2898 0.2993 0.0000
vt 0.2936 0.3396 0.0000
vt 0.0883 0.3396 0.0000
vt 0.1817 0.4533 0.0000
vt 0.1817 0.4848 0.0000
vt 0.1772 0.4893 0.0000
vt 0.1772 0.4533 0.0000
vt 0.1678 0.7514 0.0000
vt 0.1678 0.7874 0.0000
vt 0.1468 0.7874 0.0000
vt 0.1468 0.7514 0.0000
vt 0.2630 0.4530 0.0000
vt 0.2630 0.4890 0.0000
vt 0.2585 0.4845 0.0000
vt 0.2585 0.4530 0.0000
vt 0.1672 0.7058 0.0000
vt 0.1672 0.7373 0.0000
vt 0.1462 0.7373 0.0000
vt 0.1462 0.7058 0.0000
vt 0.1877 0.4908 0.0000
vt 0.2135 0.4908 0.0000
vt 0.2135 0.4952 0.0000
vt 0.1832 0.4952 0.0000
vt 0.0578 0.8376 0.0000
vt 0.0881 0.8376 0.0000
vt 0.0881 0.8586 0.0000
vt 0.0578 0.8586 0.0000
vt 0.2570 0.4949 0.0000
vt 0.2266 0.4949 0.0000
vt 0.2266 0.4905 0.0000
vt 0.2525 0.4905 0.0000
vt 0.0528 0.8359 0.0000
vt 0.0787 0.8359 0.0000
vt 0.0787 0.8150 0.0000
vt 0.0528 0.8150 0.0000
vt 0.1672 0.7477 0.0000
vt 0.1462 0.7477 0.0000
vt 0.1462 0.7433 0.0000
vt 0.1672 0.7433 0.0000
vt 0.0518 0.8586 0.0000
vt 0.0518 0.8376 0.0000
# 66 texture coords

g Object002
usemtl props
s 1
f 1/1/1 2/2/2 3/3/3 4/4/4 
f 5/5/5 6/6/6 7/7/7 8/8/8 
f 9/9/9 10/10/10 3/11/3 2/12/2 
f 11/13/11 9/14/9 2/15/2 1/16/1 
f 12/9/12 11/10/11 1/11/1 4/12/4 
f 10/13/10 12/14/12 4/15/4 3/16/3 
f 13/17/13 14/18/14 10/2/10 9/3/9 
f 15/19/15 13/17/13 9/3/9 11/4/11 
f 16/20/16 15/19/15 11/4/11 12/1/12 
f 14/18/14 16/20/16 12/1/12 10/2/10 
f 8/21/8 7/22/7 14/23/14 13/24/13 
f 5/25/5 8/26/8 13/27/13 15/28/15 
f 6/21/6 5/22/5 15/23/15 16/24/16 
f 7/25/7 6/26/6 16/27/16 14/28/14 
f 17/29/17 18/30/18 19/31/19 20/32/20 
f 20/33/20 19/34/19 21/35/21 22/36/22 
f 22/37/22 21/38/21 23/39/23 24/40/24 
f 24/41/24 23/42/23 18/43/18 17/44/17 
f 25/45/25 26/46/2 27/47/9 28/48/26 
f 28/49/26 27/50/9 29/51/11 30/52/27 
f 30/53/27 29/54/11 31/55/1 32/56/28 
f 32/57/28 31/58/1 26/59/2 25/60/25 
f 29/61/11 27/62/9 26/63/2 31/64/1 
f 28/48/26 19/31/19 18/30/18 25/45/25 
f 30/52/27 21/65/21 19/66/19 28/49/26 
f 32/56/28 23/39/23 21/38/21 30/53/27 
f 25/63/25 18/43/18 23/42/23 32/64/28 
# 27 polygons

