# 3ds Max Wavefront OBJ Exporter v0.97b - (c)2007 guruware
# File Created: 20.03.2018 14:04:35

mtllib pannello_solare.mtl

#
# object pannello_solare
#

v  -0.5808 0.7098 1.7859
v  -0.6994 0.8284 1.7859
v  -0.6994 0.8284 -1.7141
v  -0.5808 0.7098 -1.7141
v  3.6618 4.9524 1.7859
v  3.6618 4.9524 -1.7141
v  3.5432 5.0710 -1.7141
v  3.5432 5.0710 1.7859
v  1.4219 2.9497 1.7859
v  1.4219 2.9497 -1.7141
v  1.5405 2.8311 1.7859
v  1.5405 2.8311 -1.7141
v  0.7236 1.4353 -0.1561
v  0.4337 1.7252 -0.1561
v  0.4337 1.7252 -0.3161
v  0.7236 1.4353 -0.3161
v  2.5946 3.3063 -0.1561
v  2.5946 3.3063 -0.3161
v  2.3047 3.5962 -0.3161
v  2.3047 3.5962 -0.1561
v  0.7236 1.4353 0.3893
v  0.4337 1.7252 0.3893
v  0.4337 1.7252 0.2293
v  0.7236 1.4353 0.2293
v  2.5946 3.3063 0.3893
v  2.5946 3.3063 0.2293
v  2.3047 3.5962 0.2293
v  2.3047 3.5962 0.3893
v  1.9090 2.6460 0.2259
v  1.9090 2.6460 -0.1541
v  1.4090 2.6460 -0.1541
v  1.4090 2.6460 0.2259
v  1.4090 0.0000 -0.1541
v  1.4090 0.0000 0.2259
v  1.9090 0.0000 0.2259
v  1.9090 0.0000 -0.1541
v  1.4534 0.4130 -0.0336
v  1.1645 0.2863 -0.0336
v  1.1645 0.2863 0.1264
v  1.4534 0.4130 0.1264
v  0.9757 0.0000 0.1264
v  1.4534 0.0000 0.1264
v  1.4534 0.0000 -0.0336
v  0.9757 0.0000 -0.0336
v  1.8367 0.4130 -0.0336
v  1.8367 0.4130 0.1264
v  2.1256 0.2863 0.1264
v  2.1256 0.2863 -0.0336
v  1.8367 0.0000 0.1264
v  2.3144 0.0000 0.1264
v  2.3144 0.0000 -0.0336
v  1.8367 0.0000 -0.0336
v  1.7356 0.4130 -0.1558
v  1.7356 0.2863 -0.4446
v  1.5756 0.2863 -0.4446
v  1.5756 0.4130 -0.1558
v  1.5756 0.0000 -0.6334
v  1.5756 0.0000 -0.1558
v  1.7356 0.0000 -0.1558
v  1.7356 0.0000 -0.6334
v  1.7356 0.4130 0.2276
v  1.5756 0.4130 0.2276
v  1.5756 0.2863 0.5164
v  1.7356 0.2863 0.5164
v  1.5756 0.0000 0.2276
v  1.5756 0.0000 0.7052
v  1.7356 0.0000 0.7052
v  1.7356 0.0000 0.2276
# 68 vertices

vn -0.7071 -0.7071 -0.0000
vn 0.7071 0.7071 -0.0000
vn -0.7071 0.7071 -0.0000
vn 0.0000 0.0000 1.0000
vn 0.7071 -0.7071 -0.0000
vn 0.0000 0.0000 -1.0000
vn 0.0000 1.0000 -0.0000
vn -1.0000 0.0000 -0.0000
vn 1.0000 0.0000 -0.0000
vn -0.4016 0.9158 -0.0000
vn -0.8348 0.5505 -0.0000
vn 0.4016 0.9158 -0.0000
vn 0.8348 0.5505 -0.0000
vn 0.0000 0.9158 -0.4016
vn 0.0000 0.5505 -0.8348
vn 0.0000 0.9158 0.4016
vn 0.0000 0.5505 0.8348
# 17 vertex normals

vt 0.4154 0.5401 0.0000
vt 0.4035 0.5401 0.0000
vt 0.4035 0.2912 0.0000
vt 0.4154 0.2912 0.0000
vt 0.3938 0.2880 0.0000
vt 0.3938 0.5369 0.0000
vt 0.1804 0.5369 0.0000
vt 0.1804 0.2880 0.0000
vt 0.2216 0.9840 0.0000
vt 0.2216 0.9959 0.0000
vt 0.0082 0.9959 0.0000
vt 0.0082 0.9840 0.0000
vt 0.2268 0.0040 0.0000
vt 0.2268 0.2371 0.0000
vt 0.0271 0.2371 0.0000
vt 0.0271 0.0040 0.0000
vt 0.2951 0.9820 0.0000
vt 0.2951 0.9528 0.0000
vt 0.3065 0.9528 0.0000
vt 0.3065 0.9820 0.0000
vt 0.2930 0.9819 0.0000
vt 0.2816 0.9819 0.0000
vt 0.2816 0.9527 0.0000
vt 0.2930 0.9527 0.0000
vt 0.2669 0.9823 0.0000
vt 0.2555 0.9823 0.0000
vt 0.2555 0.7941 0.0000
vt 0.2669 0.7941 0.0000
vt 0.2529 0.9823 0.0000
vt 0.2237 0.9823 0.0000
vt 0.2237 0.7941 0.0000
vt 0.2529 0.7941 0.0000
vt 0.2790 0.9820 0.0000
vt 0.2676 0.9820 0.0000
vt 0.2676 0.7938 0.0000
vt 0.2790 0.7938 0.0000
vt 0.4552 0.2714 0.0000
vt 0.4282 0.2714 0.0000
vt 0.4282 0.2359 0.0000
vt 0.4552 0.2359 0.0000
vt 0.2197 0.7033 0.0000
vt 0.2197 0.7303 0.0000
vt 0.0315 0.7303 0.0000
vt 0.0315 0.7033 0.0000
vt 0.2197 0.6663 0.0000
vt 0.2197 0.7018 0.0000
vt 0.0315 0.7018 0.0000
vt 0.0315 0.6663 0.0000
vt 0.2199 0.6382 0.0000
vt 0.2199 0.6652 0.0000
vt 0.0317 0.6652 0.0000
vt 0.0317 0.6382 0.0000
vt 0.3267 0.5886 0.0000
vt 0.3267 0.5671 0.0000
vt 0.3381 0.5671 0.0000
vt 0.3381 0.5886 0.0000
vt 0.3874 0.5729 0.0000
vt 0.3668 0.5639 0.0000
vt 0.3534 0.5435 0.0000
vt 0.3874 0.5435 0.0000
vt 0.4093 0.5642 0.0000
vt 0.3887 0.5732 0.0000
vt 0.3887 0.5439 0.0000
vt 0.4227 0.5439 0.0000
vt 0.3267 0.5437 0.0000
vt 0.3381 0.5437 0.0000
vt 0.3502 0.5886 0.0000
vt 0.3389 0.5886 0.0000
vt 0.3389 0.5671 0.0000
vt 0.3502 0.5671 0.0000
vt 0.3389 0.5437 0.0000
vt 0.3502 0.5437 0.0000
vt 0.2208 0.9818 0.0000
vt 0.0074 0.9818 0.0000
vt 0.0074 0.7328 0.0000
vt 0.2208 0.7328 0.0000
vt 0.4350 0.9959 0.0000
vt 0.4350 0.9840 0.0000
# 78 texture coords

g pannello_solare
usemtl serra
s 2
f 1/1/1 2/2/1 3/3/1 4/4/1 
s 4
f 5/4/2 6/1/2 7/2/2 8/3/2 
s 8
f 9/5/3 10/6/3 3/7/3 2/8/3 
s 16
f 11/9/4 9/10/4 2/11/4 1/12/4 
s 32
f 12/13/5 11/14/5 1/15/5 4/16/5 
s 64
f 10/9/6 12/10/6 4/11/6 3/12/6 
s 2
f 13/17/1 14/18/1 15/19/1 16/20/1 
s 4
f 17/21/2 18/22/2 19/23/2 20/24/2 
s 8
f 20/25/3 19/26/3 15/27/3 14/28/3 
s 16
f 17/29/4 20/30/4 14/31/4 13/32/4 
s 32
f 18/33/5 17/34/5 13/35/5 16/36/5 
s 64
f 19/29/6 18/30/6 16/31/6 15/32/6 
s 2
f 21/22/1 22/23/1 23/24/1 24/21/1 
s 4
f 25/20/2 26/17/2 27/18/2 28/19/2 
s 8
f 28/33/3 27/34/3 23/35/3 22/36/3 
s 16
f 25/29/4 28/30/4 22/31/4 21/32/4 
s 32
f 26/25/5 25/26/5 21/27/5 24/28/5 
s 64
f 27/29/6 26/30/6 24/31/6 23/32/6 
s 4
f 29/37/7 30/38/7 31/39/7 32/40/7 
s 8
f 32/41/8 31/42/8 33/43/8 34/44/8 
s 16
f 29/45/4 32/46/4 34/47/4 35/48/4 
s 32
f 30/49/9 29/50/9 35/51/9 36/52/9 
s 64
f 31/45/6 30/46/6 36/47/6 33/48/6 
s 4
f 37/53/10 38/54/10 39/55/10 40/56/10 
s 8
f 40/57/4 39/58/4 41/59/4 42/60/4 
s 32
f 38/61/6 37/62/6 43/63/6 44/64/6 
s 64
f 39/55/11 38/54/11 44/65/11 41/66/11 
s 4
f 45/67/12 46/68/12 47/69/12 48/70/12 
s 8
f 46/62/4 49/63/4 50/64/4 47/61/4 
s 32
f 48/58/6 51/59/6 52/60/6 45/57/6 
s 64
f 47/69/13 50/71/13 51/72/13 48/70/13 
s 4
f 53/53/14 54/54/14 55/55/14 56/56/14 
s 8
f 56/57/8 55/58/8 57/59/8 58/60/8 
s 32
f 54/61/9 53/62/9 59/63/9 60/64/9 
s 64
f 55/55/15 54/54/15 60/65/15 57/66/15 
s 4
f 61/67/16 62/68/16 63/69/16 64/70/16 
s 8
f 62/62/8 65/63/8 66/64/8 63/61/8 
s 32
f 64/58/9 67/59/9 68/60/9 61/57/9 
s 64
f 63/69/17 66/71/17 67/72/17 64/70/17 
s 8
f 7/73/3 10/74/3 9/75/3 8/76/3 
s 16
f 8/77/4 9/10/4 11/9/4 5/78/4 
s 32
f 5/16/5 11/13/5 12/14/5 6/15/5 
s 64
f 6/77/6 12/10/6 10/9/6 7/78/6 
# 43 polygons

