# 3ds Max Wavefront OBJ Exporter v0.97b - (c)2007 guruware
# File Created: 27.03.2018 15:17:50

mtllib scaffale2.mtl

#
# object scaffale1
#

v  -0.3989 0.0130 -1.3671
v  -0.3989 3.0718 -1.3671
v  -0.3843 3.0718 -1.5071
v  -0.3843 0.0130 -1.5071
v  -0.2604 3.0718 -1.5217
v  -0.2604 0.0130 -1.5217
v  -0.3489 3.0718 -1.3671
v  -0.3489 0.0130 -1.3671
v  -0.3489 0.0130 -1.4717
v  -0.3489 3.0718 -1.4717
v  -0.2604 0.0130 -1.4717
v  -0.2604 3.0718 -1.4717
v  0.3011 0.0130 -1.3671
v  0.2864 0.0130 -1.5071
v  0.2864 3.0718 -1.5071
v  0.3011 3.0718 -1.3671
v  0.1626 3.0718 -1.5217
v  0.1626 0.0130 -1.5217
v  0.2511 3.0718 -1.3671
v  0.2511 3.0718 -1.4717
v  0.2511 0.0130 -1.4717
v  0.2511 0.0130 -1.3671
v  0.1626 0.0130 -1.4717
v  0.1626 3.0718 -1.4717
v  -0.3989 0.0130 1.4237
v  -0.3843 0.0130 1.5637
v  -0.3843 3.0718 1.5637
v  -0.3989 3.0718 1.4237
v  -0.2604 3.0718 1.5783
v  -0.2604 0.0130 1.5783
v  -0.3489 3.0718 1.4237
v  -0.3489 3.0718 1.5283
v  -0.3489 0.0130 1.5283
v  -0.3489 0.0130 1.4237
v  -0.2604 0.0130 1.5283
v  -0.2604 3.0718 1.5283
v  0.3011 0.0130 1.4237
v  0.3011 3.0718 1.4237
v  0.2864 3.0718 1.5637
v  0.2864 0.0130 1.5637
v  0.1626 3.0718 1.5783
v  0.1626 0.0130 1.5783
v  0.2511 3.0718 1.4237
v  0.2511 0.0130 1.4237
v  0.2511 0.0130 1.5283
v  0.2511 3.0718 1.5283
v  0.1626 0.0130 1.5283
v  0.1626 3.0718 1.5283
v  -0.0489 3.0443 -1.4717
v  -0.3470 3.0443 -1.4717
v  -0.3470 3.0443 0.0283
v  -0.0489 3.0443 0.0283
v  -0.3470 2.9943 -1.4717
v  -0.3470 2.9943 0.0283
v  -0.0489 2.9800 -1.5144
v  -0.0489 2.9693 -1.4717
v  -0.2604 2.9693 -1.4717
v  -0.2604 2.9800 -1.5144
v  -0.2604 3.0610 -1.5144
v  -0.0489 3.0718 -1.4717
v  -0.0489 3.0610 -1.5144
v  -0.0489 2.9943 -1.4717
v  -0.0489 2.9943 0.0283
v  0.2491 3.0443 0.0283
v  0.2491 3.0443 -1.4717
v  0.2491 2.9943 -1.4717
v  0.2491 2.9943 0.0283
v  0.1626 2.9800 -1.5144
v  0.1626 2.9693 -1.4717
v  0.1626 3.0610 -1.5144
v  -0.0489 3.0443 1.5283
v  -0.3470 3.0443 1.5283
v  -0.3470 2.9943 1.5283
v  -0.0489 2.9800 1.5710
v  -0.2604 2.9800 1.5710
v  -0.2604 2.9693 1.5283
v  -0.0489 2.9693 1.5283
v  -0.2604 3.0610 1.5710
v  -0.0489 3.0610 1.5710
v  -0.0489 3.0718 1.5283
v  -0.0489 2.9943 1.5283
v  0.2491 3.0443 1.5283
v  0.2491 2.9943 1.5283
v  0.1626 2.9693 1.5283
v  0.1626 2.9800 1.5710
v  0.1626 3.0610 1.5710
v  -0.0489 2.4819 -1.4717
v  -0.3470 2.4819 -1.4717
v  -0.3470 2.4819 0.0283
v  -0.0489 2.4819 0.0283
v  -0.3470 2.4319 -1.4717
v  -0.3470 2.4319 0.0283
v  -0.0489 2.4176 -1.5144
v  -0.0489 2.4069 -1.4717
v  -0.2604 2.4069 -1.4717
v  -0.2604 2.4176 -1.5144
v  -0.2604 2.4986 -1.5144
v  -0.2604 2.5094 -1.4717
v  -0.0489 2.5094 -1.4717
v  -0.0489 2.4986 -1.5144
v  -0.0489 2.4319 -1.4717
v  -0.0489 2.4319 0.0283
v  0.2491 2.4819 0.0283
v  0.2491 2.4819 -1.4717
v  0.2491 2.4319 -1.4717
v  0.2491 2.4319 0.0283
v  0.1626 2.4176 -1.5144
v  0.1626 2.4069 -1.4717
v  0.1626 2.4986 -1.5144
v  0.1626 2.5094 -1.4717
v  -0.0489 2.4819 1.5283
v  -0.3470 2.4819 1.5283
v  -0.3470 2.4319 1.5283
v  -0.0489 2.4176 1.5710
v  -0.2604 2.4176 1.5710
v  -0.2604 2.4069 1.5283
v  -0.0489 2.4069 1.5283
v  -0.2604 2.4986 1.5710
v  -0.0489 2.4986 1.5710
v  -0.0489 2.5094 1.5283
v  -0.2604 2.5094 1.5283
v  -0.0489 2.4319 1.5283
v  0.2491 2.4819 1.5283
v  0.2491 2.4319 1.5283
v  0.1626 2.4069 1.5283
v  0.1626 2.4176 1.5710
v  0.1626 2.4986 1.5710
v  0.1626 2.5094 1.5283
v  -0.0489 1.9195 -1.4717
v  -0.3470 1.9195 -1.4717
v  -0.3470 1.9195 0.0283
v  -0.0489 1.9195 0.0283
v  -0.3470 1.8695 -1.4717
v  -0.3470 1.8695 0.0283
v  -0.0489 1.8553 -1.5144
v  -0.0489 1.8445 -1.4717
v  -0.2604 1.8445 -1.4717
v  -0.2604 1.8553 -1.5144
v  -0.2604 1.9362 -1.5144
v  -0.2604 1.9470 -1.4717
v  -0.0489 1.9470 -1.4717
v  -0.0489 1.9362 -1.5144
v  -0.0489 1.8695 -1.4717
v  -0.0489 1.8695 0.0283
v  0.2491 1.9195 0.0283
v  0.2491 1.9195 -1.4717
v  0.2491 1.8695 -1.4717
v  0.2491 1.8695 0.0283
v  0.1626 1.8553 -1.5144
v  0.1626 1.8445 -1.4717
v  0.1626 1.9362 -1.5144
v  0.1626 1.9470 -1.4717
v  -0.0489 1.9195 1.5283
v  -0.3470 1.9195 1.5283
v  -0.3470 1.8695 1.5283
v  -0.0489 1.8553 1.5710
v  -0.2604 1.8553 1.5710
v  -0.2604 1.8445 1.5283
v  -0.0489 1.8445 1.5283
v  -0.2604 1.9362 1.5710
v  -0.0489 1.9362 1.5710
v  -0.0489 1.9470 1.5283
v  -0.2604 1.9470 1.5283
v  -0.0489 1.8695 1.5283
v  0.2491 1.9195 1.5283
v  0.2491 1.8695 1.5283
v  0.1626 1.8445 1.5283
v  0.1626 1.8553 1.5710
v  0.1626 1.9362 1.5710
v  0.1626 1.9470 1.5283
v  -0.0489 1.3572 -1.4717
v  -0.3470 1.3572 -1.4717
v  -0.3470 1.3572 0.0283
v  -0.0489 1.3572 0.0283
v  -0.3470 1.3072 -1.4717
v  -0.3470 1.3072 0.0283
v  -0.0489 1.2929 -1.5144
v  -0.0489 1.2821 -1.4717
v  -0.2604 1.2821 -1.4717
v  -0.2604 1.2929 -1.5144
v  -0.2604 1.3739 -1.5144
v  -0.2604 1.3846 -1.4717
v  -0.0489 1.3846 -1.4717
v  -0.0489 1.3739 -1.5144
v  -0.0489 1.3072 -1.4717
v  -0.0489 1.3072 0.0283
v  0.2491 1.3572 0.0283
v  0.2491 1.3572 -1.4717
v  0.2491 1.3072 -1.4717
v  0.2491 1.3072 0.0283
v  0.1626 1.2929 -1.5144
v  0.1626 1.2821 -1.4717
v  0.1626 1.3739 -1.5144
v  0.1626 1.3846 -1.4717
v  -0.0489 1.3572 1.5283
v  -0.3470 1.3572 1.5283
v  -0.3470 1.3072 1.5283
v  -0.0489 1.2929 1.5710
v  -0.2604 1.2929 1.5710
v  -0.2604 1.2821 1.5283
v  -0.0489 1.2821 1.5283
v  -0.2604 1.3739 1.5710
v  -0.0489 1.3739 1.5710
v  -0.0489 1.3846 1.5283
v  -0.2604 1.3846 1.5283
v  -0.0489 1.3072 1.5283
v  0.2491 1.3572 1.5283
v  0.2491 1.3072 1.5283
v  0.1626 1.2821 1.5283
v  0.1626 1.2929 1.5710
v  0.1626 1.3739 1.5710
v  0.1626 1.3846 1.5283
v  -0.0489 0.7948 -1.4717
v  -0.3470 0.7948 -1.4717
v  -0.3470 0.7948 0.0283
v  -0.0489 0.7948 0.0283
v  -0.3470 0.7448 -1.4717
v  -0.3470 0.7448 0.0283
v  -0.0489 0.7305 -1.5144
v  -0.0489 0.7197 -1.4717
v  -0.2604 0.7197 -1.4717
v  -0.2604 0.7305 -1.5144
v  -0.2604 0.8115 -1.5144
v  -0.2604 0.8223 -1.4717
v  -0.0489 0.8223 -1.4717
v  -0.0489 0.8115 -1.5144
v  -0.0489 0.7448 -1.4717
v  -0.0489 0.7448 0.0283
v  0.2491 0.7948 0.0283
v  0.2491 0.7948 -1.4717
v  0.2491 0.7448 -1.4717
v  0.2491 0.7448 0.0283
v  0.1626 0.7305 -1.5144
v  0.1626 0.7197 -1.4717
v  0.1626 0.8115 -1.5144
v  0.1626 0.8223 -1.4717
v  -0.0489 0.7948 1.5283
v  -0.3470 0.7948 1.5283
v  -0.3470 0.7448 1.5283
v  -0.0489 0.7305 1.5710
v  -0.2604 0.7305 1.5710
v  -0.2604 0.7197 1.5283
v  -0.0489 0.7197 1.5283
v  -0.2604 0.8115 1.5710
v  -0.0489 0.8115 1.5710
v  -0.0489 0.8223 1.5283
v  -0.2604 0.8223 1.5283
v  -0.0489 0.7448 1.5283
v  0.2491 0.7948 1.5283
v  0.2491 0.7448 1.5283
v  0.1626 0.7197 1.5283
v  0.1626 0.7305 1.5710
v  0.1626 0.8115 1.5710
v  0.1626 0.8223 1.5283
v  -0.0489 0.2324 -1.4717
v  -0.3470 0.2324 -1.4717
v  -0.3470 0.2324 0.0283
v  -0.0489 0.2324 0.0283
v  -0.3470 0.1824 -1.4717
v  -0.3470 0.1824 0.0283
v  -0.0489 0.1681 -1.5144
v  -0.0489 0.1574 -1.4717
v  -0.2604 0.1574 -1.4717
v  -0.2604 0.1681 -1.5144
v  -0.2604 0.2491 -1.5144
v  -0.2604 0.2599 -1.4717
v  -0.0489 0.2599 -1.4717
v  -0.0489 0.2491 -1.5144
v  -0.0489 0.1824 -1.4717
v  -0.0489 0.1824 0.0283
v  0.2491 0.2324 0.0283
v  0.2491 0.2324 -1.4717
v  0.2491 0.1824 -1.4717
v  0.2491 0.1824 0.0283
v  0.1626 0.1681 -1.5144
v  0.1626 0.1574 -1.4717
v  0.1626 0.2491 -1.5144
v  0.1626 0.2599 -1.4717
v  -0.0489 0.2324 1.5283
v  -0.3470 0.2324 1.5283
v  -0.3470 0.1824 1.5283
v  -0.0489 0.1681 1.5710
v  -0.2604 0.1681 1.5710
v  -0.2604 0.1574 1.5283
v  -0.0489 0.1574 1.5283
v  -0.2604 0.2491 1.5710
v  -0.0489 0.2491 1.5710
v  -0.0489 0.2599 1.5283
v  -0.2604 0.2599 1.5283
v  -0.0489 0.1824 1.5283
v  0.2491 0.2324 1.5283
v  0.2491 0.1824 1.5283
v  0.1626 0.1574 1.5283
v  0.1626 0.1681 1.5710
v  0.1626 0.2491 1.5710
v  0.1626 0.2599 1.5283
# 296 vertices

vn -0.7429 0.0000 0.6694
vn -0.6093 0.5721 0.5491
vn -0.5748 0.5899 -0.5671
vn -0.7118 0.0000 -0.7024
vn 0.5453 0.5714 -0.6133
vn 0.6644 0.0000 -0.7473
vn 0.5774 0.5774 0.5774
vn 0.7071 0.0000 0.7071
vn 0.3015 0.9045 0.3015
vn 0.7431 0.0000 0.6692
vn 0.7116 0.0000 -0.7026
vn 0.5746 0.5899 -0.5673
vn 0.6095 0.5720 0.5489
vn -0.5453 0.5714 -0.6133
vn -0.6644 0.0000 -0.7474
vn -0.5774 0.5774 0.5774
vn -0.3015 0.9045 0.3015
vn -0.7071 0.0000 0.7071
vn -0.7429 0.0000 -0.6694
vn -0.7118 0.0000 0.7024
vn -0.5748 0.5899 0.5671
vn -0.6093 0.5721 -0.5491
vn 0.5453 0.5714 0.6133
vn 0.6644 0.0000 0.7473
vn 0.5774 0.5774 -0.5774
vn 0.3015 0.9045 -0.3015
vn 0.7071 0.0000 -0.7071
vn 0.7431 0.0000 -0.6692
vn 0.6095 0.5720 -0.5489
vn 0.5746 0.5899 0.5673
vn 0.7116 0.0000 0.7026
vn -0.5452 0.5714 0.6133
vn -0.6644 0.0000 0.7474
vn -0.5774 0.5774 -0.5774
vn -0.7071 0.0000 -0.7071
vn -0.3015 0.9045 -0.3015
vn 0.0000 1.0000 -0.0000
vn -0.7071 0.7071 -0.0000
vn -0.7071 -0.7071 -0.0000
vn 0.0000 -0.6152 -0.7884
vn 0.0000 -0.7884 0.6152
vn 0.0000 0.6143 -0.7891
vn 0.0000 0.7891 0.6143
vn 0.0000 -1.0000 -0.0000
vn 0.7071 0.7071 -0.0000
vn 0.7071 -0.7071 -0.0000
vn 0.0000 -0.6152 0.7884
vn 0.0000 -0.7884 -0.6152
vn 0.0000 0.6143 0.7891
vn 0.0000 0.7891 -0.6143
vn 0.0000 -0.6143 -0.7891
vn 0.0000 -0.7891 0.6143
vn 0.0000 -0.6143 0.7891
vn 0.0000 -0.7891 -0.6143
vn 0.0000 0.6152 -0.7884
vn 0.0000 0.7884 0.6152
vn 0.0000 0.6152 0.7884
vn 0.0000 0.7884 -0.6152
# 58 vertex normals

vt 0.0136 0.0096 0.0000
vt 0.4713 0.0096 0.0000
vt 0.4713 0.0117 0.0000
vt 0.0136 0.0117 0.0000
vt 0.0136 0.0045 0.0000
vt 0.4713 0.0045 0.0000
vt 0.4713 0.0067 0.0000
vt 0.0136 0.0067 0.0000
vt 0.0143 0.0373 0.0000
vt 0.4720 0.0373 0.0000
vt 0.4720 0.0216 0.0000
vt 0.0143 0.0216 0.0000
vt 0.4699 0.0611 0.0000
vt 0.0121 0.0611 0.0000
vt 0.0121 0.0479 0.0000
vt 0.4699 0.0479 0.0000
vt 0.0121 0.0404 0.0000
vt 0.4699 0.0404 0.0000
vt 0.5594 0.1848 0.0000
vt 0.5438 0.1848 0.0000
vt 0.5385 0.1795 0.0000
vt 0.5594 0.1773 0.0000
vt 0.5438 0.1981 0.0000
vt 0.5363 0.1981 0.0000
vt 0.4720 0.0141 0.0000
vt 0.0143 0.0141 0.0000
vt 0.5511 0.1699 0.0000
vt 0.5511 0.1624 0.0000
vt 0.5720 0.1646 0.0000
vt 0.5667 0.1699 0.0000
vt 0.5742 0.1832 0.0000
vt 0.5667 0.1832 0.0000
vt 0.2238 0.7225 0.0000
vt 0.1792 0.7225 0.0000
vt 0.1792 0.4988 0.0000
vt 0.2238 0.4981 0.0000
vt 0.2334 0.4983 0.0000
vt 0.2334 0.7220 0.0000
vt 0.2259 0.7220 0.0000
vt 0.2259 0.4983 0.0000
vt 0.2660 0.5025 0.0000
vt 0.2660 0.4961 0.0000
vt 0.2347 0.4961 0.0000
vt 0.2347 0.5025 0.0000
vt 0.2351 0.5185 0.0000
vt 0.2664 0.5185 0.0000
vt 0.2664 0.5338 0.0000
vt 0.2351 0.5338 0.0000
vt 0.2348 0.5031 0.0000
vt 0.2662 0.5031 0.0000
vt 0.2662 0.5153 0.0000
vt 0.2348 0.5153 0.0000
vt 0.1792 0.4981 0.0000
vt 0.2238 0.4988 0.0000
# 54 texture coords

g scaffale1
usemtl props
s 1
f 1/1/1 2/2/2 3/3/3 4/4/4 
f 5/5/5 6/6/6 4/7/4 3/8/3 
f 7/9/7 8/10/8 9/11/8 10/12/9 
f 11/13/8 12/14/7 10/15/9 9/16/8 
f 8/16/8 7/15/7 2/17/2 1/18/1 
f 7/19/7 10/20/9 3/21/3 2/22/2 
f 10/20/9 12/23/7 5/24/5 3/21/3 
f 12/12/7 11/11/8 6/25/6 5/26/5 
f 13/2/10 14/3/11 15/4/12 16/1/13 
f 17/6/14 15/7/12 14/8/11 18/5/15 
f 19/9/16 20/12/17 21/11/18 22/10/18 
f 23/13/18 21/16/18 20/15/17 24/14/16 
f 22/16/18 13/18/10 16/17/13 19/15/16 
f 19/27/16 16/28/13 15/29/12 20/30/17 
f 20/30/17 15/29/12 17/31/14 24/32/16 
f 24/12/16 17/26/14 18/25/15 23/11/18 
f 25/2/19 26/3/20 27/4/21 28/1/22 
f 29/6/23 27/7/21 26/8/20 30/5/24 
f 31/9/25 32/12/26 33/11/27 34/10/27 
f 35/13/27 33/16/27 32/15/26 36/14/25 
f 34/16/27 25/18/19 28/17/22 31/15/25 
f 31/27/25 28/28/22 27/29/21 32/30/26 
f 32/30/26 27/29/21 29/31/23 36/32/25 
f 36/12/25 29/26/23 30/25/24 35/11/27 
f 37/1/28 38/2/29 39/3/30 40/4/31 
f 41/5/32 42/6/33 40/7/31 39/8/30 
f 43/9/34 44/10/35 45/11/35 46/12/36 
f 47/13/35 48/14/34 46/15/36 45/16/35 
f 44/16/35 43/15/34 38/17/29 37/18/28 
f 43/19/34 46/20/36 39/21/30 38/22/29 
f 46/20/36 48/23/34 41/24/32 39/21/30 
f 48/12/34 47/11/35 42/25/33 41/26/32 
f 49/33/37 50/34/38 51/35/38 52/36/37 
f 53/37/39 54/38/39 51/39/38 50/40/38 
f 55/41/40 56/42/41 57/43/41 58/44/40 
f 59/44/42 12/43/43 60/42/43 61/41/42 
f 57/45/41 56/46/41 60/47/43 12/48/43 
f 55/49/40 58/50/40 59/51/42 61/52/42 
f 62/34/44 63/53/44 54/54/39 53/33/39 
f 49/34/37 52/53/37 64/54/45 65/33/45 
f 66/40/46 65/37/45 64/38/45 67/39/46 
f 55/41/40 68/44/40 69/43/41 56/42/41 
f 70/41/42 61/44/42 60/43/43 24/42/43 
f 69/45/41 24/48/43 60/47/43 56/46/41 
f 55/50/40 61/51/42 70/52/42 68/49/40 
f 62/33/44 66/34/46 67/35/46 63/36/44 
f 71/34/37 52/53/37 51/54/38 72/33/38 
f 73/40/39 72/37/38 51/38/38 54/39/39 
f 74/41/47 75/44/47 76/43/48 77/42/48 
f 78/41/49 79/44/49 80/43/50 36/42/50 
f 76/45/48 36/48/50 80/47/50 77/46/48 
f 74/50/47 79/51/49 78/52/49 75/49/47 
f 81/33/44 73/34/39 54/35/39 63/36/44 
f 71/33/37 82/34/45 64/35/45 52/36/37 
f 83/37/46 67/38/46 64/39/45 82/40/45 
f 74/41/47 77/42/48 84/43/48 85/44/47 
f 86/44/49 48/43/50 80/42/50 79/41/49 
f 84/45/48 77/46/48 80/47/50 48/48/50 
f 74/49/47 85/50/47 86/51/49 79/52/49 
f 81/34/44 63/53/44 67/54/46 83/33/46 
f 87/33/37 88/34/38 89/35/38 90/36/37 
f 91/37/39 92/38/39 89/39/38 88/40/38 
f 93/41/40 94/42/41 95/43/41 96/44/40 
f 97/44/42 98/43/43 99/42/43 100/41/42 
f 95/45/41 94/46/41 99/47/43 98/48/43 
f 93/49/40 96/50/40 97/51/42 100/52/42 
f 101/34/44 102/53/44 92/54/39 91/33/39 
f 87/34/37 90/53/37 103/54/45 104/33/45 
f 105/40/46 104/37/45 103/38/45 106/39/46 
f 93/41/40 107/44/40 108/43/41 94/42/41 
f 109/41/42 100/44/42 99/43/43 110/42/43 
f 108/45/41 110/48/43 99/47/43 94/46/41 
f 93/50/40 100/51/42 109/52/42 107/49/40 
f 101/33/44 105/34/46 106/35/46 102/36/44 
f 111/34/37 90/53/37 89/54/38 112/33/38 
f 113/40/39 112/37/38 89/38/38 92/39/39 
f 114/41/47 115/44/47 116/43/48 117/42/48 
f 118/41/49 119/44/49 120/43/50 121/42/50 
f 116/45/48 121/48/50 120/47/50 117/46/48 
f 114/50/47 119/51/49 118/52/49 115/49/47 
f 122/33/44 113/34/39 92/35/39 102/36/44 
f 111/33/37 123/34/45 103/35/45 90/36/37 
f 124/37/46 106/38/46 103/39/45 123/40/45 
f 114/41/47 117/42/48 125/43/48 126/44/47 
f 127/44/49 128/43/50 120/42/50 119/41/49 
f 125/45/48 117/46/48 120/47/50 128/48/50 
f 114/49/47 126/50/47 127/51/49 119/52/49 
f 122/34/44 102/53/44 106/54/46 124/33/46 
f 129/33/37 130/34/38 131/35/38 132/36/37 
f 133/37/39 134/38/39 131/39/38 130/40/38 
f 135/41/51 136/42/52 137/43/52 138/44/51 
f 139/44/42 140/43/43 141/42/43 142/41/42 
f 137/45/52 136/46/52 141/47/43 140/48/43 
f 135/49/51 138/50/51 139/51/42 142/52/42 
f 143/34/44 144/53/44 134/54/39 133/33/39 
f 129/34/37 132/53/37 145/54/45 146/33/45 
f 147/40/46 146/37/45 145/38/45 148/39/46 
f 135/41/51 149/44/51 150/43/52 136/42/52 
f 151/41/42 142/44/42 141/43/43 152/42/43 
f 150/45/52 152/48/43 141/47/43 136/46/52 
f 135/50/51 142/51/42 151/52/42 149/49/51 
f 143/33/44 147/34/46 148/35/46 144/36/44 
f 153/34/37 132/53/37 131/54/38 154/33/38 
f 155/40/39 154/37/38 131/38/38 134/39/39 
f 156/41/53 157/44/53 158/43/54 159/42/54 
f 160/41/49 161/44/49 162/43/50 163/42/50 
f 158/45/54 163/48/50 162/47/50 159/46/54 
f 156/50/53 161/51/49 160/52/49 157/49/53 
f 164/33/44 155/34/39 134/35/39 144/36/44 
f 153/33/37 165/34/45 145/35/45 132/36/37 
f 166/37/46 148/38/46 145/39/45 165/40/45 
f 156/41/53 159/42/54 167/43/54 168/44/53 
f 169/44/49 170/43/50 162/42/50 161/41/49 
f 167/45/54 159/46/54 162/47/50 170/48/50 
f 156/49/53 168/50/53 169/51/49 161/52/49 
f 164/34/44 144/53/44 148/54/46 166/33/46 
f 171/33/37 172/34/38 173/35/38 174/36/37 
f 175/37/39 176/38/39 173/39/38 172/40/38 
f 177/41/51 178/42/52 179/43/52 180/44/51 
f 181/44/55 182/43/56 183/42/56 184/41/55 
f 179/45/52 178/46/52 183/47/56 182/48/56 
f 177/49/51 180/50/51 181/51/55 184/52/55 
f 185/34/44 186/53/44 176/54/39 175/33/39 
f 171/34/37 174/53/37 187/54/45 188/33/45 
f 189/40/46 188/37/45 187/38/45 190/39/46 
f 177/41/51 191/44/51 192/43/52 178/42/52 
f 193/41/55 184/44/55 183/43/56 194/42/56 
f 192/45/52 194/48/56 183/47/56 178/46/52 
f 177/50/51 184/51/55 193/52/55 191/49/51 
f 185/33/44 189/34/46 190/35/46 186/36/44 
f 195/34/37 174/53/37 173/54/38 196/33/38 
f 197/40/39 196/37/38 173/38/38 176/39/39 
f 198/41/53 199/44/53 200/43/54 201/42/54 
f 202/41/57 203/44/57 204/43/58 205/42/58 
f 200/45/54 205/48/58 204/47/58 201/46/54 
f 198/50/53 203/51/57 202/52/57 199/49/53 
f 206/33/44 197/34/39 176/35/39 186/36/44 
f 195/33/37 207/34/45 187/35/45 174/36/37 
f 208/37/46 190/38/46 187/39/45 207/40/45 
f 198/41/53 201/42/54 209/43/54 210/44/53 
f 211/44/57 212/43/58 204/42/58 203/41/57 
f 209/45/54 201/46/54 204/47/58 212/48/58 
f 198/49/53 210/50/53 211/51/57 203/52/57 
f 206/34/44 186/53/44 190/54/46 208/33/46 
f 213/33/37 214/34/38 215/35/38 216/36/37 
f 217/37/39 218/38/39 215/39/38 214/40/38 
f 219/41/51 220/42/52 221/43/52 222/44/51 
f 223/44/42 224/43/43 225/42/43 226/41/42 
f 221/45/52 220/46/52 225/47/43 224/48/43 
f 219/49/51 222/50/51 223/51/42 226/52/42 
f 227/34/44 228/53/44 218/54/39 217/33/39 
f 213/34/37 216/53/37 229/54/45 230/33/45 
f 231/40/46 230/37/45 229/38/45 232/39/46 
f 219/41/51 233/44/51 234/43/52 220/42/52 
f 235/41/42 226/44/42 225/43/43 236/42/43 
f 234/45/52 236/48/43 225/47/43 220/46/52 
f 219/50/51 226/51/42 235/52/42 233/49/51 
f 227/33/44 231/34/46 232/35/46 228/36/44 
f 237/34/37 216/53/37 215/54/38 238/33/38 
f 239/40/39 238/37/38 215/38/38 218/39/39 
f 240/41/53 241/44/53 242/43/54 243/42/54 
f 244/41/49 245/44/49 246/43/50 247/42/50 
f 242/45/54 247/48/50 246/47/50 243/46/54 
f 240/50/53 245/51/49 244/52/49 241/49/53 
f 248/33/44 239/34/39 218/35/39 228/36/44 
f 237/33/37 249/34/45 229/35/45 216/36/37 
f 250/37/46 232/38/46 229/39/45 249/40/45 
f 240/41/53 243/42/54 251/43/54 252/44/53 
f 253/44/49 254/43/50 246/42/50 245/41/49 
f 251/45/54 243/46/54 246/47/50 254/48/50 
f 240/49/53 252/50/53 253/51/49 245/52/49 
f 248/34/44 228/53/44 232/54/46 250/33/46 
f 255/33/37 256/34/38 257/35/38 258/36/37 
f 259/37/39 260/38/39 257/39/38 256/40/38 
f 261/41/40 262/42/41 263/43/41 264/44/40 
f 265/44/42 266/43/43 267/42/43 268/41/42 
f 263/45/41 262/46/41 267/47/43 266/48/43 
f 261/49/40 264/50/40 265/51/42 268/52/42 
f 269/34/44 270/53/44 260/54/39 259/33/39 
f 255/34/37 258/53/37 271/54/45 272/33/45 
f 273/40/46 272/37/45 271/38/45 274/39/46 
f 261/41/40 275/44/40 276/43/41 262/42/41 
f 277/41/42 268/44/42 267/43/43 278/42/43 
f 276/45/41 278/48/43 267/47/43 262/46/41 
f 261/50/40 268/51/42 277/52/42 275/49/40 
f 269/33/44 273/34/46 274/35/46 270/36/44 
f 279/34/37 258/53/37 257/54/38 280/33/38 
f 281/40/39 280/37/38 257/38/38 260/39/39 
f 282/41/47 283/44/47 284/43/48 285/42/48 
f 286/41/49 287/44/49 288/43/50 289/42/50 
f 284/45/48 289/48/50 288/47/50 285/46/48 
f 282/50/47 287/51/49 286/52/49 283/49/47 
f 290/33/44 281/34/39 260/35/39 270/36/44 
f 279/33/37 291/34/45 271/35/45 258/36/37 
f 292/37/46 274/38/46 271/39/45 291/40/45 
f 282/41/47 285/42/48 293/43/48 294/44/47 
f 295/44/49 296/43/50 288/42/50 287/41/49 
f 293/45/48 285/46/48 288/47/50 296/48/50 
f 282/49/47 294/50/47 295/51/49 287/52/49 
f 290/34/44 270/53/44 274/54/46 292/33/46 
# 200 polygons

