# 3ds Max Wavefront OBJ Exporter v0.97b - (c)2007 guruware
# File Created: 27.03.2018 15:17:29

mtllib scaffale1.mtl

#
# object scaffale2
#

v  0.2269 0.0342 1.5667
v  -0.1961 0.0342 1.5667
v  -0.1961 0.0234 1.5240
v  0.2269 0.0234 1.5240
v  0.2269 0.9434 1.5240
v  -0.1961 0.9434 1.5240
v  -0.1961 0.9326 1.5667
v  0.2269 0.9326 1.5667
v  -0.1961 0.9132 1.5240
v  0.2269 0.9132 1.5240
v  0.3135 0.0484 0.0240
v  0.3135 0.0484 0.4647
v  -0.2826 0.0484 0.4521
v  -0.2826 0.0484 0.0240
v  0.3135 0.0484 1.5240
v  0.3135 0.0484 1.3085
v  0.3135 0.9159 1.3085
v  0.3135 0.9159 1.5240
v  0.3435 0.0784 1.2785
v  0.3435 0.0784 0.4947
v  0.3435 0.8859 0.4947
v  0.3435 0.8859 1.2785
v  -0.2826 0.9159 1.3085
v  -0.2826 0.9159 1.5240
v  0.3135 0.9159 0.4647
v  -0.2826 0.9159 0.4521
v  -0.2826 0.0484 1.3085
v  -0.2826 0.0484 1.5240
v  0.3435 0.0784 0.4347
v  0.3435 0.8859 0.4347
v  -0.2826 0.9159 0.0240
v  0.3135 0.9159 0.0240
v  0.3435 0.8859 0.0240
v  0.3435 0.0784 0.0240
v  0.2269 0.0342 -1.5188
v  0.2269 0.0234 -1.4760
v  -0.1961 0.0234 -1.4760
v  -0.1961 0.0342 -1.5188
v  0.2269 0.9434 -1.4760
v  0.2269 0.9326 -1.5188
v  -0.1961 0.9326 -1.5188
v  -0.1961 0.9434 -1.4760
v  0.2269 0.9132 -1.4760
v  -0.1961 0.9132 -1.4760
v  -0.2826 0.0484 -0.4042
v  0.3135 0.0484 -0.4168
v  0.3135 0.0484 -1.4760
v  0.3135 0.9159 -1.4760
v  0.3135 0.9159 -1.2606
v  0.3135 0.0484 -1.2606
v  0.3435 0.0784 -1.2306
v  0.3435 0.8859 -1.2306
v  0.3435 0.8859 -0.4468
v  0.3435 0.0784 -0.4468
v  -0.2826 0.9159 -1.4760
v  -0.2826 0.9159 -1.2606
v  0.3135 0.9159 -0.4168
v  -0.2826 0.9159 -0.4042
v  -0.2826 0.0484 -1.2606
v  -0.2826 0.0484 -1.4760
v  0.3435 0.0784 -0.3868
v  0.3435 0.8859 -0.3868
v  0.0154 1.3572 -1.4760
v  -0.2826 1.3572 -1.4760
v  -0.2826 1.3572 0.0240
v  0.0154 1.3572 0.0240
v  -0.2826 1.3072 -1.4760
v  -0.2826 1.3072 0.0240
v  0.0154 1.2929 -1.5188
v  0.0154 1.2821 -1.4760
v  -0.1961 1.2821 -1.4760
v  -0.1961 1.2929 -1.5188
v  -0.1961 1.3739 -1.5188
v  -0.1961 1.3846 -1.4760
v  0.0154 1.3846 -1.4760
v  0.0154 1.3739 -1.5188
v  0.0154 1.3072 -1.4760
v  0.0154 1.3072 0.0240
v  0.3135 1.3572 0.0240
v  0.3135 1.3572 -1.4760
v  0.3135 1.3072 -1.4760
v  0.3135 1.3072 0.0240
v  0.2269 1.2929 -1.5188
v  0.2269 1.2821 -1.4760
v  0.2269 1.3739 -1.5188
v  0.2269 1.3846 -1.4760
v  0.0154 1.3572 1.5240
v  -0.2826 1.3572 1.5240
v  -0.2826 1.3072 1.5240
v  0.0154 1.2929 1.5667
v  -0.1961 1.2929 1.5667
v  -0.1961 1.2821 1.5240
v  0.0154 1.2821 1.5240
v  -0.1961 1.3739 1.5667
v  0.0154 1.3739 1.5667
v  0.0154 1.3846 1.5240
v  -0.1961 1.3846 1.5240
v  0.0154 1.3072 1.5240
v  0.3135 1.3572 1.5240
v  0.3135 1.3072 1.5240
v  0.2269 1.2821 1.5240
v  0.2269 1.2929 1.5667
v  0.2269 1.3739 1.5667
v  0.2269 1.3846 1.5240
v  0.0154 1.9195 -1.4760
v  -0.2826 1.9195 -1.4760
v  -0.2826 1.9195 0.0240
v  0.0154 1.9195 0.0240
v  -0.2826 1.8695 -1.4760
v  -0.2826 1.8695 0.0240
v  0.0154 1.8553 -1.5188
v  0.0154 1.8445 -1.4760
v  -0.1961 1.8445 -1.4760
v  -0.1961 1.8553 -1.5188
v  -0.1961 1.9362 -1.5188
v  -0.1961 1.9470 -1.4760
v  0.0154 1.9470 -1.4760
v  0.0154 1.9362 -1.5188
v  0.0154 1.8695 -1.4760
v  0.0154 1.8695 0.0240
v  0.3135 1.9195 0.0240
v  0.3135 1.9195 -1.4760
v  0.3135 1.8695 -1.4760
v  0.3135 1.8695 0.0240
v  0.2269 1.8553 -1.5188
v  0.2269 1.8445 -1.4760
v  0.2269 1.9362 -1.5188
v  0.2269 1.9470 -1.4760
v  0.0154 1.9195 1.5240
v  -0.2826 1.9195 1.5240
v  -0.2826 1.8695 1.5240
v  0.0154 1.8553 1.5667
v  -0.1961 1.8553 1.5667
v  -0.1961 1.8445 1.5240
v  0.0154 1.8445 1.5240
v  -0.1961 1.9362 1.5667
v  0.0154 1.9362 1.5667
v  0.0154 1.9470 1.5240
v  -0.1961 1.9470 1.5240
v  0.0154 1.8695 1.5240
v  0.3135 1.9195 1.5240
v  0.3135 1.8695 1.5240
v  0.2269 1.8445 1.5240
v  0.2269 1.8553 1.5667
v  0.2269 1.9362 1.5667
v  0.2269 1.9470 1.5240
v  0.0154 2.4819 -1.4760
v  -0.2826 2.4819 -1.4760
v  -0.2826 2.4819 0.0240
v  0.0154 2.4819 0.0240
v  -0.2826 2.4319 -1.4760
v  -0.2826 2.4319 0.0240
v  0.0154 2.4176 -1.5188
v  0.0154 2.4069 -1.4760
v  -0.1961 2.4069 -1.4760
v  -0.1961 2.4176 -1.5188
v  -0.1961 2.4986 -1.5188
v  -0.1961 2.5094 -1.4760
v  0.0154 2.5094 -1.4760
v  0.0154 2.4986 -1.5188
v  0.0154 2.4319 -1.4760
v  0.0154 2.4319 0.0240
v  0.3135 2.4819 0.0240
v  0.3135 2.4819 -1.4760
v  0.3135 2.4319 -1.4760
v  0.3135 2.4319 0.0240
v  0.2269 2.4176 -1.5188
v  0.2269 2.4069 -1.4760
v  0.2269 2.4986 -1.5188
v  0.2269 2.5094 -1.4760
v  0.0154 2.4819 1.5240
v  -0.2826 2.4819 1.5240
v  -0.2826 2.4319 1.5240
v  0.0154 2.4176 1.5667
v  -0.1961 2.4176 1.5667
v  -0.1961 2.4069 1.5240
v  0.0154 2.4069 1.5240
v  -0.1961 2.4986 1.5667
v  0.0154 2.4986 1.5667
v  0.0154 2.5094 1.5240
v  -0.1961 2.5094 1.5240
v  0.0154 2.4319 1.5240
v  0.3135 2.4819 1.5240
v  0.3135 2.4319 1.5240
v  0.2269 2.4069 1.5240
v  0.2269 2.4176 1.5667
v  0.2269 2.4986 1.5667
v  0.2269 2.5094 1.5240
v  0.0154 3.0443 -1.4760
v  -0.2826 3.0443 -1.4760
v  -0.2826 3.0443 0.0240
v  0.0154 3.0443 0.0240
v  -0.2826 2.9943 -1.4760
v  -0.2826 2.9943 0.0240
v  0.0154 2.9800 -1.5188
v  0.0154 2.9693 -1.4760
v  -0.1961 2.9693 -1.4760
v  -0.1961 2.9800 -1.5188
v  -0.1961 3.0610 -1.5188
v  -0.1961 3.0718 -1.4760
v  0.0154 3.0718 -1.4760
v  0.0154 3.0610 -1.5188
v  0.0154 2.9943 -1.4760
v  0.0154 2.9943 0.0240
v  0.3135 3.0443 0.0240
v  0.3135 3.0443 -1.4760
v  0.3135 2.9943 -1.4760
v  0.3135 2.9943 0.0240
v  0.2269 2.9800 -1.5188
v  0.2269 2.9693 -1.4760
v  0.2269 3.0610 -1.5188
v  0.2269 3.0718 -1.4760
v  0.0154 3.0443 1.5240
v  -0.2826 3.0443 1.5240
v  -0.2826 2.9943 1.5240
v  0.0154 2.9800 1.5667
v  -0.1961 2.9800 1.5667
v  -0.1961 2.9693 1.5240
v  0.0154 2.9693 1.5240
v  -0.1961 3.0610 1.5667
v  0.0154 3.0610 1.5667
v  0.0154 3.0718 1.5240
v  -0.1961 3.0718 1.5240
v  0.0154 2.9943 1.5240
v  0.3135 3.0443 1.5240
v  0.3135 2.9943 1.5240
v  0.2269 2.9693 1.5240
v  0.2269 2.9800 1.5667
v  0.2269 3.0610 1.5667
v  0.2269 3.0718 1.5240
v  -0.3346 0.0130 -1.3715
v  -0.3346 3.0718 -1.3715
v  -0.3199 3.0718 -1.5114
v  -0.3199 0.0130 -1.5114
v  -0.1961 3.0718 -1.5260
v  -0.1961 0.0130 -1.5260
v  -0.2846 3.0718 -1.3715
v  -0.2846 0.0130 -1.3715
v  -0.2846 0.0130 -1.4760
v  -0.2846 3.0718 -1.4760
v  -0.1961 0.0130 -1.4760
v  0.3654 0.0130 -1.3715
v  0.3508 0.0130 -1.5114
v  0.3508 3.0718 -1.5114
v  0.3654 3.0718 -1.3715
v  0.2269 3.0718 -1.5260
v  0.2269 0.0130 -1.5260
v  0.3154 3.0718 -1.3715
v  0.3154 3.0718 -1.4760
v  0.3154 0.0130 -1.4760
v  0.3154 0.0130 -1.3715
v  0.2269 0.0130 -1.4760
v  -0.3346 0.0130 1.4194
v  -0.3199 0.0130 1.5593
v  -0.3199 3.0718 1.5593
v  -0.3346 3.0718 1.4194
v  -0.1961 3.0718 1.5740
v  -0.1961 0.0130 1.5740
v  -0.2846 3.0718 1.4194
v  -0.2846 3.0718 1.5240
v  -0.2846 0.0130 1.5240
v  -0.2846 0.0130 1.4194
v  -0.1961 0.0130 1.5240
v  0.3654 0.0130 1.4194
v  0.3654 3.0718 1.4194
v  0.3508 3.0718 1.5593
v  0.3508 0.0130 1.5593
v  0.2269 3.0718 1.5740
v  0.2269 0.0130 1.5740
v  0.3154 3.0718 1.4194
v  0.3154 0.0130 1.4194
v  0.3154 0.0130 1.5240
v  0.3154 3.0718 1.5240
v  0.2269 0.0130 1.5240
# 274 vertices

vn 0.0000 -0.6143 0.7891
vn 0.0000 -0.7891 -0.6143
vn 0.0000 0.7891 -0.6143
vn 0.0000 0.6143 0.7891
vn 0.0000 0.0000 -1.0000
vn 0.3827 -0.9239 -0.0000
vn 0.5154 -0.8569 -0.0000
vn -0.7071 -0.7071 -0.0000
vn 0.7071 -0.7071 -0.0000
vn 0.6019 -0.7863 0.1392
vn 0.6019 0.7863 0.1392
vn 0.7071 0.7071 -0.0000
vn 0.9054 -0.3002 0.3002
vn 0.9054 -0.3002 -0.3002
vn 0.9054 0.3002 -0.3002
vn 0.9054 0.3002 0.3002
vn -0.7071 0.7071 -0.0000
vn 0.5154 0.8569 0.0000
vn 0.3827 0.9239 -0.0000
vn 0.9239 0.3827 -0.0000
vn 0.9239 -0.3827 -0.0000
vn 0.0000 -0.6145 -0.7889
vn 0.0000 -0.7889 0.6145
vn 0.0000 0.7889 0.6145
vn 0.0000 0.6145 -0.7889
vn 0.0000 0.0000 1.0000
vn 0.5154 -0.8569 0.0000
vn 0.6019 0.7863 -0.1392
vn 0.6019 -0.7863 -0.1392
vn 0.0000 1.0000 -0.0000
vn 0.0000 0.6154 -0.7882
vn 0.0000 0.7882 0.6154
vn 0.0000 -1.0000 -0.0000
vn 0.0000 0.6152 0.7884
vn 0.0000 0.7884 -0.6152
vn 0.0000 -0.6154 -0.7882
vn 0.0000 -0.7882 0.6154
vn 0.0000 -0.6152 0.7884
vn 0.0000 -0.7884 -0.6152
vn -0.7431 0.0000 0.6691
vn -0.6095 0.5720 0.5488
vn -0.5746 0.5899 -0.5673
vn -0.7116 0.0000 -0.7026
vn 0.5452 0.5714 -0.6133
vn 0.6644 0.0000 -0.7474
vn 0.5774 0.5774 0.5774
vn 0.7071 0.0000 0.7071
vn 0.3015 0.9045 0.3015
vn 0.7429 0.0000 0.6694
vn 0.7118 0.0000 -0.7024
vn 0.5748 0.5899 -0.5672
vn 0.6093 0.5721 0.5490
vn -0.5453 0.5714 -0.6133
vn -0.6644 0.0000 -0.7473
vn -0.5774 0.5774 0.5774
vn -0.3015 0.9045 0.3015
vn -0.7071 0.0000 0.7071
vn -0.7431 0.0000 -0.6691
vn -0.7119 0.0000 0.7023
vn -0.5748 0.5900 0.5671
vn -0.6095 0.5720 -0.5488
vn 0.5450 0.5714 0.6136
vn 0.6641 0.0000 0.7476
vn 0.5774 0.5774 -0.5774
vn 0.3015 0.9045 -0.3015
vn 0.7071 0.0000 -0.7071
vn 0.7429 0.0000 -0.6694
vn 0.6093 0.5721 -0.5490
vn 0.5750 0.5899 0.5669
vn 0.7121 0.0000 0.7021
vn -0.5450 0.5714 0.6135
vn -0.6641 0.0000 0.7476
vn -0.5774 0.5774 -0.5774
vn -0.7071 0.0000 -0.7071
vn -0.3015 0.9045 -0.3015
# 75 vertex normals

vt 0.2363 0.6862 0.0000
vt 0.2996 0.6862 0.0000
vt 0.2996 0.6798 0.0000
vt 0.2363 0.6798 0.0000
vt 0.3005 0.5410 0.0000
vt 0.3005 0.6741 0.0000
vt 0.2372 0.6741 0.0000
vt 0.2372 0.5410 0.0000
vt 0.3005 0.6770 0.0000
vt 0.2372 0.6770 0.0000
vt 0.2372 0.5426 0.0000
vt 0.3005 0.5426 0.0000
vt 0.1407 0.9915 0.0000
vt 0.2051 0.9915 0.0000
vt 0.2032 0.9023 0.0000
vt 0.1407 0.9023 0.0000
vt 0.3076 0.5433 0.0000
vt 0.3398 0.5433 0.0000
vt 0.3398 0.6731 0.0000
vt 0.3076 0.6731 0.0000
vt 0.3443 0.5478 0.0000
vt 0.4616 0.5478 0.0000
vt 0.4616 0.6686 0.0000
vt 0.3443 0.6686 0.0000
vt 0.3636 0.9915 0.0000
vt 0.3313 0.9915 0.0000
vt 0.3313 0.9023 0.0000
vt 0.3636 0.9023 0.0000
vt 0.4680 0.6731 0.0000
vt 0.4680 0.5433 0.0000
vt 0.4706 0.5478 0.0000
vt 0.4706 0.6686 0.0000
vt 0.4661 0.6731 0.0000
vt 0.4661 0.5433 0.0000
vt 0.5304 0.6731 0.0000
vt 0.5304 0.5433 0.0000
vt 0.5304 0.6686 0.0000
vt 0.3005 0.6786 0.0000
vt 0.2372 0.6786 0.0000
vt 0.5304 0.5478 0.0000
vt 0.1730 0.9023 0.0000
vt 0.1730 0.9915 0.0000
vt 0.2992 0.9915 0.0000
vt 0.3011 0.9023 0.0000
vt 0.2238 0.7225 0.0000
vt 0.1792 0.7225 0.0000
vt 0.1792 0.4988 0.0000
vt 0.2238 0.4981 0.0000
vt 0.2334 0.4983 0.0000
vt 0.2334 0.7220 0.0000
vt 0.2259 0.7220 0.0000
vt 0.2259 0.4983 0.0000
vt 0.2660 0.5025 0.0000
vt 0.2660 0.4961 0.0000
vt 0.2347 0.4961 0.0000
vt 0.2347 0.5025 0.0000
vt 0.2351 0.5185 0.0000
vt 0.2664 0.5185 0.0000
vt 0.2664 0.5338 0.0000
vt 0.2351 0.5338 0.0000
vt 0.2348 0.5031 0.0000
vt 0.2662 0.5031 0.0000
vt 0.2662 0.5153 0.0000
vt 0.2348 0.5153 0.0000
vt 0.1792 0.4981 0.0000
vt 0.2238 0.4988 0.0000
vt 0.0136 0.0096 0.0000
vt 0.4713 0.0096 0.0000
vt 0.4713 0.0118 0.0000
vt 0.0136 0.0118 0.0000
vt 0.0136 0.0046 0.0000
vt 0.4713 0.0046 0.0000
vt 0.4713 0.0067 0.0000
vt 0.0136 0.0067 0.0000
vt 0.0143 0.0373 0.0000
vt 0.4720 0.0373 0.0000
vt 0.4720 0.0216 0.0000
vt 0.0143 0.0216 0.0000
vt 0.4699 0.0612 0.0000
vt 0.0121 0.0612 0.0000
vt 0.0121 0.0479 0.0000
vt 0.4699 0.0479 0.0000
vt 0.0121 0.0404 0.0000
vt 0.4699 0.0404 0.0000
vt 0.5594 0.1848 0.0000
vt 0.5438 0.1848 0.0000
vt 0.5385 0.1795 0.0000
vt 0.5594 0.1774 0.0000
vt 0.5438 0.1981 0.0000
vt 0.5363 0.1981 0.0000
vt 0.4720 0.0141 0.0000
vt 0.0143 0.0141 0.0000
vt 0.5511 0.1699 0.0000
vt 0.5511 0.1625 0.0000
vt 0.5720 0.1646 0.0000
vt 0.5667 0.1699 0.0000
vt 0.5742 0.1832 0.0000
vt 0.5667 0.1832 0.0000
# 98 texture coords

g scaffale2
usemtl props
s 1
f 1/1/1 2/2/1 3/3/2 4/4/2 
f 5/4/3 6/3/3 7/2/4 8/1/4 
f 3/5/2 9/6/5 10/7/5 4/8/2 
f 8/9/4 7/10/4 2/11/1 1/12/1 
f 11/13/6 12/14/7 13/15/8 14/16/8 
f 15/17/9 16/18/10 17/19/11 18/20/12 
f 19/21/13 20/22/14 21/23/15 22/24/16 
f 18/25/12 17/26/11 23/27/17 24/28/17 
f 25/14/18 26/15/17 23/27/17 17/26/11 
f 27/18/8 28/17/8 24/20/17 23/19/17 
f 27/18/8 23/19/17 26/29/17 13/30/8 
f 27/27/8 16/26/10 15/25/9 28/28/8 
f 16/26/10 27/27/8 13/15/8 12/14/7 
f 29/31/13 30/32/16 25/33/18 12/34/7 
f 22/24/16 21/23/15 25/33/18 17/19/11 
f 19/21/13 22/24/16 17/19/11 16/18/10 
f 16/18/10 12/34/7 20/22/14 19/21/13 
f 12/34/7 25/33/18 21/23/15 20/22/14 
f 13/30/8 26/29/17 31/35/17 14/36/8 
f 32/35/19 25/33/18 30/32/16 33/37/20 
f 6/38/3 5/39/3 10/7/5 9/6/5 
f 34/40/21 33/37/20 30/32/16 29/31/13 
f 11/36/6 34/40/21 29/31/13 12/34/7 
f 32/13/19 31/16/17 26/15/17 25/14/18 
f 35/1/22 36/4/23 37/3/23 38/2/22 
f 39/3/24 40/2/25 41/1/25 42/4/24 
f 37/5/23 36/8/23 43/7/26 44/6/26 
f 40/10/25 35/11/22 38/12/22 41/9/25 
f 11/13/6 14/16/8 45/15/8 46/14/27 
f 47/17/9 48/20/12 49/19/28 50/18/29 
f 51/21/14 52/24/15 53/23/16 54/22/13 
f 48/13/12 55/16/17 56/41/17 49/42/28 
f 57/43/18 49/42/28 56/41/17 58/44/17 
f 59/18/8 56/19/17 55/20/17 60/17/8 
f 59/18/8 45/30/8 58/29/17 56/19/17 
f 59/27/8 60/28/8 47/25/9 50/26/29 
f 50/26/29 46/14/27 45/15/8 59/27/8 
f 61/31/14 46/34/27 57/33/18 62/32/15 
f 52/24/15 49/19/28 57/33/18 53/23/16 
f 51/21/14 50/18/29 49/19/28 52/24/15 
f 50/18/29 51/21/14 54/22/13 46/34/27 
f 46/34/27 54/22/13 53/23/16 57/33/18 
f 45/30/8 14/36/8 31/35/17 58/29/17 
f 32/35/19 33/37/20 62/32/15 57/33/18 
f 42/38/24 44/6/26 43/7/26 39/39/24 
f 34/40/21 61/31/14 62/32/15 33/37/20 
f 11/36/6 46/34/27 61/31/14 34/40/21 
f 32/25/19 57/43/18 58/44/17 31/28/17 
f 63/45/30 64/46/17 65/47/17 66/48/30 
f 67/49/8 68/50/8 65/51/17 64/52/17 
f 69/53/22 70/54/23 71/55/23 72/56/22 
f 73/56/31 74/55/32 75/54/32 76/53/31 
f 71/57/23 70/58/23 75/59/32 74/60/32 
f 69/61/22 72/62/22 73/63/31 76/64/31 
f 77/46/33 78/65/33 68/66/8 67/45/8 
f 63/46/30 66/65/30 79/66/12 80/45/12 
f 81/52/9 80/49/12 79/50/12 82/51/9 
f 69/53/22 83/56/22 84/55/23 70/54/23 
f 85/53/31 76/56/31 75/55/32 86/54/32 
f 84/57/23 86/60/32 75/59/32 70/58/23 
f 69/62/22 76/63/31 85/64/31 83/61/22 
f 77/45/33 81/46/9 82/47/9 78/48/33 
f 87/46/30 66/65/30 65/66/17 88/45/17 
f 89/52/8 88/49/17 65/50/17 68/51/8 
f 90/53/1 91/56/1 92/55/2 93/54/2 
f 94/53/34 95/56/34 96/55/35 97/54/35 
f 92/57/2 97/60/35 96/59/35 93/58/2 
f 90/62/1 95/63/34 94/64/34 91/61/1 
f 98/45/33 89/46/8 68/47/8 78/48/33 
f 87/45/30 99/46/12 79/47/12 66/48/30 
f 100/49/9 82/50/9 79/51/12 99/52/12 
f 90/53/1 93/54/2 101/55/2 102/56/1 
f 103/56/34 104/55/35 96/54/35 95/53/34 
f 101/57/2 93/58/2 96/59/35 104/60/35 
f 90/61/1 102/62/1 103/63/34 95/64/34 
f 98/46/33 78/65/33 82/66/9 100/45/9 
f 105/45/30 106/46/17 107/47/17 108/48/30 
f 109/49/8 110/50/8 107/51/17 106/52/17 
f 111/53/22 112/54/23 113/55/23 114/56/22 
f 115/56/25 116/55/24 117/54/24 118/53/25 
f 113/57/23 112/58/23 117/59/24 116/60/24 
f 111/61/22 114/62/22 115/63/25 118/64/25 
f 119/46/33 120/65/33 110/66/8 109/45/8 
f 105/46/30 108/65/30 121/66/12 122/45/12 
f 123/52/9 122/49/12 121/50/12 124/51/9 
f 111/53/22 125/56/22 126/55/23 112/54/23 
f 127/53/25 118/56/25 117/55/24 128/54/24 
f 126/57/23 128/60/24 117/59/24 112/58/23 
f 111/62/22 118/63/25 127/64/25 125/61/22 
f 119/45/33 123/46/9 124/47/9 120/48/33 
f 129/46/30 108/65/30 107/66/17 130/45/17 
f 131/52/8 130/49/17 107/50/17 110/51/8 
f 132/53/1 133/56/1 134/55/2 135/54/2 
f 136/53/4 137/56/4 138/55/3 139/54/3 
f 134/57/2 139/60/3 138/59/3 135/58/2 
f 132/62/1 137/63/4 136/64/4 133/61/1 
f 140/45/33 131/46/8 110/47/8 120/48/33 
f 129/45/30 141/46/12 121/47/12 108/48/30 
f 142/49/9 124/50/9 121/51/12 141/52/12 
f 132/53/1 135/54/2 143/55/2 144/56/1 
f 145/56/4 146/55/3 138/54/3 137/53/4 
f 143/57/2 135/58/2 138/59/3 146/60/3 
f 132/61/1 144/62/1 145/63/4 137/64/4 
f 140/46/33 120/65/33 124/66/9 142/45/9 
f 147/45/30 148/46/17 149/47/17 150/48/30 
f 151/49/8 152/50/8 149/51/17 148/52/17 
f 153/53/36 154/54/37 155/55/37 156/56/36 
f 157/56/25 158/55/24 159/54/24 160/53/25 
f 155/57/37 154/58/37 159/59/24 158/60/24 
f 153/61/36 156/62/36 157/63/25 160/64/25 
f 161/46/33 162/65/33 152/66/8 151/45/8 
f 147/46/30 150/65/30 163/66/12 164/45/12 
f 165/52/9 164/49/12 163/50/12 166/51/9 
f 153/53/36 167/56/36 168/55/37 154/54/37 
f 169/53/25 160/56/25 159/55/24 170/54/24 
f 168/57/37 170/60/24 159/59/24 154/58/37 
f 153/62/36 160/63/25 169/64/25 167/61/36 
f 161/45/33 165/46/9 166/47/9 162/48/33 
f 171/46/30 150/65/30 149/66/17 172/45/17 
f 173/52/8 172/49/17 149/50/17 152/51/8 
f 174/53/38 175/56/38 176/55/39 177/54/39 
f 178/53/4 179/56/4 180/55/3 181/54/3 
f 176/57/39 181/60/3 180/59/3 177/58/39 
f 174/62/38 179/63/4 178/64/4 175/61/38 
f 182/45/33 173/46/8 152/47/8 162/48/33 
f 171/45/30 183/46/12 163/47/12 150/48/30 
f 184/49/9 166/50/9 163/51/12 183/52/12 
f 174/53/38 177/54/39 185/55/39 186/56/38 
f 187/56/4 188/55/3 180/54/3 179/53/4 
f 185/57/39 177/58/39 180/59/3 188/60/3 
f 174/61/38 186/62/38 187/63/4 179/64/4 
f 182/46/33 162/65/33 166/66/9 184/45/9 
f 189/45/30 190/46/17 191/47/17 192/48/30 
f 193/49/8 194/50/8 191/51/17 190/52/17 
f 195/53/36 196/54/37 197/55/37 198/56/36 
f 199/56/25 200/55/24 201/54/24 202/53/25 
f 197/57/37 196/58/37 201/59/24 200/60/24 
f 195/61/36 198/62/36 199/63/25 202/64/25 
f 203/46/33 204/65/33 194/66/8 193/45/8 
f 189/46/30 192/65/30 205/66/12 206/45/12 
f 207/52/9 206/49/12 205/50/12 208/51/9 
f 195/53/36 209/56/36 210/55/37 196/54/37 
f 211/53/25 202/56/25 201/55/24 212/54/24 
f 210/57/37 212/60/24 201/59/24 196/58/37 
f 195/62/36 202/63/25 211/64/25 209/61/36 
f 203/45/33 207/46/9 208/47/9 204/48/33 
f 213/46/30 192/65/30 191/66/17 214/45/17 
f 215/52/8 214/49/17 191/50/17 194/51/8 
f 216/53/38 217/56/38 218/55/39 219/54/39 
f 220/53/4 221/56/4 222/55/3 223/54/3 
f 218/57/39 223/60/3 222/59/3 219/58/39 
f 216/62/38 221/63/4 220/64/4 217/61/38 
f 224/45/33 215/46/8 194/47/8 204/48/33 
f 213/45/30 225/46/12 205/47/12 192/48/30 
f 226/49/9 208/50/9 205/51/12 225/52/12 
f 216/53/38 219/54/39 227/55/39 228/56/38 
f 229/56/4 230/55/3 222/54/3 221/53/4 
f 227/57/39 219/58/39 222/59/3 230/60/3 
f 216/61/38 228/62/38 229/63/4 221/64/4 
f 224/46/33 204/65/33 208/66/9 226/45/9 
f 231/67/40 232/68/41 233/69/42 234/70/43 
f 235/71/44 236/72/45 234/73/43 233/74/42 
f 237/75/46 238/76/47 239/77/47 240/78/48 
f 241/79/47 200/80/46 240/81/48 239/82/47 
f 238/82/47 237/81/46 232/83/41 231/84/40 
f 237/85/46 240/86/48 233/87/42 232/88/41 
f 240/86/48 200/89/46 235/90/44 233/87/42 
f 200/78/46 241/77/47 236/91/45 235/92/44 
f 242/68/49 243/69/50 244/70/51 245/67/52 
f 246/72/53 244/73/51 243/74/50 247/71/54 
f 248/75/55 249/78/56 250/77/57 251/76/57 
f 252/79/57 250/82/57 249/81/56 212/80/55 
f 251/82/57 242/84/49 245/83/52 248/81/55 
f 248/93/55 245/94/52 244/95/51 249/96/56 
f 249/96/56 244/95/51 246/97/53 212/98/55 
f 212/78/55 246/92/53 247/91/54 252/77/57 
f 253/68/58 254/69/59 255/70/60 256/67/61 
f 257/72/62 255/73/60 254/74/59 258/71/63 
f 259/75/64 260/78/65 261/77/66 262/76/66 
f 263/79/66 261/82/66 260/81/65 223/80/64 
f 262/82/66 253/84/58 256/83/61 259/81/64 
f 259/93/64 256/94/61 255/95/60 260/96/65 
f 260/96/65 255/95/60 257/97/62 223/98/64 
f 223/78/64 257/92/62 258/91/63 263/77/66 
f 264/67/67 265/68/68 266/69/69 267/70/70 
f 268/71/71 269/72/72 267/73/70 266/74/69 
f 270/76/73 271/75/74 272/78/74 273/77/75 
f 274/79/74 230/80/73 273/81/75 272/82/74 
f 271/82/74 270/81/73 265/83/68 264/84/67 
f 270/85/73 273/86/75 266/87/69 265/88/68 
f 273/86/75 230/89/73 268/90/71 266/87/69 
f 230/78/73 274/77/74 269/91/72 268/92/71 
# 192 polygons

