# 3ds Max Wavefront OBJ Exporter v0.97b - (c)2007 guruware
# File Created: 12.02.2018 15:36:43

mtllib scatolotto.mtl

#
# object coso_ext
#

v  -0.1968 -0.1111 0.3535
v  0.1593 -0.1111 0.3535
v  0.1593 0.2178 0.3535
v  -0.1968 0.2178 0.3535
v  0.1593 0.2178 -0.3465
v  0.1593 -0.1111 -0.3465
v  -0.1968 -0.1111 -0.3465
v  -0.1968 0.2178 -0.3465
v  0.1593 -0.1394 0.2969
v  -0.1968 -0.1394 0.2969
v  -0.1968 -0.1394 -0.2899
v  0.1593 -0.1394 -0.2899
v  -0.1968 0.7606 -0.2899
v  -0.1968 0.7606 0.2969
v  0.1593 0.7606 0.2969
v  0.1593 0.7606 -0.2899
v  0.1876 0.2178 -0.3182
v  0.1876 0.7322 -0.3182
v  0.1876 0.7322 0.3252
v  0.1876 0.2178 0.3252
v  0.1593 0.7322 -0.3465
v  -0.1968 0.7322 -0.3465
v  -0.1685 0.7606 -0.3182
v  0.1310 0.7606 -0.3182
v  -0.2250 0.7322 -0.3182
v  -0.2250 0.7322 0.3252
v  0.1310 -0.1394 -0.3182
v  -0.1685 -0.1394 -0.3182
v  -0.2250 -0.1111 -0.3182
v  -0.2250 -0.1111 0.3252
v  0.1876 -0.1111 -0.3182
v  0.1876 -0.1111 0.3252
v  0.1310 0.7606 0.3252
v  0.1593 0.7322 0.3535
v  -0.2250 0.2178 -0.3182
v  -0.2250 0.2178 0.3252
v  -0.1968 0.7322 0.3535
v  -0.1685 0.7606 0.3252
v  -0.1685 -0.1394 0.3252
v  0.2250 0.6117 0.2462
v  0.2250 0.2206 0.2462
v  0.2250 0.2206 -0.0510
v  0.2250 0.6117 -0.0510
v  0.1876 0.2206 0.2462
v  0.1876 0.2206 -0.0510
v  0.1876 0.6117 -0.0510
v  0.1876 0.6117 0.2462
v  0.0864 -0.3117 -0.2003
v  0.0805 -0.1785 -0.1984
v  0.0929 -0.1782 -0.1767
v  0.0989 -0.3117 -0.1786
v  0.0615 -0.3135 -0.2003
v  0.0554 -0.1796 -0.1984
v  0.0429 -0.1805 -0.1767
v  0.0490 -0.3153 -0.1787
v  0.0617 -0.3153 -0.1570
v  0.0554 -0.1802 -0.1551
v  0.0865 -0.3135 -0.1570
v  0.0805 -0.1791 -0.1551
v  0.0966 -0.4169 -0.2076
v  0.1093 -0.4188 -0.1861
v  0.0717 -0.4185 -0.2077
v  0.0594 -0.4219 -0.1862
v  0.0720 -0.4238 -0.1646
v  0.0970 -0.4222 -0.1646
v  0.1121 -0.5062 -0.2015
v  0.0993 -0.5012 -0.2225
v  0.0742 -0.4999 -0.2221
v  0.0619 -0.5036 -0.2006
v  0.0747 -0.5086 -0.1796
v  0.0998 -0.5099 -0.1801
v  0.0986 -0.5999 -0.2235
v  0.0864 -0.5913 -0.2437
v  0.0618 -0.5868 -0.2424
v  0.0496 -0.5907 -0.2210
v  0.0617 -0.5992 -0.2009
v  0.0863 -0.6038 -0.2021
v  0.0761 -0.6851 -0.2549
v  0.0655 -0.6712 -0.2731
v  0.0429 -0.6594 -0.2694
v  0.0308 -0.6615 -0.2474
v  0.0415 -0.6755 -0.2292
v  0.0641 -0.6873 -0.2329
v  -0.0003 -0.7344 -0.3039
v  0.0055 -0.7531 -0.2879
v  -0.0138 -0.7139 -0.2960
v  -0.0219 -0.7120 -0.2722
v  -0.0163 -0.7308 -0.2562
v  -0.0027 -0.7513 -0.2641
v  -0.0931 -0.7581 -0.3195
v  -0.0926 -0.7782 -0.3046
v  -0.0984 -0.7355 -0.3101
v  -0.1032 -0.7330 -0.2857
v  -0.1028 -0.7531 -0.2707
v  -0.0975 -0.7758 -0.2802
v  -0.1955 -0.7845 -0.3249
v  -0.1939 -0.7642 -0.3395
v  -0.1973 -0.7414 -0.3296
v  -0.2023 -0.7390 -0.3053
v  -0.2039 -0.7592 -0.2907
v  -0.2006 -0.7820 -0.3006
v  0.0689 -0.1394 -0.1312
v  0.0689 -0.1865 -0.1312
v  0.1095 -0.1865 -0.1546
v  0.1095 -0.1394 -0.1546
v  0.1095 -0.1394 -0.2014
v  0.1095 -0.1865 -0.2014
v  0.0689 -0.1394 -0.2248
v  0.0689 -0.1865 -0.2248
v  0.0285 -0.1865 -0.2014
v  0.0285 -0.1394 -0.2014
v  0.0285 -0.1865 -0.1546
v  0.0285 -0.1394 -0.1546
v  0.0424 0.7567 -0.1532
v  0.0829 0.7567 -0.1766
v  0.0829 0.8037 -0.1766
v  0.0424 0.8037 -0.1532
v  0.0829 0.7567 -0.2234
v  0.0829 0.8037 -0.2234
v  0.0424 0.7567 -0.2468
v  0.0424 0.8037 -0.2468
v  0.0018 0.7567 -0.2234
v  0.0018 0.8037 -0.2234
v  0.0018 0.7567 -0.1766
v  0.0018 0.8037 -0.1766
v  -0.2080 -0.7630 -0.2599
v  -0.1872 -0.7631 -0.2599
v  -0.1873 -0.7225 -0.2833
v  -0.2080 -0.7226 -0.2833
v  -0.1873 -0.7225 -0.3301
v  -0.2080 -0.7226 -0.3301
v  -0.1872 -0.7631 -0.3535
v  -0.2080 -0.7630 -0.3535
v  -0.1872 -0.8036 -0.3301
v  -0.2081 -0.8036 -0.3301
v  -0.2081 -0.8036 -0.2833
v  -0.1872 -0.8036 -0.2833
v  -0.1637 -0.7631 -0.2599
v  -0.1637 -0.8036 -0.2833
v  -0.1637 -0.7225 -0.3301
v  -0.1637 -0.7225 -0.2833
v  -0.1637 -0.8036 -0.3301
v  -0.1637 -0.7631 -0.3535
v  -0.1664 -0.7225 -0.2833
v  -0.1664 -0.7630 -0.2599
v  -0.2107 -0.7225 -0.2833
v  -0.2108 -0.7631 -0.2599
v  -0.1664 -0.7225 -0.3301
v  -0.2107 -0.7225 -0.3301
v  -0.1664 -0.7630 -0.3535
v  -0.2108 -0.7631 -0.3535
v  -0.1664 -0.8037 -0.3301
v  -0.2107 -0.8036 -0.3301
v  -0.1664 -0.8037 -0.2833
v  -0.2107 -0.8036 -0.2833
v  0.1310 -0.1394 0.3252
# 156 vertices

vn -0.3662 -0.4093 0.8357
vn 0.3827 0.0000 0.9239
vn -0.3827 0.0000 0.9239
vn 0.3827 0.0000 -0.9239
vn 0.3662 -0.4093 -0.8357
vn -0.3662 -0.4093 -0.8357
vn -0.3827 0.0000 -0.9239
vn 0.4414 -0.8879 0.1294
vn -0.3862 -0.9154 0.1132
vn -0.3862 -0.9154 -0.1132
vn 0.3862 -0.9154 -0.1132
vn -0.3870 0.9150 -0.1135
vn -0.3870 0.9150 0.1136
vn 0.3870 0.9150 0.1136
vn 0.3870 0.9151 -0.1135
vn 0.9239 0.0000 -0.3827
vn 0.8360 0.4086 -0.3663
vn 0.8360 0.4086 0.3663
vn 0.9239 0.0000 0.3827
vn 0.3663 0.4086 -0.8360
vn -0.3663 0.4086 -0.8360
vn -0.1136 0.9151 -0.3870
vn 0.1136 0.9151 -0.3870
vn -0.6792 0.5465 -0.4899
vn -0.6792 0.5465 0.4899
vn 0.1132 -0.9154 -0.3862
vn -0.1132 -0.9154 -0.3862
vn -0.6786 -0.5474 -0.4898
vn -0.6786 -0.5474 0.4898
vn 0.8357 -0.4093 -0.3662
vn 0.8357 -0.4093 0.3662
vn 0.1135 0.9151 0.3870
vn 0.3663 0.4086 0.8360
vn -0.7071 0.0000 -0.7071
vn -0.7071 0.0000 0.7071
vn -0.3663 0.4086 0.8360
vn -0.1135 0.9151 0.3870
vn -0.1132 -0.9154 0.3862
vn 0.5774 0.5774 0.5774
vn 0.5774 -0.5774 0.5774
vn 0.5774 -0.5774 -0.5774
vn 0.5774 0.5774 -0.5774
vn 0.0000 -0.7071 0.7071
vn 0.0000 -0.7071 -0.7071
vn 0.0000 0.7071 -0.7071
vn 0.0000 0.7071 0.7071
vn 0.4949 0.0715 -0.8660
vn 0.4995 0.0348 -0.8656
vn 0.9990 0.0451 0.0014
vn 0.9975 0.0702 0.0102
vn -0.5097 0.0001 -0.8604
vn -0.5001 -0.0105 -0.8659
vn -0.9990 -0.0456 0.0007
vn -0.9974 -0.0710 0.0070
vn -0.4978 -0.0715 0.8643
vn -0.4986 -0.0351 0.8661
vn 0.4912 -0.0017 0.8710
vn 0.4992 0.0104 0.8664
vn 0.5084 0.1374 -0.8501
vn 0.9979 0.0622 0.0156
vn -0.5037 0.0738 -0.8607
vn -0.9977 -0.0659 0.0149
vn -0.4788 -0.1376 0.8671
vn 0.5063 -0.0734 0.8592
vn 0.9985 -0.0530 -0.0104
vn 0.5165 0.1447 -0.8440
vn -0.4888 0.2009 -0.8490
vn -0.9984 0.0488 0.0291
vn -0.4671 -0.1534 0.8708
vn 0.5218 -0.1993 0.8295
vn 0.9817 -0.1878 -0.0329
vn 0.5148 0.1504 -0.8440
vn -0.4848 0.3406 -0.8056
vn -0.9817 0.1770 0.0710
vn -0.4749 -0.1634 0.8647
vn 0.4913 -0.3394 0.8021
vn 0.8776 -0.4579 -0.1420
vn 0.5169 0.0529 -0.8544
vn -0.3465 0.5289 -0.7748
vn -0.8786 0.4496 0.1607
vn -0.4059 -0.1396 0.9032
vn 0.4496 -0.5579 0.6976
vn 0.3348 -0.1117 -0.9356
vn 0.5261 -0.7939 -0.3050
vn -0.1745 0.6904 -0.7021
vn -0.5266 0.7942 0.3032
vn -0.2741 -0.0147 0.9616
vn 0.2426 -0.7630 0.5991
vn 0.1988 -0.1293 -0.9715
vn 0.2108 -0.9061 -0.3668
vn -0.0123 0.7923 -0.6099
vn -0.2125 0.8944 0.3935
vn -0.1901 0.0707 0.9792
vn 0.0207 -0.8099 0.5862
vn 0.1327 -0.9101 -0.3927
vn 0.1989 -0.0987 -0.9750
vn 0.0655 0.8120 -0.5800
vn -0.1328 0.9099 0.3931
vn -0.1989 0.1001 0.9749
vn -0.0663 -0.8107 0.5817
vn -0.0005 0.0000 1.0000
vn -0.0004 -0.6100 0.7924
vn 0.6861 -0.6099 0.3965
vn 0.8658 0.0000 0.5003
vn 0.8658 0.0000 -0.5003
vn 0.6861 -0.6099 -0.3965
vn -0.0005 0.0000 -1.0000
vn -0.0004 -0.6100 -0.7924
vn -0.6863 -0.6100 -0.3961
vn -0.8661 0.0000 -0.4999
vn -0.6863 -0.6100 0.3961
vn -0.8661 0.0000 0.4999
vn 0.6861 0.6099 0.3965
vn -0.0004 0.6100 0.7924
vn 0.6861 0.6099 -0.3965
vn -0.0004 0.6100 -0.7924
vn -0.6863 0.6100 -0.3961
vn -0.6863 0.6100 0.3961
vn -0.0002 0.0021 1.0000
vn 0.0001 0.0000 1.0000
vn -0.0003 0.8661 0.4998
vn 0.0087 0.8650 0.5016
vn -0.0005 0.8661 -0.4998
vn 0.0089 0.8651 -0.5015
vn -0.0001 0.0000 -1.0000
vn 0.0002 0.0021 -1.0000
vn -0.0004 -0.8659 -0.5003
vn -0.0030 -0.8662 -0.4997
vn -0.0031 -0.8661 0.4998
vn -0.0004 -0.8659 0.5003
vn 0.6102 -0.0049 0.7922
vn 0.6189 -0.6786 0.3956
vn 0.6008 0.6939 -0.3970
vn 0.6007 0.6940 0.3970
vn 0.6187 -0.6785 -0.3961
vn 0.6101 -0.0054 -0.7923
vn -0.0114 0.8647 0.5021
vn 0.0000 0.0043 1.0000
vn 0.0190 0.8673 0.4973
vn 0.0004 -0.0032 1.0000
vn -0.0113 0.8648 -0.5020
vn 0.0186 0.8676 -0.4969
vn 0.0003 0.0039 -1.0000
vn -0.0001 -0.0034 -1.0000
vn 0.0116 -0.8668 -0.4985
vn -0.0057 -0.8653 -0.5012
vn 0.0113 -0.8670 0.4982
vn -0.0055 -0.8652 0.5014
vn 0.0000 -1.0000 -0.0000
vn 0.1132 -0.9154 0.3862
vn 0.2623 -0.8008 0.5385
# 151 vertex normals

vt 0.6226 0.7571 0.0000
vt 0.6759 0.7571 0.0000
vt 0.6759 0.8063 0.0000
vt 0.6226 0.8063 0.0000
vt 0.6768 0.8061 0.0000
vt 0.6768 0.7569 0.0000
vt 0.6235 0.7569 0.0000
vt 0.6235 0.8061 0.0000
vt 0.6186 0.7920 0.0000
vt 0.5653 0.7920 0.0000
vt 0.5653 0.8798 0.0000
vt 0.6186 0.8798 0.0000
vt 0.5651 0.8799 0.0000
vt 0.5651 0.7920 0.0000
vt 0.6184 0.7920 0.0000
vt 0.6184 0.8799 0.0000
vt 0.6859 0.8021 0.0000
vt 0.6859 0.8791 0.0000
vt 0.7821 0.8791 0.0000
vt 0.7821 0.8021 0.0000
vt 0.6768 0.8831 0.0000
vt 0.6235 0.8831 0.0000
vt 0.6278 0.8873 0.0000
vt 0.6726 0.8873 0.0000
vt 0.5609 0.8841 0.0000
vt 0.5609 0.7878 0.0000
vt 0.6901 0.8833 0.0000
vt 0.7779 0.8833 0.0000
vt 0.6726 0.7526 0.0000
vt 0.6278 0.7526 0.0000
vt 0.6859 0.7529 0.0000
vt 0.7821 0.7529 0.0000
vt 0.7779 0.7487 0.0000
vt 0.6901 0.7487 0.0000
vt 0.6816 0.8021 0.0000
vt 0.6816 0.8791 0.0000
vt 0.6859 0.8833 0.0000
vt 0.6859 0.7487 0.0000
vt 0.6816 0.7529 0.0000
vt 0.7864 0.8021 0.0000
vt 0.7864 0.7529 0.0000
vt 0.7821 0.8833 0.0000
vt 0.7864 0.8791 0.0000
vt 0.6193 0.8061 0.0000
vt 0.6193 0.7569 0.0000
vt 0.5694 0.8841 0.0000
vt 0.5651 0.8883 0.0000
vt 0.6193 0.8831 0.0000
vt 0.5694 0.7878 0.0000
vt 0.5651 0.7836 0.0000
vt 0.6143 0.8840 0.0000
vt 0.5695 0.8840 0.0000
vt 0.6142 0.8841 0.0000
vt 0.6142 0.7878 0.0000
vt 0.7703 0.8611 0.0000
vt 0.7703 0.8025 0.0000
vt 0.7258 0.8025 0.0000
vt 0.7258 0.8611 0.0000
vt 0.6166 0.7841 0.0000
vt 0.6166 0.7396 0.0000
vt 0.6110 0.7396 0.0000
vt 0.6110 0.7841 0.0000
vt 0.6079 0.7256 0.0000
vt 0.6023 0.7256 0.0000
vt 0.6023 0.7841 0.0000
vt 0.6079 0.7841 0.0000
vt 0.6759 0.8833 0.0000
vt 0.6226 0.8833 0.0000
vt 0.4538 0.8538 0.0000
vt 0.4529 0.8738 0.0000
vt 0.4547 0.8738 0.0000
vt 0.4556 0.8538 0.0000
vt 0.4500 0.8536 0.0000
vt 0.4491 0.8736 0.0000
vt 0.4472 0.8735 0.0000
vt 0.4482 0.8533 0.0000
vt 0.4411 0.8600 0.0000
vt 0.4401 0.8802 0.0000
vt 0.4383 0.8802 0.0000
vt 0.4392 0.8600 0.0000
vt 0.4448 0.8603 0.0000
vt 0.4439 0.8804 0.0000
vt 0.4457 0.8805 0.0000
vt 0.4466 0.8606 0.0000
vt 0.4553 0.8381 0.0000
vt 0.4572 0.8378 0.0000
vt 0.4516 0.8378 0.0000
vt 0.4497 0.8373 0.0000
vt 0.4426 0.8438 0.0000
vt 0.4407 0.8441 0.0000
vt 0.4464 0.8440 0.0000
vt 0.4482 0.8445 0.0000
vt 0.4576 0.8247 0.0000
vt 0.4557 0.8255 0.0000
vt 0.4519 0.8257 0.0000
vt 0.4501 0.8251 0.0000
vt 0.4430 0.8311 0.0000
vt 0.4411 0.8318 0.0000
vt 0.4468 0.8309 0.0000
vt 0.4486 0.8315 0.0000
vt 0.4556 0.8107 0.0000
vt 0.4538 0.8120 0.0000
vt 0.4501 0.8127 0.0000
vt 0.4482 0.8121 0.0000
vt 0.4393 0.8188 0.0000
vt 0.4411 0.8175 0.0000
vt 0.4448 0.8169 0.0000
vt 0.4466 0.8174 0.0000
vt 0.4522 0.7979 0.0000
vt 0.4506 0.8000 0.0000
vt 0.4472 0.8018 0.0000
vt 0.4454 0.8015 0.0000
vt 0.4365 0.8082 0.0000
vt 0.4380 0.8061 0.0000
vt 0.4414 0.8044 0.0000
vt 0.4432 0.8047 0.0000
vt 0.4408 0.7906 0.0000
vt 0.4416 0.7878 0.0000
vt 0.4387 0.7936 0.0000
vt 0.4375 0.7939 0.0000
vt 0.4286 0.8007 0.0000
vt 0.4294 0.7978 0.0000
vt 0.4314 0.7948 0.0000
vt 0.4327 0.7945 0.0000
vt 0.4269 0.7870 0.0000
vt 0.4270 0.7840 0.0000
vt 0.4261 0.7904 0.0000
vt 0.4254 0.7908 0.0000
vt 0.4165 0.7945 0.0000
vt 0.4164 0.7975 0.0000
vt 0.4173 0.7911 0.0000
vt 0.4180 0.7908 0.0000
vt 0.4116 0.7831 0.0000
vt 0.4118 0.7861 0.0000
vt 0.4113 0.7895 0.0000
vt 0.4105 0.7899 0.0000
vt 0.4016 0.7966 0.0000
vt 0.4013 0.7936 0.0000
vt 0.4018 0.7902 0.0000
vt 0.4026 0.7898 0.0000
vt 0.4216 0.8743 0.0593
vt 0.4216 0.8673 0.0593
vt 0.4291 0.8673 0.0639
vt 0.4291 0.8743 0.0639
vt 0.4367 0.8743 0.0553
vt 0.4367 0.8673 0.0553
vt 0.3861 0.8743 0.0382
vt 0.3766 0.8743 0.0553
vt 0.3766 0.8673 0.0553
vt 0.3861 0.8673 0.0382
vt 0.4004 0.8673 0.0299
vt 0.4004 0.8743 0.0299
vt 0.4131 0.8673 0.0439
vt 0.4131 0.8743 0.0439
vt 0.3748 0.8560 0.0000
vt 0.3870 0.8630 0.0000
vt 0.3870 0.8560 0.0000
vt 0.3809 0.8525 0.0000
vt 0.3809 0.8665 0.0000
vt 0.3748 0.8630 0.0000
vt 0.6717 0.8875 0.0000
vt 0.6269 0.8875 0.0000
vt 0.4096 0.8672 0.0382
vt 0.4240 0.8672 0.0299
vt 0.4240 0.8742 0.0299
vt 0.4096 0.8742 0.0382
vt 0.4367 0.8672 0.0439
vt 0.4367 0.8742 0.0439
vt 0.3766 0.8742 0.0439
vt 0.3766 0.8672 0.0439
vt 0.3852 0.8672 0.0593
vt 0.3852 0.8742 0.0593
vt 0.3926 0.8672 0.0639
vt 0.3926 0.8742 0.0639
vt 0.4002 0.8672 0.0553
vt 0.4002 0.8742 0.0553
vt 0.3865 0.8562 0.0000
vt 0.3865 0.8632 0.0000
vt 0.3743 0.8562 0.0000
vt 0.3804 0.8527 0.0000
vt 0.3743 0.8632 0.0000
vt 0.3804 0.8667 0.0000
vt 0.4278 0.8640 0.0468
vt 0.4278 0.8609 0.0468
vt 0.4351 0.8609 0.0468
vt 0.4351 0.8640 0.0468
vt 0.3984 0.8609 0.0468
vt 0.3984 0.8640 0.0468
vt 0.3910 0.8640 0.0468
vt 0.3910 0.8609 0.0468
vt 0.4057 0.8609 0.0468
vt 0.4057 0.8640 0.0468
vt 0.4131 0.8609 0.0469
vt 0.4131 0.8640 0.0468
vt 0.4204 0.8640 0.0468
vt 0.4204 0.8609 0.0469
vt 0.4101 0.8061 0.0000
vt 0.4136 0.8000 0.0000
vt 0.4206 0.8122 0.0000
vt 0.4136 0.8122 0.0000
vt 0.4206 0.8000 0.0000
vt 0.4241 0.8061 0.0000
vt 0.4278 0.8574 0.0468
vt 0.4351 0.8574 0.0468
vt 0.4351 0.8578 0.0468
vt 0.4278 0.8578 0.0468
vt 0.4351 0.8644 0.0468
vt 0.4278 0.8644 0.0468
vt 0.3984 0.8574 0.0468
vt 0.3984 0.8578 0.0468
vt 0.3910 0.8578 0.0468
vt 0.3911 0.8574 0.0468
vt 0.3984 0.8644 0.0468
vt 0.3911 0.8644 0.0468
vt 0.4058 0.8574 0.0468
vt 0.4057 0.8578 0.0468
vt 0.4057 0.8644 0.0468
vt 0.4131 0.8574 0.0468
vt 0.4131 0.8578 0.0469
vt 0.4131 0.8644 0.0468
vt 0.4204 0.8574 0.0468
vt 0.4204 0.8578 0.0469
vt 0.4204 0.8644 0.0468
vt 0.5695 0.7877 0.0000
vt 0.6143 0.7877 0.0000
vt 0.6269 0.7528 0.0000
vt 0.6717 0.7528 0.0000
vt 0.7821 0.7487 0.0000
# 228 texture coords

g coso_ext
usemtl _sediawire_138008110
s 1
f 1/1/1 2/2/2 3/3/2 4/4/3 
f 5/5/4 6/6/5 7/7/6 8/8/7 
f 9/9/8 10/10/9 11/11/10 12/12/11 
f 13/13/12 14/14/13 15/15/14 16/16/15 
f 17/17/16 18/18/17 19/19/18 20/20/19 
f 21/21/20 22/22/21 23/23/22 24/24/23 
f 25/25/24 26/26/25 14/14/13 13/13/12 
f 18/18/17 16/27/15 15/28/14 19/19/18 
f 6/6/5 27/29/26 28/30/27 7/7/6 
f 29/25/28 11/13/10 10/14/9 30/26/29 
f 31/31/30 32/32/31 9/33/8 12/34/11 
f 17/17/16 5/35/4 21/36/20 18/18/17 
f 24/37/23 16/27/15 18/18/17 21/36/20 
f 12/34/11 27/38/26 6/39/5 31/31/30 
f 3/40/2 2/41/2 32/32/31 20/20/19 
f 15/28/14 33/42/32 34/43/33 19/19/18 
f 35/44/34 8/8/7 7/7/6 29/45/28 
f 23/46/22 22/47/21 25/25/24 13/13/12 
f 7/47/6 28/46/27 11/13/10 29/25/28 
f 36/44/35 4/8/3 37/22/36 26/48/25 
f 38/49/37 14/14/13 26/26/25 37/50/36 
f 1/50/1 30/26/29 10/14/9 39/49/38 
f 27/51/26 12/12/11 11/11/10 28/52/27 
f 16/16/15 24/53/23 23/46/22 13/13/12 
f 38/49/37 33/54/32 15/15/14 14/14/13 
f 40/55/39 41/56/40 42/57/41 43/58/42 
f 42/59/41 41/60/40 44/61/43 45/62/44 
f 42/63/41 45/64/44 46/65/45 43/66/42 
f 40/60/39 43/59/42 46/62/45 47/61/46 
f 44/64/43 41/63/40 40/66/39 47/65/46 
f 3/3/2 34/67/33 37/68/36 4/4/3 
f 5/5/4 8/8/7 22/22/21 21/21/20 
f 5/35/4 17/17/16 31/31/30 6/39/5 
f 3/40/2 20/20/19 19/19/18 34/43/33 
f 35/44/34 25/48/24 22/22/21 8/8/7 
f 4/8/3 36/44/35 30/45/29 1/7/1 
f 48/69/47 49/70/48 50/71/49 51/72/50 
f 52/73/51 53/74/52 49/70/48 48/69/47 
f 54/75/53 53/74/52 52/73/51 55/76/54 
f 56/77/55 57/78/56 54/79/53 55/80/54 
f 58/81/57 59/82/58 57/78/56 56/77/55 
f 50/83/49 59/82/58 58/81/57 51/84/50 
f 60/85/59 48/69/47 51/72/50 61/86/60 
f 48/69/47 60/85/59 62/87/61 52/73/51 
f 63/88/62 55/76/54 52/73/51 62/87/61 
f 64/89/63 56/77/55 55/80/54 63/90/62 
f 56/77/55 64/89/63 65/91/64 58/81/57 
f 61/92/60 51/84/50 58/81/57 65/91/64 
f 61/86/60 66/93/65 67/94/66 60/85/59 
f 68/95/67 62/87/61 60/85/59 67/94/66 
f 63/88/62 62/87/61 68/95/67 69/96/68 
f 70/97/69 64/89/63 63/90/62 69/98/68 
f 71/99/70 65/91/64 64/89/63 70/97/69 
f 65/91/64 71/99/70 66/100/65 61/92/60 
f 67/94/66 66/93/65 72/101/71 73/102/72 
f 74/103/73 68/95/67 67/94/66 73/102/72 
f 68/95/67 74/103/73 75/104/74 69/96/68 
f 69/98/68 75/105/74 76/106/75 70/97/69 
f 76/106/75 77/107/76 71/99/70 70/97/69 
f 72/108/71 66/100/65 71/99/70 77/107/76 
f 72/101/71 78/109/77 79/110/78 73/102/72 
f 80/111/79 74/103/73 73/102/72 79/110/78 
f 74/103/73 80/111/79 81/112/80 75/104/74 
f 75/105/74 81/113/80 82/114/81 76/106/75 
f 83/115/82 77/107/76 76/106/75 82/114/81 
f 78/116/77 72/108/71 77/107/76 83/115/82 
f 84/117/83 79/110/78 78/109/77 85/118/84 
f 86/119/85 80/111/79 79/110/78 84/117/83 
f 87/120/86 81/112/80 80/111/79 86/119/85 
f 82/114/81 81/113/80 87/121/86 88/122/87 
f 89/123/88 83/115/82 82/114/81 88/122/87 
f 83/115/82 89/123/88 85/124/84 78/116/77 
f 90/125/89 84/117/83 85/118/84 91/126/90 
f 92/127/91 86/119/85 84/117/83 90/125/89 
f 86/119/85 92/127/91 93/128/92 87/120/86 
f 94/129/93 88/122/87 87/121/86 93/130/92 
f 88/122/87 94/129/93 95/131/94 89/123/88 
f 89/123/88 95/131/94 91/132/90 85/124/84 
f 96/133/95 97/134/96 90/125/89 91/126/90 
f 97/134/96 98/135/97 92/127/91 90/125/89 
f 98/135/97 99/136/98 93/128/92 92/127/91 
f 99/137/98 100/138/99 94/129/93 93/130/92 
f 100/138/99 101/139/100 95/131/94 94/129/93 
f 95/131/94 101/139/100 96/140/95 91/132/90 
f 102/141/101 103/142/102 104/143/103 105/144/104 
f 106/145/105 105/144/104 104/143/103 107/146/106 
f 108/147/107 106/148/105 107/149/106 109/150/108 
f 108/147/107 109/150/108 110/151/109 111/152/110 
f 112/153/111 113/154/112 111/152/110 110/151/109 
f 112/153/111 103/142/102 102/141/101 113/154/112 
f 112/155/111 107/156/106 104/157/103 103/158/102 
f 109/159/108 107/156/106 112/155/111 110/160/109 
f 20/20/19 32/32/31 31/31/30 17/17/16 
f 37/68/36 34/67/33 33/161/32 38/162/37 
f 114/163/101 115/164/104 116/165/113 117/166/114 
f 116/165/113 115/164/104 118/167/105 119/168/115 
f 119/169/115 118/170/105 120/171/107 121/172/116 
f 121/172/116 120/171/107 122/173/110 123/174/117 
f 123/174/117 122/173/110 124/175/112 125/176/118 
f 124/175/112 114/163/101 117/166/114 125/176/118 
f 116/177/113 119/178/115 125/179/118 117/180/114 
f 123/181/117 125/179/118 119/178/115 121/182/116 
f 126/183/119 127/184/120 128/185/121 129/186/122 
f 130/187/123 131/188/124 129/189/122 128/190/121 
f 132/191/125 133/192/126 131/188/124 130/187/123 
f 134/193/127 135/194/128 133/192/126 132/191/125 
f 136/195/129 135/194/128 134/193/127 137/196/130 
f 136/195/129 137/196/130 127/184/120 126/183/119 
f 138/197/131 139/198/132 140/199/133 141/200/134 
f 139/198/132 142/201/135 143/202/136 140/199/133 
f 138/203/131 141/204/134 144/205/137 145/206/138 
f 127/184/120 145/206/138 144/205/137 128/185/121 
f 129/186/122 146/207/139 147/208/140 126/183/119 
f 140/209/133 148/210/141 144/211/137 141/212/134 
f 128/190/121 144/211/137 148/210/141 130/187/123 
f 131/188/124 149/213/142 146/214/139 129/189/122 
f 143/215/136 150/216/143 148/210/141 140/209/133 
f 130/187/123 148/210/141 150/216/143 132/191/125 
f 133/192/126 151/217/144 149/213/142 131/188/124 
f 150/216/143 143/215/136 142/218/135 152/219/145 
f 150/216/143 152/219/145 134/193/127 132/191/125 
f 151/217/144 133/192/126 135/194/128 153/220/146 
f 152/219/145 142/218/135 139/221/132 154/222/147 
f 154/222/147 137/196/130 134/193/127 152/219/145 
f 153/220/146 135/194/128 136/195/129 155/223/148 
f 138/203/131 145/206/138 154/222/147 139/221/132 
f 137/196/130 154/222/147 145/206/138 127/184/120 
f 155/223/148 136/195/129 126/183/119 147/208/140 
f 39/224/38 10/10/9 9/9/149 156/225/150 
f 1/1/1 39/226/38 156/227/150 2/2/151 
f 2/41/151 156/228/150 9/33/8 32/32/31 
# 131 polygons

