# 3ds Max Wavefront OBJ Exporter v0.97b - (c)2007 guruware
# File Created: 27.03.2018 15:18:41

mtllib scrivania.mtl

#
# object tavolo
#

v  -0.6267 1.0000 1.4081
v  -0.6267 1.0000 2.2081
v  -0.0667 1.0000 2.2081
v  -0.0667 1.0000 1.4081
v  -0.6467 0.8902 2.2281
v  -0.0467 0.8902 2.2281
v  -0.0467 0.9800 2.2281
v  -0.6467 0.9800 2.2281
v  0.4447 0.8902 -0.1013
v  0.2537 0.8902 -0.8648
v  0.2537 0.9800 -0.8648
v  0.4483 0.9800 -0.1013
v  -0.0990 0.8902 -0.8225
v  -0.6467 0.8902 -0.7589
v  -0.6467 0.9800 -0.7589
v  -0.0990 0.9800 -0.8225
v  -0.6467 0.8902 1.4181
v  -0.6467 0.9800 1.4181
v  -0.6267 1.0000 0.6081
v  -0.0467 1.0000 0.5881
v  -0.0467 1.0000 -0.0619
v  -0.6267 1.0000 -0.0619
v  -0.0667 1.0000 0.6081
v  -0.0467 0.8902 0.6081
v  -0.0467 0.9800 0.6081
v  -0.0467 0.9800 1.4181
v  -0.0467 0.8902 1.4181
v  -0.6467 0.8902 0.6081
v  -0.6467 0.9800 0.6081
v  -0.6467 0.9800 -0.0619
v  -0.6467 0.8902 -0.0619
v  0.2386 1.0000 -0.8429
v  -0.0976 1.0000 -0.8025
v  -0.0467 1.0000 -0.1019
v  0.4283 1.0000 -0.1013
v  0.2537 0.8902 0.6081
v  0.2537 0.9800 0.6081
v  0.4477 0.8902 -0.0627
v  0.4477 0.9800 -0.0627
v  -0.6267 1.0000 -0.1019
v  -0.6267 1.0000 -0.7411
v  -0.6467 0.8902 -0.1019
v  -0.6467 0.9800 -0.1019
v  0.4277 1.0000 -0.0627
v  0.2386 1.0000 0.5881
v  -0.6084 0.8116 2.0133
v  -0.0565 0.8116 2.0133
v  -0.0565 0.8116 1.2980
v  -0.0565 0.8116 0.5828
v  -0.1046 0.8116 -0.7332
v  -0.6084 0.8116 -0.6747
v  -0.6084 0.8116 -0.0704
v  -0.6084 0.8116 1.2980
v  0.2199 0.8116 0.5828
v  0.3970 0.8116 -0.0458
v  0.2199 0.8116 -0.7721
v  -0.6084 0.8116 -0.0336
v  -0.6084 0.8116 0.5828
v  0.3906 0.8116 -0.0987
v  -0.1251 0.7451 -0.4581
v  -0.4879 0.7451 -0.4160
v  -0.4879 0.7451 -0.0626
v  -0.4879 0.7451 0.4896
v  -0.4452 0.7451 0.8768
v  0.1086 0.7451 0.4896
v  0.2334 0.7451 0.0273
v  0.1086 0.7451 -0.4861
v  -0.0904 0.7451 0.4896
v  -0.4879 0.7451 -0.0127
v  0.2064 0.7451 -0.1026
v  -0.0981 0.7451 0.8768
v  -0.1373 0.6337 -0.2447
v  -0.3295 0.6337 -0.2224
v  -0.3295 0.6337 -0.0352
v  -0.0135 0.6337 0.2574
v  0.0527 0.6337 0.0125
v  -0.0135 0.6337 -0.2595
v  -0.1451 0.6337 0.2574
v  -0.3295 0.6337 -0.0087
v  -0.3295 0.6337 0.2574
v  0.0384 0.6337 -0.0563
v  -0.1122 0.2755 -0.1065
v  -0.0619 0.2755 -0.0631
v  -0.0742 0.0864 -0.0631
v  -0.1160 0.0864 -0.0948
v  -0.2373 0.2755 -0.0659
v  -0.2273 0.0864 -0.0587
v  -0.2373 0.2755 0.0656
v  -0.2273 0.0864 0.0584
v  -0.1122 0.2755 0.1063
v  -0.1160 0.0864 0.0945
v  -0.0467 0.2755 -0.0058
v  -0.0590 0.0864 -0.0058
v  -0.1035 0.4960 -0.1333
v  -0.0338 0.4960 -0.0631
v  -0.2601 0.4960 -0.0824
v  -0.2601 0.4960 0.0822
v  -0.1035 0.4960 0.1330
v  -0.0186 0.4960 -0.0058
v  -0.0026 0.5668 -0.0617
v  -0.0664 0.5709 -0.1854
v  -0.2887 0.5710 -0.1402
v  -0.2887 0.5732 0.1544
v  -0.0664 0.5708 0.1843
v  0.0118 0.5668 0.0029
v  -0.0260 0.0636 -0.0645
v  -0.0940 0.0612 -0.1483
v  -0.2648 0.0643 -0.0858
v  -0.2648 0.0643 0.0855
v  -0.1018 0.0643 0.1385
v  -0.0128 0.0643 0.0056
v  -0.0425 0.0410 -0.2111
v  0.0017 0.0455 -0.0689
v  -0.3252 0.0374 -0.1630
v  -0.2888 0.0435 0.1293
v  -0.0935 0.0435 0.1928
v  0.0393 0.0307 -0.2450
v  0.0367 0.0316 -0.0674
v  -0.3628 0.0306 -0.2304
v  -0.3513 0.0305 0.2694
v  -0.1350 0.0307 0.2967
v  0.0093 0.0456 0.0215
v  0.0592 0.0028 -0.0657
v  0.0527 0.0028 -0.2626
v  0.0448 0.0240 -0.2535
v  0.0499 0.0240 -0.0664
v  -0.3776 0.0028 -0.2504
v  -0.3657 0.0240 -0.2357
v  -0.3651 0.0028 0.2973
v  -0.3538 0.0240 0.2749
v  0.0456 0.0028 0.2071
v  0.0587 0.0028 0.0213
v  0.0494 0.0240 0.0247
v  0.0367 0.0240 0.2061
v  0.0344 0.0318 0.0232
v  0.0275 0.0311 0.2052
v  0.0231 0.0306 0.3140
v  0.0283 0.0240 0.3206
v  0.0354 0.0028 0.3452
v  -0.3524 0.0028 0.6636
v  -0.3417 0.0240 0.6412
v  0.0167 0.0240 0.6869
v  0.0234 0.0028 0.7115
v  -0.3394 0.0305 0.6357
v  0.0119 0.0306 0.6803
v  -0.1639 0.0028 0.7406
v  -0.1573 0.0240 0.7177
v  -0.1542 0.0306 0.7122
# 148 vertices

vn -0.3827 0.9239 -0.0000
vn -0.3002 0.9054 0.3002
vn 0.3002 0.9054 0.3002
vn 0.3827 0.9239 -0.0000
vn -0.6032 -0.4681 0.6458
vn 0.5995 -0.4614 0.6540
vn 0.6507 0.3914 0.6507
vn -0.6507 0.3914 0.6507
vn 0.9391 -0.3062 -0.1557
vn 0.5121 -0.3719 -0.7742
vn 0.5231 0.3844 -0.7606
vn 0.9265 0.3589 -0.1130
vn -0.1070 -0.4088 -0.9063
vn -0.6785 -0.3549 -0.6432
vn -0.6890 0.3858 -0.6136
vn -0.1083 0.3831 -0.9173
vn -0.9744 -0.2248 -0.0000
vn -0.9239 0.3827 -0.0000
vn 0.1020 0.9518 0.2893
vn 0.0000 1.0000 -0.0000
vn 0.2893 0.9518 0.1020
vn 0.7249 -0.1582 0.6705
vn 0.6042 0.5196 0.6042
vn 0.9239 0.3827 -0.0000
vn 0.9981 -0.0620 -0.0000
vn 0.2438 0.9015 -0.3576
vn -0.0448 0.9242 -0.3793
vn 0.4082 0.9114 -0.0511
vn 0.5998 -0.2193 0.7695
vn 0.5561 0.3795 0.7395
vn 0.9570 -0.2748 0.0928
vn 0.9194 0.3697 0.1347
vn -0.3226 0.9018 -0.2874
vn 0.4076 0.9108 0.0653
vn 0.2631 0.8987 0.3508
vn -0.4864 -0.8658 0.1172
vn 0.6228 -0.7723 0.1248
vn 0.6810 -0.7307 0.0478
vn 0.6366 -0.6144 0.4661
vn -0.0546 -0.8849 -0.4626
vn -0.5051 -0.8091 -0.3003
vn -0.7249 -0.6889 -0.0000
vn -0.5508 -0.8339 0.0362
vn 0.4269 -0.6599 0.6182
vn 0.6644 -0.7451 0.0591
vn 0.3525 -0.8492 -0.3933
vn 0.6144 -0.7803 -0.1170
vn -0.0417 -0.9345 -0.3535
vn -0.3026 -0.9406 -0.1538
vn -0.5300 -0.8480 -0.0000
vn -0.3127 -0.9470 0.0734
vn -0.1293 -0.9896 0.0632
vn 0.2131 -0.9045 0.3695
vn 0.4495 -0.8927 0.0332
vn 0.1882 -0.9599 -0.2079
vn 0.0979 -0.9340 0.3436
vn 0.4337 -0.8954 -0.1009
vn 0.4634 -0.8848 0.0489
vn -0.0546 -0.8839 -0.4645
vn -0.3527 -0.9063 -0.2329
vn -0.5753 -0.8180 -0.0000
vn 0.3061 -0.8881 0.3429
vn 0.6706 -0.7405 0.0436
vn 0.2800 -0.8907 -0.3581
vn 0.0000 -0.9016 0.4326
vn -0.3304 -0.9189 0.2155
vn 0.6813 -0.7075 -0.1880
vn 0.1930 -0.0920 -0.9769
vn 0.8455 -0.0887 -0.5266
vn 0.6901 0.5088 -0.5147
vn 0.1311 0.5948 -0.7931
vn -0.8051 -0.0970 -0.5852
vn -0.6307 0.6273 -0.4568
vn -0.8053 -0.0970 0.5849
vn -0.6301 0.6265 0.4587
vn 0.3526 -0.0999 0.9304
vn 0.2924 0.6363 0.7139
vn 0.9865 -0.0943 0.1339
vn 0.8113 0.5748 0.1068
vn 0.2422 -0.4053 -0.8815
vn 0.8366 -0.2320 -0.4962
vn -0.7905 -0.3904 -0.4719
vn -0.7967 -0.4044 0.4491
vn 0.3360 -0.4552 0.8245
vn 0.9505 -0.2809 0.1326
vn 0.8233 -0.4490 -0.3472
vn 0.3236 -0.7533 -0.5725
vn -0.6085 -0.7022 -0.3696
vn -0.5825 -0.7406 0.3348
vn 0.3597 -0.7643 0.5352
vn 0.8649 -0.4911 0.1037
vn -0.4222 -0.7988 -0.4286
vn -0.3507 -0.8458 0.4020
vn 0.4516 0.8780 -0.1588
vn 0.0321 0.9419 -0.3345
vn -0.2927 0.9405 -0.1723
vn -0.3871 0.8978 0.2101
vn 0.1607 0.9227 0.3504
vn 0.5417 0.8387 0.0563
vn 0.0494 0.9731 -0.2250
vn 0.4327 0.8995 -0.0606
vn -0.1414 0.9872 -0.0737
vn -0.1843 0.9763 0.1135
vn 0.0594 0.9861 0.1554
vn 0.3746 0.8833 -0.2818
vn 0.4377 0.8991 0.0013
vn -0.4905 0.8036 -0.3371
vn -0.5748 0.8175 0.0371
vn -0.0072 0.9983 0.0582
vn 0.5070 0.8506 0.1395
vn 0.9165 0.3999 -0.0097
vn 0.5853 0.5001 -0.6383
vn 0.5257 0.6348 -0.5663
vn 0.7453 0.6667 -0.0061
vn -0.5280 0.6639 -0.5296
vn -0.5575 0.6598 -0.5038
vn -0.8698 0.4926 0.0274
vn -0.9002 0.4347 0.0253
vn 0.9189 0.3889 0.0659
vn 0.9171 0.3973 0.0318
vn 0.7357 0.6768 0.0269
vn 0.7915 0.6089 0.0527
vn 0.4285 0.9024 0.0459
vn 0.3665 0.9301 0.0224
vn 0.4265 0.9036 0.0402
vn 0.8559 0.5151 0.0465
vn 0.9332 0.3574 0.0390
vn -0.5192 0.7309 0.4430
vn -0.6568 0.6534 0.3765
vn 0.6338 0.6759 0.3761
vn 0.4487 0.7338 0.5101
vn -0.5329 0.8115 0.2398
vn 0.3890 0.8848 0.2566
vn -0.0855 0.7475 0.6587
vn -0.0775 0.7102 0.6997
vn -0.0189 0.8776 0.4790
# 136 vertex normals

vt 0.6663 0.3984 0.0000
vt 0.6663 0.2787 0.0000
vt 0.7502 0.2787 0.0000
vt 0.7502 0.3984 0.0000
vt 0.8431 0.9770 0.0000
vt 0.9329 0.9770 0.0000
vt 0.9329 0.9904 0.0000
vt 0.8431 0.9904 0.0000
vt 0.7234 0.9756 0.0000
vt 0.8376 0.9756 0.0000
vt 0.8376 0.9891 0.0000
vt 0.7234 0.9891 0.0000
vt 0.8728 0.9441 0.0000
vt 0.9548 0.9441 0.0000
vt 0.9548 0.9576 0.0000
vt 0.8728 0.9576 0.0000
vt 0.6937 0.9434 0.0000
vt 0.8149 0.9434 0.0000
vt 0.8149 0.9568 0.0000
vt 0.6937 0.9568 0.0000
vt 0.6663 0.5181 0.0000
vt 0.7531 0.5211 0.0000
vt 0.7531 0.6184 0.0000
vt 0.6663 0.6184 0.0000
vt 0.7502 0.5181 0.0000
vt 0.6126 0.9745 0.0000
vt 0.6126 0.9879 0.0000
vt 0.4903 0.9879 0.0000
vt 0.4903 0.9745 0.0000
vt 0.5725 0.9434 0.0000
vt 0.5725 0.9568 0.0000
vt 0.4722 0.9568 0.0000
vt 0.4722 0.9434 0.0000
vt 0.8200 0.9576 0.0000
vt 0.8200 0.9441 0.0000
vt 0.7958 0.7353 0.0000
vt 0.7455 0.7292 0.0000
vt 0.7531 0.6244 0.0000
vt 0.8242 0.6243 0.0000
vt 0.9779 0.9770 0.0000
vt 0.9779 0.9904 0.0000
vt 0.7176 0.9756 0.0000
vt 0.7176 0.9891 0.0000
vt 0.6172 0.9891 0.0000
vt 0.6172 0.9756 0.0000
vt 0.6663 0.6244 0.0000
vt 0.6663 0.7200 0.0000
vt 0.4662 0.9434 0.0000
vt 0.4662 0.9568 0.0000
vt 0.3679 0.9568 0.0000
vt 0.3679 0.9434 0.0000
vt 0.8241 0.6185 0.0000
vt 0.7959 0.5211 0.0000
vt 0.9329 0.9934 0.0000
vt 0.9299 0.9934 0.0000
vt 0.8461 0.9934 0.0000
vt 0.4929 0.9909 0.0000
vt 0.3732 0.9909 0.0000
vt 0.3690 0.9879 0.0000
vt 0.9518 0.9606 0.0000
vt 0.8726 0.9606 0.0000
vt 0.4662 0.9598 0.0000
vt 0.3706 0.9598 0.0000
vt 0.6922 0.9598 0.0000
vt 0.5725 0.9598 0.0000
vt 0.7234 0.9921 0.0000
vt 0.8343 0.9921 0.0000
vt 0.8223 0.9606 0.0000
vt 0.9756 0.9934 0.0000
vt 0.4722 0.9598 0.0000
vt 0.6202 0.9921 0.0000
vt 0.7176 0.9921 0.0000
vt 0.8489 0.9652 0.0000
vt 0.9315 0.9652 0.0000
vt 0.5094 0.9627 0.0000
vt 0.6164 0.9627 0.0000
vt 0.8737 0.9324 0.0000
vt 0.9491 0.9324 0.0000
vt 0.3805 0.9316 0.0000
vt 0.4709 0.9316 0.0000
vt 0.7828 0.9316 0.0000
vt 0.6757 0.9316 0.0000
vt 0.6210 0.9639 0.0000
vt 0.7150 0.9639 0.0000
vt 0.8251 0.9324 0.0000
vt 0.9728 0.9652 0.0000
vt 0.4764 0.9316 0.0000
vt 0.5687 0.9316 0.0000
vt 0.7230 0.9639 0.0000
vt 0.8237 0.9639 0.0000
vt 0.3690 0.9745 0.0000
vt 0.6126 0.9909 0.0000
vt 0.8119 0.9598 0.0000
vt 0.4023 0.9627 0.0000
vt 0.6618 0.4913 0.0000
vt 0.5792 0.4913 0.0000
vt 0.5792 0.3842 0.0000
vt 0.6618 0.3842 0.0000
vt 0.6516 0.1214 0.0000
vt 0.5973 0.1277 0.0000
vt 0.5792 0.0890 0.0000
vt 0.6546 0.0803 0.0000
vt 0.5973 0.1806 0.0000
vt 0.5792 0.1795 0.0000
vt 0.5973 0.2632 0.0000
vt 0.6036 0.3212 0.0000
vt 0.5792 0.2772 0.0000
vt 0.6865 0.2632 0.0000
vt 0.7052 0.1941 0.0000
vt 0.7297 0.1831 0.0000
vt 0.7032 0.2772 0.0000
vt 0.6865 0.1172 0.0000
vt 0.7032 0.0744 0.0000
vt 0.6567 0.2632 0.0000
vt 0.6618 0.2772 0.0000
vt 0.5973 0.1881 0.0000
vt 0.5792 0.1850 0.0000
vt 0.7011 0.1746 0.0000
vt 0.7287 0.1752 0.0000
vt 0.6556 0.3212 0.0000
vt 0.6497 0.1534 0.0000
vt 0.6210 0.1567 0.0000
vt 0.6210 0.1847 0.0000
vt 0.6683 0.2285 0.0000
vt 0.6781 0.1919 0.0000
vt 0.6683 0.1511 0.0000
vt 0.6485 0.2285 0.0000
vt 0.6210 0.1887 0.0000
vt 0.6210 0.2285 0.0000
vt 0.6760 0.1816 0.0000
vt 0.3372 0.4254 0.0000
vt 0.3297 0.4254 0.0000
vt 0.3315 0.3971 0.0000
vt 0.3378 0.3971 0.0000
vt 0.3559 0.4254 0.0000
vt 0.3544 0.3971 0.0000
vt 0.3205 0.4253 0.0000
vt 0.3009 0.4253 0.0000
vt 0.3019 0.3970 0.0000
vt 0.3195 0.3970 0.0000
vt 0.2778 0.4300 0.0000
vt 0.2975 0.4300 0.0000
vt 0.2964 0.4583 0.0000
vt 0.2789 0.4583 0.0000
vt 0.3816 0.4243 0.0000
vt 0.3648 0.4243 0.0000
vt 0.3666 0.3960 0.0000
vt 0.3816 0.3960 0.0000
vt 0.3359 0.4584 0.0000
vt 0.3255 0.4584 0.0000
vt 0.3593 0.4584 0.0000
vt 0.3230 0.4585 0.0000
vt 0.2984 0.4585 0.0000
vt 0.2753 0.3969 0.0000
vt 0.3000 0.3969 0.0000
vt 0.3816 0.4573 0.0000
vt 0.3608 0.4573 0.0000
vt 0.5135 0.4478 0.0000
vt 0.5137 0.4372 0.0000
vt 0.5242 0.4372 0.0000
vt 0.5320 0.4484 0.0000
vt 0.4804 0.4134 0.0000
vt 0.4464 0.4127 0.0000
vt 0.4536 0.4005 0.0000
vt 0.4782 0.3989 0.0000
vt 0.4033 0.4448 0.0000
vt 0.4119 0.4328 0.0000
vt 0.4366 0.4328 0.0000
vt 0.4474 0.4451 0.0000
vt 0.3942 0.4171 0.0000
vt 0.3965 0.4010 0.0000
vt 0.4209 0.4030 0.0000
vt 0.4278 0.4158 0.0000
vt 0.5038 0.4478 0.0000
vt 0.4767 0.4484 0.0000
vt 0.4843 0.4372 0.0000
vt 0.5051 0.4372 0.0000
vt 0.5127 0.4578 0.0000
vt 0.5431 0.4578 0.0000
vt 0.4835 0.4296 0.0000
vt 0.4362 0.4257 0.0000
vt 0.3910 0.4559 0.0000
vt 0.4628 0.4559 0.0000
vt 0.3910 0.4343 0.0000
vt 0.4375 0.4290 0.0000
vt 0.5024 0.4578 0.0000
vt 0.4657 0.4578 0.0000
vt 0.9278 0.8766 0.0000
vt 0.9403 0.8867 0.0000
vt 0.9323 0.8900 0.0000
vt 0.9276 0.8838 0.0000
vt 0.9310 0.9123 0.0000
vt 0.9269 0.9067 0.0000
vt 0.9054 0.9123 0.0000
vt 0.9094 0.9067 0.0000
vt 0.8974 0.8879 0.0000
vt 0.9040 0.8900 0.0000
vt 0.9173 0.8746 0.0000
vt 0.9190 0.8815 0.0000
vt 0.9497 0.8790 0.0000
vt 0.9285 0.8724 0.0000
vt 0.9426 0.9213 0.0000
vt 0.8988 0.9159 0.0000
vt 0.8893 0.8867 0.0000
vt 0.9548 0.8668 0.0000
vt 0.9282 0.8672 0.0000
vt 0.9526 0.9270 0.0000
vt 0.8778 0.9253 0.0000
vt 0.8738 0.8929 0.0000
vt 0.9149 0.8713 0.0000
vt 0.2241 0.8850 0.0000
vt 0.1947 0.8850 0.0000
vt 0.1960 0.8882 0.0000
vt 0.2240 0.8882 0.0000
vt 0.3305 0.8953 0.0000
vt 0.2661 0.8953 0.0000
vt 0.2679 0.8985 0.0000
vt 0.3293 0.8985 0.0000
vt 0.1997 0.8901 0.0000
vt 0.2816 0.8901 0.0000
vt 0.2783 0.8933 0.0000
vt 0.2019 0.8933 0.0000
vt 0.2650 0.8850 0.0000
vt 0.2372 0.8850 0.0000
vt 0.2377 0.8882 0.0000
vt 0.2648 0.8882 0.0000
vt 0.2239 0.8893 0.0000
vt 0.1973 0.8892 0.0000
vt 0.2683 0.8995 0.0000
vt 0.3285 0.8995 0.0000
vt 0.2774 0.8943 0.0000
vt 0.2026 0.8943 0.0000
vt 0.3902 0.3960 0.0000
vt 0.3902 0.4243 0.0000
vt 0.3902 0.4573 0.0000
vt 0.2374 0.8893 0.0000
vt 0.2647 0.8892 0.0000
vt 0.9147 0.8675 0.0000
vt 0.8875 0.8686 0.0000
vt 0.8712 0.8692 0.0000
vt 0.2810 0.8892 0.0000
vt 0.2820 0.8882 0.0000
vt 0.2856 0.8850 0.0000
vt 0.3364 0.8901 0.0000
vt 0.3331 0.8933 0.0000
vt 0.3368 0.8882 0.0000
vt 0.3405 0.8850 0.0000
vt 0.3323 0.8943 0.0000
vt 0.3358 0.8892 0.0000
vt 0.2981 0.8953 0.0000
vt 0.2991 0.8985 0.0000
vt 0.2715 0.8985 0.0000
vt 0.2699 0.8953 0.0000
vt 0.3251 0.8985 0.0000
vt 0.3261 0.8953 0.0000
vt 0.2718 0.8995 0.0000
vt 0.2995 0.8995 0.0000
vt 0.3244 0.8995 0.0000
vt 0.8116 0.8957 0.0000
vt 0.8163 0.8709 0.0000
vt 0.8230 0.9235 0.0000
# 261 texture coords

g tavolo
usemtl props
s 1
f 1/1/1 2/2/2 3/3/3 4/4/4 
f 5/5/5 6/6/6 7/7/7 8/8/8 
f 9/9/9 10/10/10 11/11/11 12/12/12 
f 13/13/13 14/14/14 15/15/15 16/16/16 
f 17/17/17 5/18/5 8/19/8 18/20/18 
f 19/21/1 20/22/19 21/23/20 22/24/1 
f 23/25/21 20/22/19 19/21/1 
f 24/26/22 25/27/23 26/28/24 27/29/25 
f 28/30/17 29/31/18 30/32/18 31/33/17 
f 11/34/11 10/35/10 13/13/13 16/16/16 
f 32/36/26 33/37/27 34/38/20 35/39/28 
f 36/40/29 37/41/30 25/7/23 24/6/22 
f 38/42/31 39/43/32 37/44/30 36/45/29 
f 40/46/1 34/38/20 33/37/27 41/47/33 
f 42/48/17 43/49/18 15/50/15 14/51/14 
f 44/52/34 21/23/20 20/22/19 45/53/35 
f 38/42/31 9/9/9 12/12/12 39/43/32 
f 40/46/1 22/24/1 21/23/20 34/38/20 
f 42/48/17 31/33/17 30/32/18 43/49/18 
f 44/52/34 35/39/28 34/38/20 21/23/20 
f 25/7/23 20/54/19 23/55/21 
f 7/7/7 3/55/3 2/56/2 8/8/8 
f 26/28/24 4/57/4 3/58/3 7/59/7 
f 15/15/15 41/60/33 33/61/27 16/16/16 
f 43/49/18 40/62/1 41/63/33 15/50/15 
f 1/64/1 19/65/1 29/31/18 18/20/18 
f 35/66/28 12/12/12 11/11/11 32/67/26 
f 32/68/26 11/34/11 16/16/16 33/61/27 
f 37/41/30 45/69/35 20/54/19 25/7/23 
f 29/31/18 19/65/1 22/70/1 30/32/18 
f 45/71/35 37/44/30 39/43/32 44/72/34 
f 40/62/1 43/49/18 30/32/18 22/70/1 
f 12/12/12 35/66/28 44/72/34 39/43/32 
f 46/73/36 47/74/37 6/6/6 5/5/5 
f 48/75/38 49/76/39 24/26/22 27/29/25 
f 50/77/40 51/78/41 14/14/14 13/13/13 
f 51/79/41 52/80/42 42/48/17 14/51/14 
f 46/81/36 5/18/5 17/17/17 53/82/43 
f 54/83/44 55/84/45 38/42/31 36/45/29 
f 56/85/46 50/77/40 13/13/13 10/35/10 
f 49/74/39 54/86/44 36/40/29 24/6/22 
f 57/87/42 58/88/42 28/30/17 31/33/17 
f 59/89/47 56/90/46 10/10/10 9/9/9 
f 52/80/42 57/87/42 31/33/17 42/48/17 
f 55/84/45 59/89/47 9/9/9 38/42/31 
f 1/1/1 4/4/4 23/25/21 19/21/1 
f 17/17/17 18/20/18 29/31/18 28/30/17 
f 27/29/25 26/28/24 7/59/7 6/91/6 
f 4/57/4 26/28/24 25/27/23 23/92/21 
f 2/93/2 1/64/1 18/20/18 8/19/8 
f 47/94/37 48/75/38 27/29/25 6/91/6 
f 53/82/43 17/17/17 28/30/17 58/88/42 
f 47/95/37 46/96/36 53/97/43 48/98/38 
f 60/99/48 61/100/49 51/101/41 50/102/40 
f 61/100/49 62/103/50 52/104/42 51/101/41 
f 63/105/51 64/106/52 53/97/43 58/107/42 
f 65/108/53 66/109/54 55/110/45 54/111/44 
f 67/112/55 60/99/48 50/102/40 56/113/46 
f 68/114/56 65/108/53 54/111/44 49/115/39 
f 69/116/50 63/105/51 58/107/42 57/117/42 
f 70/118/57 67/112/55 56/113/46 59/119/47 
f 62/103/50 69/116/50 57/117/42 52/104/42 
f 66/109/54 70/118/57 59/119/47 55/110/45 
f 71/120/58 68/114/56 49/115/39 48/98/38 
f 64/106/52 71/120/58 48/98/38 53/97/43 
f 63/105/51 68/114/56 71/120/58 64/106/52 
f 72/121/59 73/122/60 61/100/49 60/99/48 
f 73/122/60 74/123/61 62/103/50 61/100/49 
f 75/124/62 76/125/63 66/109/54 65/108/53 
f 77/126/64 72/121/59 60/99/48 67/112/55 
f 78/127/65 75/124/62 65/108/53 68/114/56 
f 79/128/61 80/129/66 63/105/51 69/116/50 
f 81/130/67 77/126/64 67/112/55 70/118/57 
f 74/123/61 79/128/61 69/116/50 62/103/50 
f 76/125/63 81/130/67 70/118/57 66/109/54 
f 80/129/66 78/127/65 68/114/56 63/105/51 
f 82/131/68 83/132/69 84/133/70 85/134/71 
f 86/135/72 82/131/68 85/134/71 87/136/73 
f 88/137/74 86/138/72 87/139/73 89/140/75 
f 90/141/76 88/142/74 89/143/75 91/144/77 
f 92/145/78 90/146/76 91/147/77 93/148/79 
f 94/149/80 95/150/81 83/132/69 82/131/68 
f 96/151/82 94/149/80 82/131/68 86/135/72 
f 97/152/83 96/153/82 86/138/72 88/137/74 
f 98/154/84 97/155/83 88/142/74 90/141/76 
f 99/156/85 98/157/84 90/146/76 92/145/78 
f 100/158/86 95/159/81 94/160/80 101/161/87 
f 102/162/88 101/163/87 94/164/80 96/165/82 
f 102/166/88 96/167/82 97/168/83 103/169/89 
f 103/170/89 97/171/83 98/172/84 104/173/90 
f 105/174/91 104/175/90 98/176/84 99/177/85 
f 81/178/67 100/158/86 101/161/87 77/179/64 
f 101/163/87 102/162/88 73/180/92 77/181/64 
f 73/182/92 102/166/88 103/169/89 80/183/93 
f 80/184/93 103/170/89 104/173/90 75/185/62 
f 104/175/90 105/174/91 76/186/63 75/187/62 
f 106/188/94 107/189/95 85/190/71 84/191/70 
f 107/189/95 108/192/96 87/193/73 85/190/71 
f 108/192/96 109/194/97 89/195/75 87/193/73 
f 109/194/97 110/196/98 91/197/77 89/195/75 
f 110/196/98 111/198/99 93/199/79 91/197/77 
f 112/200/100 107/189/95 106/188/94 113/201/101 
f 112/200/100 114/202/102 108/192/96 107/189/95 
f 114/202/102 115/203/103 109/194/97 108/192/96 
f 115/203/103 116/204/104 110/196/98 109/194/97 
f 117/205/105 112/200/100 113/201/101 118/206/106 
f 112/200/100 117/205/105 119/207/107 114/202/102 
f 119/207/107 120/208/108 115/203/103 114/202/102 
f 120/208/108 121/209/109 116/204/104 115/203/103 
f 111/198/99 110/196/98 116/204/104 122/210/110 
f 123/211/111 124/212/112 125/213/113 126/214/114 
f 124/215/112 127/216/115 128/217/116 125/218/113 
f 127/219/115 129/220/117 130/221/118 128/222/116 
f 131/223/119 132/224/120 133/225/121 134/226/122 
f 118/227/106 126/214/114 125/213/113 117/228/105 
f 128/217/116 119/229/107 117/230/105 125/218/113 
f 130/221/118 120/231/108 119/232/107 128/222/116 
f 93/148/79 84/233/70 83/234/69 92/145/78 
f 92/145/78 83/234/69 95/235/81 99/156/85 
f 100/158/86 105/174/91 99/177/85 95/159/81 
f 81/178/67 76/186/63 105/174/91 100/158/86 
f 111/198/99 106/188/94 84/191/70 93/199/79 
f 122/210/110 113/201/101 106/188/94 111/198/99 
f 133/225/121 135/236/123 136/237/124 134/226/122 
f 132/224/120 123/211/111 126/214/114 133/225/121 
f 135/238/123 122/210/110 116/204/104 136/239/124 
f 113/201/101 122/210/110 135/238/123 118/206/106 
f 126/214/114 118/227/106 135/236/123 133/225/121 
f 137/240/125 136/239/124 116/204/104 121/209/109 
f 134/226/122 136/237/124 137/241/125 138/242/126 
f 131/223/119 134/226/122 138/242/126 139/243/127 
f 140/244/128 141/245/129 130/221/118 129/220/117 
f 142/246/130 143/247/131 139/243/127 138/242/126 
f 141/245/129 144/248/132 120/231/108 130/221/118 
f 145/249/133 142/246/130 138/242/126 137/241/125 
f 146/250/134 147/251/135 141/252/129 140/253/128 
f 142/254/130 147/251/135 146/250/134 143/255/131 
f 144/256/132 141/252/129 147/251/135 148/257/136 
f 145/258/133 148/257/136 147/251/135 142/254/130 
f 121/209/109 148/259/136 145/260/133 137/240/125 
f 121/209/109 120/208/108 144/261/132 148/259/136 
# 139 polygons - 2 triangles

