# 3ds Max Wavefront OBJ Exporter v0.97b - (c)2007 guruware
# File Created: 12.02.2018 15:24:10

mtllib tavolopc.mtl

#
# object schermo001
#

v  -0.1539 2.2837 0.3334
v  -0.1181 2.2837 0.6349
v  -0.1181 2.0575 0.6349
v  -0.1539 2.0575 0.3334
v  -0.1181 1.8314 0.6349
v  -0.1539 1.8314 0.3334
v  -0.1181 1.6052 0.6349
v  -0.1539 1.6052 0.3334
v  -0.1181 1.3790 0.6349
v  -0.1539 1.3790 0.3334
v  -0.1616 2.2837 0.0318
v  -0.1616 2.0575 0.0318
v  -0.1616 1.8314 0.0318
v  -0.1616 1.6052 0.0318
v  -0.1616 1.3790 0.0318
v  -0.1539 2.2837 -0.2698
v  -0.1539 2.0575 -0.2698
v  -0.1539 1.8314 -0.2698
v  -0.1539 1.6052 -0.2698
v  -0.1539 1.3790 -0.2698
v  -0.1181 2.2837 -0.5714
v  -0.1181 2.0575 -0.5714
v  -0.1181 1.8314 -0.5714
v  -0.1181 1.6052 -0.5714
v  -0.1181 1.3790 -0.5714
# 25 vertices

vn 0.9974 0.0000 -0.0717
vn 0.9930 -0.0000 -0.1177
vn 0.9974 -0.0000 -0.0717
vn 1.0000 0.0000 -0.0000
vn 1.0000 -0.0000 0.0000
vn 1.0000 -0.0000 -0.0000
vn 0.9974 0.0000 0.0717
vn 0.9974 -0.0000 0.0717
vn 0.9930 -0.0000 0.1177
# 9 vertex normals

vt 0.0000 0.2500 0.0000
vt 0.0000 0.0000 0.0000
vt 0.2500 0.0000 0.0000
vt 0.2500 0.2500 0.0000
vt 0.5000 0.0000 0.0000
vt 0.5000 0.2500 0.0000
vt 0.7500 0.0000 0.0000
vt 0.7500 0.2500 0.0000
vt 1.0000 0.0000 0.0000
vt 1.0000 0.2500 0.0000
vt 0.0000 0.5000 0.0000
vt 0.2500 0.5000 0.0000
vt 0.5000 0.5000 0.0000
vt 0.7500 0.5000 0.0000
vt 1.0000 0.5000 0.0000
vt 0.0000 0.7500 0.0000
vt 0.2500 0.7500 0.0000
vt 0.5000 0.7500 0.0000
vt 0.7500 0.7500 0.0000
vt 1.0000 0.7500 0.0000
vt 0.0000 1.0000 0.0000
vt 0.2500 1.0000 0.0000
vt 0.5000 1.0000 0.0000
vt 0.7500 1.0000 0.0000
vt 1.0000 1.0000 0.0000
# 25 texture coords

g schermo001
usemtl wire_224086086
s 1
f 1/1/1 2/2/2 3/3/2 4/4/3 
f 4/4/3 3/3/2 5/5/2 6/6/3 
f 6/6/3 5/5/2 7/7/2 8/8/3 
f 8/8/3 7/7/2 9/9/2 10/10/1 
f 11/11/4 1/1/1 4/4/3 12/12/5 
f 12/12/5 4/4/3 6/6/3 13/13/6 
f 13/13/6 6/6/3 8/8/3 14/14/6 
f 14/14/6 8/8/3 10/10/1 15/15/4 
f 16/16/7 11/11/4 12/12/5 17/17/8 
f 17/17/8 12/12/5 13/13/6 18/18/8 
f 18/18/8 13/13/6 14/14/6 19/19/8 
f 19/19/8 14/14/6 15/15/4 20/20/7 
f 21/21/9 16/16/7 17/17/8 22/22/9 
f 22/22/9 17/17/8 18/18/8 23/23/9 
f 23/23/9 18/18/8 19/19/8 24/24/9 
f 24/24/9 19/19/8 20/20/7 25/25/9 
# 16 polygons

#
# object tavolo_pc
#

v  -0.2807 1.2054 0.7307
v  -0.0704 1.2054 0.7307
v  -0.0704 1.2054 -0.7307
v  -0.2807 1.2054 -0.7307
v  -0.3000 0.0054 0.7500
v  -0.0704 0.0054 0.7500
v  -0.0704 1.1860 0.7500
v  -0.3000 1.1860 0.7500
v  0.3000 0.0054 0.7500
v  0.3000 0.0054 -0.7500
v  0.3000 0.9590 -0.7500
v  0.3000 0.9590 0.7500
v  -0.0704 0.0054 -0.7500
v  -0.0704 1.1860 -0.7500
v  0.2835 0.9885 0.7307
v  0.2835 0.9885 -0.7307
v  -0.3000 0.0054 -0.7500
v  -0.3000 1.1860 -0.7500
v  -0.2453 1.1879 0.6547
v  -0.1730 1.1737 0.6547
v  -0.1371 1.3276 0.6523
v  -0.2042 1.3595 0.6523
v  -0.1730 1.1737 0.3351
v  -0.1730 1.1737 0.0374
v  -0.1474 1.2890 0.0374
v  -0.1440 1.2984 0.3286
v  -0.2128 1.3636 0.6666
v  -0.1285 1.3235 0.6666
v  -0.1218 1.3425 0.6666
v  -0.2060 1.3826 0.6666
v  -0.1355 1.2943 0.3358
v  -0.1388 1.2849 0.0374
v  -0.1320 1.3039 0.0374
v  -0.1287 1.3133 0.3358
v  -0.2163 1.3439 0.0374
v  -0.2130 1.3533 0.3358
v  -0.2453 1.1879 0.3351
v  -0.2111 1.3302 0.3286
v  -0.2197 1.3343 0.3358
v  -0.2453 1.1879 0.0374
v  -0.2145 1.3209 0.0374
v  -0.2231 1.3249 0.0374
v  -0.2453 1.1879 -0.5799
v  -0.2042 1.3595 -0.5775
v  -0.1371 1.3276 -0.5775
v  -0.1730 1.1737 -0.5799
v  -0.1730 1.1737 -0.2603
v  -0.1440 1.2984 -0.2538
v  -0.2128 1.3636 -0.5918
v  -0.2060 1.3826 -0.5918
v  -0.1218 1.3425 -0.5918
v  -0.1285 1.3235 -0.5918
v  -0.1355 1.2943 -0.2610
v  -0.1287 1.3133 -0.2610
v  -0.2130 1.3533 -0.2610
v  -0.2453 1.1879 -0.2603
v  -0.2111 1.3302 -0.2538
v  -0.2197 1.3343 -0.2610
v  0.0795 1.1311 0.6897
v  0.0795 1.1311 0.3920
v  -0.0276 1.1968 0.3920
v  -0.0276 1.1968 0.6897
v  0.0474 1.1450 -0.0735
v  0.0474 1.1450 0.0735
v  0.1118 1.1054 0.0771
v  0.1118 1.1054 -0.0771
v  0.1493 1.0883 0.3920
v  0.1493 1.0883 0.6897
v  0.2565 1.0226 0.6897
v  0.2565 1.0226 0.3920
v  0.2529 1.0072 -0.6706
v  -0.0397 1.1866 -0.6706
v  -0.0345 1.1951 -0.6706
v  0.2581 1.0158 -0.6706
v  -0.0397 1.1866 -0.4112
v  -0.0345 1.1951 -0.4112
v  0.2529 1.0072 -0.4112
v  0.2581 1.0158 -0.4112
v  -0.0397 1.1866 0.6947
v  -0.0345 1.1951 0.6947
v  -0.0345 1.1951 0.3870
v  -0.0397 1.1866 0.3870
v  0.0760 1.1157 0.6947
v  0.0812 1.1242 0.6947
v  0.0760 1.1157 0.3870
v  0.0812 1.1242 0.3870
v  0.2529 1.0072 0.6947
v  0.2581 1.0158 0.6947
v  0.1424 1.0867 0.6947
v  0.1372 1.0782 0.6947
v  0.2529 1.0072 0.3870
v  0.2581 1.0158 0.3870
v  0.1372 1.0782 0.3870
v  0.1424 1.0867 0.3870
v  0.2565 1.0226 -0.6656
v  -0.0276 1.1968 -0.6656
v  -0.0276 1.1968 -0.4162
v  0.2565 1.0226 -0.4162
v  0.1542 1.0795 0.0789
v  0.1542 1.0795 -0.0789
v  0.0474 1.1449 0.1820
v  0.1118 1.1054 0.1918
v  0.1118 1.1054 -0.1906
v  0.1118 1.1054 -0.2140
v  0.0703 1.1309 -0.2140
v  0.0474 1.1449 -0.1820
v  0.1699 1.0698 0.1966
v  0.1696 1.0700 -0.1943
v  0.1722 1.0684 -0.2140
v  0.0703 1.1309 0.2140
v  0.1118 1.1054 0.2140
v  0.1722 1.0684 0.2140
v  0.1066 1.0969 -0.2421
v  0.0539 1.1292 -0.2421
v  0.0591 1.1377 -0.2421
v  0.1118 1.1054 -0.2421
v  0.0181 1.1511 -0.1904
v  0.0233 1.1597 -0.1904
v  0.0181 1.1511 -0.0734
v  0.0233 1.1597 -0.0734
v  0.0181 1.1511 0.0734
v  0.0233 1.1597 0.0734
v  0.0181 1.1511 0.1904
v  0.0233 1.1597 0.1904
v  0.0539 1.1292 0.2421
v  0.0591 1.1377 0.2421
v  0.1066 1.0969 0.2421
v  0.1118 1.1054 0.2421
v  0.1950 1.0427 0.2421
v  0.2003 1.0512 0.2421
v  0.1885 1.0467 0.1931
v  0.1937 1.0552 0.1931
v  0.1730 1.0562 0.0771
v  0.1782 1.0647 0.0771
v  0.1730 1.0562 -0.0771
v  0.1782 1.0647 -0.0771
v  0.1882 1.0469 -0.1908
v  0.1934 1.0554 -0.1908
v  0.1950 1.0427 -0.2421
v  0.2003 1.0512 -0.2421
v  0.1144 1.1097 -0.2371
v  0.0638 1.1408 -0.2371
v  0.0302 1.1613 -0.1904
v  0.0302 1.1613 -0.0735
v  0.0302 1.1613 0.0735
v  0.0302 1.1613 0.1905
v  0.0638 1.1408 0.2371
v  0.1144 1.1097 0.2371
v  0.1979 1.0585 0.2371
v  0.1921 1.0621 0.1930
v  0.1766 1.0716 0.0771
v  0.1766 1.0716 -0.0771
v  0.1917 1.0623 -0.1907
v  0.1979 1.0585 -0.2371
v  0.0701 1.1368 -0.2210
v  0.1144 1.1097 -0.2210
v  0.0440 1.1529 -0.1845
v  0.0440 1.1529 -0.0735
v  0.0440 1.1529 0.0735
v  0.0440 1.1529 0.1846
v  0.0701 1.1368 0.2210
v  0.1144 1.1097 0.2210
v  0.1819 1.0684 0.2210
v  0.1785 1.0704 0.1955
v  0.1628 1.0800 0.0784
v  0.1628 1.0800 -0.0784
v  0.1782 1.0706 -0.1932
v  0.1818 1.0684 -0.2210
# 168 vertices

vn -0.3002 0.9054 0.3002
vn 0.2438 0.9026 0.3547
vn 0.2438 0.9026 -0.3547
vn -0.3002 0.9054 -0.3002
vn 0.0000 -0.0000 1.0000
vn 0.1394 0.4272 0.8933
vn -0.2496 0.4991 0.8298
vn 0.7071 -0.0000 0.7071
vn 0.7071 0.0000 -0.7071
vn 0.7084 0.2493 -0.6603
vn 0.7084 0.2493 0.6603
vn 0.0000 0.0000 -1.0000
vn 0.1394 0.4272 -0.8933
vn 0.6484 0.7068 0.2830
vn 0.6484 0.7068 -0.2830
vn -0.2495 0.4991 -0.8298
vn -0.6912 0.1764 0.7008
vn 0.6799 -0.1472 0.7184
vn -0.1689 -0.8966 0.4093
vn -0.5878 -0.7520 0.2981
vn 0.9741 -0.2263 -0.0002
vn 0.9757 -0.2193 -0.0000
vn 0.4491 -0.8935 -0.0000
vn 0.4263 -0.9037 0.0399
vn -0.7473 -0.3036 0.5911
vn 0.3103 -0.7475 0.5873
vn 0.7541 0.3396 0.5622
vn -0.3025 0.7823 0.5445
vn 0.3515 -0.9343 0.0596
vn 0.3722 -0.9282 0.0000
vn 0.9279 0.3729 0.0000
vn 0.9275 0.3721 -0.0369
vn -0.3927 0.9197 0.0000
vn -0.3901 0.9195 -0.0491
vn -0.9726 0.2324 0.0013
vn -0.8981 -0.4386 0.0337
vn -0.9077 -0.4167 0.0489
vn -0.9742 0.2258 0.0000
vn -0.9049 -0.4257 0.0000
vn -0.9193 -0.3935 0.0000
vn -0.6912 0.1764 -0.7008
vn -0.5878 -0.7520 -0.2981
vn -0.1689 -0.8966 -0.4093
vn 0.6799 -0.1472 -0.7184
vn 0.9741 -0.2263 0.0002
vn 0.4263 -0.9037 -0.0399
vn -0.7473 -0.3036 -0.5911
vn -0.3025 0.7823 -0.5445
vn 0.7541 0.3396 -0.5622
vn 0.3103 -0.7475 -0.5873
vn 0.3515 -0.9343 -0.0596
vn 0.9275 0.3721 0.0369
vn -0.3901 0.9195 0.0491
vn -0.9726 0.2324 -0.0013
vn -0.8981 -0.4386 -0.0337
vn -0.9077 -0.4167 -0.0489
vn 0.7291 0.6150 0.3002
vn 0.7291 0.6150 -0.3002
vn 0.2172 0.9288 -0.3002
vn 0.2172 0.9288 0.3002
vn 0.7567 0.6538 0.0000
vn 0.7567 0.6538 -0.0000
vn 0.5226 0.8526 0.0000
vn 0.6029 -0.3696 -0.7071
vn -0.6029 0.3696 -0.7071
vn -0.3502 0.6737 -0.6507
vn 0.7593 -0.0064 -0.6507
vn -0.6029 0.3696 0.7071
vn -0.3502 0.6737 0.6507
vn 0.6029 -0.3696 0.7071
vn 0.7593 -0.0064 0.6507
vn 0.2173 0.9288 -0.3002
vn 0.2173 0.9288 0.3002
vn 0.2547 0.9668 0.0225
vn 0.2546 0.9668 -0.0225
vn 0.7675 0.6299 -0.1188
vn 0.5226 0.8526 -0.0000
vn 0.4980 0.8124 0.3035
vn 0.6154 0.7214 0.3174
vn 0.7676 0.6299 0.1187
vn 0.2422 0.9691 0.0468
vn 0.2422 0.9691 -0.0468
vn 0.2892 0.9346 0.2072
vn 0.6153 0.7215 -0.3175
vn 0.4980 0.8124 -0.3035
vn 0.2892 0.9346 -0.2073
vn -0.3667 0.2248 -0.9028
vn -0.1474 0.5241 -0.8388
vn 0.2000 0.3263 -0.9239
vn -0.8035 0.4926 -0.3343
vn -0.5744 0.7612 -0.3011
vn -0.8526 0.5226 0.0000
vn -0.5878 0.8090 -0.0000
vn -0.5878 0.8090 0.0000
vn -0.8035 0.4926 0.3343
vn -0.5769 0.7603 0.2986
vn -0.3667 0.2248 0.9028
vn -0.1468 0.5216 0.8405
vn 0.0000 0.0000 1.0000
vn 0.2000 0.3263 0.9239
vn 0.6479 -0.3971 0.6500
vn 0.8029 -0.0229 0.5957
vn 0.8423 -0.5163 -0.1549
vn 0.9776 -0.1541 -0.1430
vn 0.8500 -0.5210 -0.0777
vn 0.9862 -0.1486 -0.0727
vn 0.8500 -0.5210 0.0777
vn 0.9862 -0.1486 0.0727
vn 0.8423 -0.5163 0.1549
vn 0.9777 -0.1538 0.1433
vn 0.6479 -0.3971 -0.6500
vn 0.8028 -0.0230 -0.5959
vn 0.4828 0.7877 -0.3827
vn 0.3078 0.8643 -0.3978
vn 0.0917 0.9770 -0.1924
vn 0.1564 0.9877 -0.0000
vn 0.1564 0.9877 0.0000
vn 0.0918 0.9780 0.1872
vn 0.3128 0.8622 0.3985
vn 0.4828 0.7877 0.3827
vn 0.7427 0.6141 0.2671
vn 0.8074 0.5871 -0.0595
vn 0.7981 0.6019 -0.0276
vn 0.7981 0.6019 0.0276
vn 0.8070 0.5876 0.0597
vn 0.7423 0.6144 -0.2674
vn 0.5858 0.7884 0.1878
vn 0.6918 0.7178 0.0783
vn 0.6917 0.7179 -0.0784
vn 0.5857 0.7884 -0.1879
vn 0.4566 0.8874 -0.0638
vn 0.2425 0.9690 0.0468
vn 0.2270 0.9736 0.0246
vn 0.2270 0.9736 -0.0246
vn 0.2425 0.9690 -0.0468
vn 0.4567 0.8874 0.0637
vn -1.0000 0.0000 -0.0000
# 137 vertex normals

vt 0.5726 0.3120 0.0000
vt 0.5411 0.3120 0.0000
vt 0.5411 0.0933 0.0000
vt 0.5726 0.0933 0.0000
vt 0.4209 0.2683 0.0000
vt 0.3865 0.2683 0.0000
vt 0.3865 0.0916 0.0000
vt 0.4209 0.0916 0.0000
vt 0.3374 0.3986 0.0000
vt 0.3374 0.6231 0.0000
vt 0.4801 0.6231 0.0000
vt 0.4801 0.3986 0.0000
vt 0.3311 0.2683 0.0000
vt 0.3311 0.1256 0.0000
vt 0.4882 0.3120 0.0000
vt 0.4882 0.0933 0.0000
vt 0.5755 0.3149 0.0000
vt 0.5411 0.3149 0.0000
vt 0.5411 0.0904 0.0000
vt 0.5755 0.0904 0.0000
vt 0.4857 0.3149 0.0000
vt 0.4857 0.0904 0.0000
vt 0.4845 0.4015 0.0000
vt 0.4845 0.6202 0.0000
vt 0.0583 0.7693 0.0000
vt 0.0747 0.7699 0.0000
vt 0.0746 0.8047 0.0000
vt 0.0584 0.8085 0.0000
vt 0.1260 0.8654 0.0000
vt 0.1921 0.8652 0.0000
vt 0.1922 0.8904 0.0000
vt 0.1275 0.8927 0.0000
vt 0.0564 0.8089 0.0000
vt 0.0766 0.8046 0.0000
vt 0.0771 0.8090 0.0000
vt 0.0569 0.8134 0.0000
vt 0.1259 0.8917 0.0000
vt 0.1922 0.8893 0.0000
vt 0.1922 0.8936 0.0000
vt 0.1260 0.8960 0.0000
vt 0.1430 0.6963 0.0000
vt 0.1275 0.6961 0.0000
vt 0.1255 0.6928 0.0000
vt 0.1451 0.6933 0.0000
vt 0.1257 0.7681 0.0000
vt 0.1241 0.8328 0.0000
vt 0.1221 0.8328 0.0000
vt 0.1237 0.7666 0.0000
vt 0.1228 0.7664 0.0000
vt 0.1211 0.8325 0.0000
vt 0.1411 0.8330 0.0000
vt 0.1428 0.7667 0.0000
vt 0.0557 0.8994 0.0000
vt 0.0550 0.8656 0.0000
vt 0.0826 0.7651 0.0000
vt 0.0828 0.6942 0.0000
vt 0.1206 0.6949 0.0000
vt 0.1138 0.7667 0.0000
vt 0.0525 0.9029 0.0000
vt 0.0525 0.8986 0.0000
vt 0.1162 0.7652 0.0000
vt 0.1231 0.6918 0.0000
vt 0.1274 0.6919 0.0000
vt 0.1205 0.7652 0.0000
vt 0.1414 0.7683 0.0000
vt 0.1435 0.7668 0.0000
vt 0.1445 0.6929 0.0000
vt 0.1245 0.6928 0.0000
vt 0.0823 0.8312 0.0000
vt 0.1115 0.8313 0.0000
vt 0.1138 0.8313 0.0000
vt 0.1181 0.8314 0.0000
vt 0.1400 0.8332 0.0000
vt 0.1421 0.8332 0.0000
vt 0.0746 0.8050 0.0000
vt 0.1260 0.8653 0.0000
vt 0.1921 0.8651 0.0000
vt 0.1425 0.6954 0.0000
vt 0.1449 0.6925 0.0000
vt 0.1254 0.6929 0.0000
vt 0.1257 0.7683 0.0000
vt 0.1428 0.7666 0.0000
vt 0.1140 0.7667 0.0000
vt 0.1415 0.7684 0.0000
vt 0.1435 0.7669 0.0000
vt 0.1116 0.8313 0.0000
vt 0.0067 0.1307 0.0000
vt 0.0512 0.1307 0.0000
vt 0.0512 0.1495 0.0000
vt 0.0067 0.1495 0.0000
vt 0.1025 0.1270 0.0000
vt 0.0805 0.1270 0.0000
vt 0.0800 0.1174 0.0000
vt 0.1031 0.1174 0.0000
vt 0.0516 0.1274 0.0000
vt 0.0071 0.1274 0.0000
vt 0.0071 0.1085 0.0000
vt 0.0516 0.1085 0.0000
vt 0.1028 0.1497 0.0000
vt 0.1541 0.1483 0.0000
vt 0.1541 0.1468 0.0000
vt 0.1027 0.1482 0.0000
vt 0.1809 0.1410 0.0000
vt 0.1809 0.1021 0.0000
vt 0.1296 0.1021 0.0000
vt 0.1296 0.1410 0.0000
vt 0.0059 0.1503 0.0000
vt 0.0520 0.1503 0.0000
vt 0.1338 0.1489 0.0000
vt 0.1338 0.1474 0.0000
vt 0.0520 0.1300 0.0000
vt 0.0059 0.1300 0.0000
vt 0.1230 0.1477 0.0000
vt 0.1231 0.1492 0.0000
vt 0.0524 0.1078 0.0000
vt 0.0063 0.1078 0.0000
vt 0.0063 0.1281 0.0000
vt 0.0524 0.1281 0.0000
vt 0.1303 0.1029 0.0000
vt 0.1802 0.1029 0.0000
vt 0.1802 0.1402 0.0000
vt 0.1303 0.1402 0.0000
vt 0.0797 0.1110 0.0000
vt 0.1034 0.1110 0.0000
vt 0.0643 0.1270 0.0000
vt 0.0628 0.1174 0.0000
vt 0.1201 0.1174 0.0000
vt 0.1236 0.1174 0.0000
vt 0.1236 0.1236 0.0000
vt 0.1188 0.1270 0.0000
vt 0.0621 0.1087 0.0000
vt 0.1206 0.1087 0.0000
vt 0.1236 0.1083 0.0000
vt 0.0595 0.1236 0.0000
vt 0.0595 0.1174 0.0000
vt 0.0595 0.1083 0.0000
vt 0.1284 0.1490 0.0000
vt 0.1377 0.1488 0.0000
vt 0.1376 0.1473 0.0000
vt 0.1284 0.1475 0.0000
vt 0.1440 0.1486 0.0000
vt 0.1439 0.1471 0.0000
vt 0.1675 0.1421 0.0000
vt 0.1500 0.1421 0.0000
vt 0.1500 0.1436 0.0000
vt 0.1675 0.1436 0.0000
vt 0.1280 0.1421 0.0000
vt 0.1280 0.1436 0.0000
vt 0.1105 0.1421 0.0000
vt 0.1105 0.1436 0.0000
vt 0.1129 0.1494 0.0000
vt 0.1129 0.1479 0.0000
vt 0.1028 0.1421 0.0000
vt 0.1101 0.1421 0.0000
vt 0.1101 0.1436 0.0000
vt 0.1028 0.1436 0.0000
vt 0.1275 0.1421 0.0000
vt 0.1275 0.1436 0.0000
vt 0.1506 0.1421 0.0000
vt 0.1506 0.1436 0.0000
vt 0.1676 0.1421 0.0000
vt 0.1676 0.1436 0.0000
vt 0.1753 0.1421 0.0000
vt 0.1753 0.1436 0.0000
vt 0.1270 0.1170 0.0000
vt 0.1278 0.1174 0.0000
vt 0.1278 0.1252 0.0000
vt 0.1270 0.1245 0.0000
vt 0.1200 0.1306 0.0000
vt 0.1200 0.1296 0.0000
vt 0.1025 0.1306 0.0000
vt 0.1025 0.1296 0.0000
vt 0.0806 0.1306 0.0000
vt 0.0805 0.1296 0.0000
vt 0.0630 0.1306 0.0000
vt 0.0630 0.1296 0.0000
vt 0.0553 0.1252 0.0000
vt 0.0561 0.1245 0.0000
vt 0.0553 0.1174 0.0000
vt 0.0561 0.1170 0.0000
vt 0.0553 0.1041 0.0000
vt 0.0561 0.1045 0.0000
vt 0.0627 0.1051 0.0000
vt 0.0627 0.1053 0.0000
vt 0.0800 0.1074 0.0000
vt 0.0800 0.1077 0.0000
vt 0.1031 0.1074 0.0000
vt 0.1031 0.1077 0.0000
vt 0.1201 0.1051 0.0000
vt 0.1201 0.1054 0.0000
vt 0.1278 0.1041 0.0000
vt 0.1270 0.1045 0.0000
vt 0.1246 0.1236 0.0000
vt 0.1246 0.1170 0.0000
vt 0.1192 0.1275 0.0000
vt 0.1025 0.1275 0.0000
vt 0.0805 0.1275 0.0000
vt 0.0639 0.1275 0.0000
vt 0.0585 0.1236 0.0000
vt 0.0585 0.1170 0.0000
vt 0.0585 0.1069 0.0000
vt 0.0623 0.1074 0.0000
vt 0.0798 0.1097 0.0000
vt 0.1033 0.1097 0.0000
vt 0.1205 0.1074 0.0000
vt 0.1246 0.1069 0.0000
vt 0.3513 0.4754 0.0000
vt 0.4663 0.4754 0.0000
vt 0.4663 0.6216 0.0000
vt 0.3513 0.6216 0.0000
# 210 texture coords

g tavolo_pc
usemtl _sediawire_138008110
s 1
f 26/26/10 27/27/11 28/28/12 29/29/13 
f 30/30/14 31/31/14 32/32/15 33/33/16 
f 34/34/17 35/35/18 36/36/19 37/37/20 
f 35/38/18 38/31/21 39/32/22 36/39/19 
f 27/27/11 40/40/23 41/41/24 28/28/12 
f 31/31/14 34/38/17 37/39/20 32/32/15 
f 38/31/21 42/30/21 43/33/25 39/32/22 
f 26/26/10 33/42/16 32/43/15 27/27/11 
f 28/28/12 39/44/22 43/45/25 29/29/13 
f 29/29/13 43/45/25 33/42/16 26/26/10 
f 27/27/11 32/43/15 37/46/20 40/40/23 
f 41/41/24 36/47/19 39/44/22 28/28/12 
f 40/48/23 37/37/20 36/36/19 41/49/24 
f 44/50/26 45/51/27 46/52/28 47/53/29 
f 48/54/30 49/55/31 50/56/32 51/57/33 
f 52/58/34 53/59/35 54/60/36 55/61/37 
f 56/62/38 57/63/39 58/64/40 59/65/41 
f 47/66/29 46/67/28 53/68/35 52/69/34 
f 51/70/33 50/71/32 57/72/39 56/73/38 
f 59/74/41 58/75/40 60/76/42 61/77/43 
f 51/57/33 46/78/28 45/79/27 48/54/30 
f 62/80/44 44/81/26 47/82/29 63/83/45 
f 59/65/41 54/84/36 53/85/35 56/62/38 
f 64/86/46 52/87/34 55/88/37 61/89/43 
f 56/73/38 53/68/35 46/67/28 51/70/33 
f 63/90/45 47/66/29 52/69/34 64/91/46 
f 61/77/43 55/92/37 54/93/36 59/74/41 
f 65/94/47 62/80/44 63/83/45 66/95/48 
f 67/96/49 64/86/46 61/89/43 60/97/42 
f 66/98/48 63/90/45 64/91/46 67/99/49 
f 68/50/50 69/53/51 70/100/52 71/51/53 
f 72/101/54 73/57/55 50/56/32 49/102/31 
f 74/58/56 75/61/57 76/60/58 77/59/59 
f 78/62/60 79/65/61 58/64/40 57/63/39 
f 69/103/51 74/104/56 77/105/59 70/67/52 
f 73/106/55 78/73/60 57/72/39 50/71/32 
f 79/74/61 80/107/62 60/76/42 58/75/40 
f 73/57/55 72/101/54 71/79/53 70/78/52 
f 81/80/63 82/108/64 69/82/51 68/81/50 
f 79/65/61 78/62/60 77/85/59 76/84/58 
f 83/86/65 80/89/62 75/88/57 74/87/56 
f 78/73/60 73/106/55 70/67/52 77/105/59 
f 82/109/64 83/110/65 74/104/56 69/103/51 
f 80/107/62 79/74/61 76/93/58 75/92/57 
f 65/94/47 66/111/48 82/108/64 81/80/63 
f 67/96/49 60/97/42 80/89/62 83/86/65 
f 66/98/48 67/99/49 83/110/65 82/109/64 
f 84/112/66 85/113/67 86/114/68 87/115/69 
f 88/116/70 89/117/71 90/118/72 91/119/72 
f 92/120/68 93/121/69 94/122/66 95/123/67 
f 96/124/73 97/125/74 98/126/75 99/127/76 
f 100/128/77 101/128/78 98/129/75 97/129/74 
f 100/125/77 102/124/79 103/127/80 101/126/78 
f 96/130/73 99/130/76 103/131/80 102/131/79 
f 104/132/77 105/132/78 106/133/75 107/133/74 
f 108/134/79 109/135/80 105/126/78 104/125/77 
f 110/136/73 111/136/76 109/137/80 108/137/79 
f 107/125/74 106/126/75 111/135/76 110/134/73 
f 112/124/79 113/127/80 114/138/78 115/139/77 
f 116/140/73 117/140/76 113/141/80 112/141/79 
f 118/139/74 119/138/75 117/127/76 116/124/73 
f 115/142/77 114/142/78 119/143/75 118/143/74 
f 120/144/67 99/130/76 98/129/75 121/145/81 
f 101/128/78 122/146/82 121/145/81 98/129/75 
f 122/146/82 101/128/78 103/131/80 123/147/66 
f 99/130/76 120/144/67 123/147/66 103/131/80 
f 105/132/78 87/115/69 86/114/68 106/133/75 
f 109/137/80 84/112/66 87/115/69 105/132/78 
f 111/136/76 85/113/67 84/112/66 109/137/80 
f 106/133/75 86/114/68 85/113/67 111/136/76 
f 113/141/80 94/122/66 93/121/69 114/142/78 
f 117/140/76 95/123/67 94/122/66 113/141/80 
f 119/143/75 92/120/68 95/123/67 117/140/76 
f 114/142/78 93/121/69 92/120/68 119/143/75 
f 91/119/72 90/118/72 124/148/83 125/149/84 
f 89/117/71 126/150/85 127/151/86 90/118/72 
f 128/152/86 129/153/87 130/154/88 131/155/89 
f 90/118/72 127/151/86 132/156/90 124/148/83 
f 133/157/91 134/158/92 129/153/87 128/152/86 
f 131/155/89 88/116/70 91/119/72 128/152/86 
f 128/152/86 91/119/72 125/149/84 133/157/91 
f 126/150/85 135/159/93 136/160/94 127/151/86 
f 127/151/86 136/160/94 137/161/95 132/156/90 
f 138/162/21 139/163/96 140/164/97 141/165/98 
f 139/163/96 142/166/99 143/167/100 140/164/97 
f 142/168/99 144/169/101 145/170/102 143/171/100 
f 144/169/101 146/172/101 147/173/103 145/170/102 
f 146/172/101 148/174/104 149/175/105 147/173/103 
f 148/166/104 150/163/106 151/164/107 149/167/105 
f 150/163/106 152/162/108 153/165/109 151/164/107 
f 152/162/108 154/176/110 155/177/111 153/165/109 
f 154/178/110 156/179/112 157/180/113 155/181/111 
f 156/179/112 158/182/114 159/183/115 157/180/113 
f 158/182/114 160/184/116 161/185/117 159/183/115 
f 160/184/116 162/186/118 163/187/119 161/185/117 
f 162/186/118 164/188/120 165/189/121 163/187/119 
f 164/176/120 138/162/21 141/165/98 165/177/121 
f 166/190/122 141/191/98 140/192/97 167/193/123 
f 167/193/123 140/192/97 143/194/100 168/195/124 
f 168/195/124 143/194/100 145/196/102 169/197/125 
f 169/197/125 145/196/102 147/198/103 170/199/126 
f 170/199/126 147/198/103 149/200/105 171/201/127 
f 171/201/127 149/200/105 151/202/107 172/203/128 
f 172/203/128 151/202/107 153/204/109 173/205/129 
f 173/205/129 153/204/109 155/206/111 174/207/130 
f 174/207/130 155/206/111 157/208/113 175/209/131 
f 175/209/131 157/208/113 159/210/115 176/211/132 
f 176/211/132 159/210/115 161/212/117 177/213/133 
f 177/213/133 161/212/117 163/214/119 178/215/134 
f 178/215/134 163/214/119 165/216/121 179/217/135 
f 179/217/135 165/216/121 141/191/98 166/190/122 
f 166/190/122 167/193/123 180/218/136 181/219/87 
f 167/193/123 168/195/124 182/220/137 180/218/136 
f 168/195/124 169/197/125 183/221/70 182/220/137 
f 169/197/125 170/199/126 184/222/71 183/221/70 
f 170/199/126 171/201/127 185/223/138 184/222/71 
f 171/201/127 172/203/128 186/224/139 185/223/138 
f 172/203/128 173/205/129 187/225/94 186/224/139 
f 173/205/129 174/207/130 188/226/140 187/225/94 
f 174/207/130 175/209/131 189/227/141 188/226/140 
f 175/209/131 176/211/132 190/228/142 189/227/141 
f 176/211/132 177/213/133 191/229/143 190/228/142 
f 177/213/133 178/215/134 192/230/144 191/229/143 
f 178/215/134 179/217/135 193/231/145 192/230/144 
f 179/217/135 166/190/122 181/219/87 193/231/145 
f 181/219/87 180/218/136 130/154/88 129/153/87 
f 180/218/136 182/220/137 131/155/89 130/154/88 
f 182/220/137 183/221/70 88/116/70 131/155/89 
f 183/221/70 184/222/71 89/117/71 88/116/70 
f 184/222/71 185/223/138 126/150/85 89/117/71 
f 185/223/138 186/224/139 135/159/93 126/150/85 
f 186/224/139 187/225/94 136/160/94 135/159/93 
f 187/225/94 188/226/140 137/161/95 136/160/94 
f 188/226/140 189/227/141 132/156/90 137/161/95 
f 189/227/141 190/228/142 124/148/83 132/156/90 
f 190/228/142 191/229/143 125/149/84 124/148/83 
f 191/229/143 192/230/144 133/157/91 125/149/84 
f 192/230/144 193/231/145 134/158/92 133/157/91 
f 193/231/145 181/219/87 129/153/87 134/158/92 
f 121/145/81 122/146/82 123/147/66 120/144/67 
s 2
f 43/232/146 42/233/146 30/234/146 33/235/146 
# 141 polygons

