# 3ds Max Wavefront OBJ Exporter v0.97b - (c)2007 guruware
# File Created: 27.03.2018 15:19:12

mtllib tavolo.mtl

#
# object Object001
#

v  0.5943 0.8900 1.5726
v  0.5943 0.8900 -1.4274
v  0.5943 0.9800 -1.4274
v  0.5943 0.9800 1.5726
v  -0.1057 0.8900 -1.4274
v  -0.1057 0.9800 -1.4274
v  0.4715 -0.0108 1.0591
v  0.4715 -0.0108 0.0781
v  0.4715 0.0257 0.0781
v  0.4715 0.0257 1.0591
v  0.2158 -0.0108 -1.1587
v  -0.1057 -0.0108 -1.1587
v  -0.1057 0.0257 -1.1587
v  0.2158 0.0257 -1.1587
v  0.2158 -0.0108 1.3148
v  0.2158 0.0257 1.3148
v  0.4715 -0.0108 -0.9030
v  0.4715 0.0257 -0.9030
v  -0.1057 0.0257 -0.9030
v  -0.1057 0.8900 1.5726
v  -0.1057 0.9800 1.5726
v  -0.1057 0.0257 1.0591
v  -0.1057 0.0257 0.0781
v  -0.1057 -0.0108 1.3148
v  -0.1057 0.0257 1.3148
v  -0.8057 0.8900 1.5726
v  -0.8057 0.9800 1.5726
v  -0.8057 0.9800 -1.4274
v  -0.8057 0.8900 -1.4274
v  -0.6828 -0.0108 1.0591
v  -0.6828 0.0257 1.0591
v  -0.6828 0.0257 0.0781
v  -0.6828 -0.0108 0.0781
v  -0.4271 -0.0108 -1.1587
v  -0.4271 0.0257 -1.1587
v  -0.4271 -0.0108 1.3148
v  -0.4271 0.0257 1.3148
v  -0.6828 -0.0108 -0.9030
v  -0.6828 0.0257 -0.9030
v  -0.3097 0.8900 -0.4524
v  -0.2824 0.8900 -0.5885
v  -0.2824 0.4911 -0.5885
v  -0.3097 0.4911 -0.4524
v  -0.2077 0.8900 -0.6881
v  -0.2077 0.4911 -0.6881
v  -0.1057 0.8900 -0.7246
v  -0.1057 0.4911 -0.7246
v  -0.0036 0.8900 -0.6881
v  -0.0036 0.4911 -0.6881
v  0.0710 0.8900 -0.5885
v  0.0710 0.4911 -0.5885
v  0.0984 0.8900 -0.4524
v  0.0984 0.4911 -0.4524
v  0.0984 0.8900 0.6085
v  0.0710 0.8900 0.7446
v  0.0710 0.4911 0.7446
v  0.0984 0.4911 0.6085
v  -0.0036 0.8900 0.8442
v  -0.0036 0.4911 0.8442
v  -0.1057 0.8900 0.8807
v  -0.1057 0.4911 0.8807
v  -0.2077 0.8900 0.8442
v  -0.2077 0.4911 0.8442
v  -0.2824 0.8900 0.7446
v  -0.2824 0.4911 0.7446
v  -0.3097 0.8900 0.6085
v  -0.3097 0.4911 0.6085
v  -0.2824 0.0200 -0.5885
v  -0.3097 0.0200 -0.4524
v  -0.2077 0.0200 -0.6881
v  -0.1057 0.0200 -0.7246
v  -0.0036 0.0200 -0.6881
v  0.0710 0.0200 -0.5885
v  0.0984 0.0200 -0.4524
v  0.0984 0.0200 0.6085
v  0.0710 0.0200 0.7446
v  -0.0036 0.0200 0.8442
v  -0.1057 0.0200 0.8807
v  -0.2077 0.0200 0.8442
v  -0.2824 0.0200 0.7446
v  -0.3097 0.0200 0.6085
# 81 vertices

vn 0.5774 -0.5774 0.5774
vn 0.5774 -0.5774 -0.5774
vn 0.5774 0.5774 -0.5774
vn 0.5774 0.5774 0.5774
vn 0.0000 -0.7071 -0.7071
vn 0.0000 0.7071 -0.7071
vn 0.9239 0.0000 0.3827
vn 1.0000 0.0000 -0.0000
vn 0.7071 0.7071 -0.0000
vn 0.7173 0.6303 0.2971
vn 0.3827 0.0000 -0.9239
vn 0.0000 0.0000 -1.0000
vn 0.2971 0.6303 -0.7173
vn 0.3827 0.0000 0.9239
vn 0.2971 0.6303 0.7173
vn 0.9239 0.0000 -0.3827
vn 0.7173 0.6303 -0.2971
vn 0.0000 1.0000 -0.0000
vn 0.0000 -0.7071 0.7071
vn 0.0000 0.7071 0.7071
vn 0.0000 0.0000 1.0000
vn -0.5774 -0.5774 0.5774
vn -0.5774 0.5774 0.5774
vn -0.5774 0.5774 -0.5774
vn -0.5774 -0.5774 -0.5774
vn -0.9239 0.0000 0.3827
vn -0.7173 0.6303 0.2971
vn -0.7071 0.7071 -0.0000
vn -1.0000 0.0000 -0.0000
vn -0.3827 0.0000 -0.9239
vn -0.2971 0.6303 -0.7173
vn -0.3827 0.0000 0.9239
vn -0.2971 0.6303 0.7173
vn -0.9239 0.0000 -0.3827
vn -0.7173 0.6303 -0.2971
vn -0.9951 0.0000 -0.0988
vn -0.9128 0.0000 -0.4084
vn -0.5936 0.0000 -0.8048
vn -0.0002 0.0000 -1.0000
vn 0.5937 0.0000 -0.8047
vn 0.9128 0.0000 -0.4085
vn 0.9951 0.0000 -0.0992
vn 0.9951 0.0000 0.0992
vn 0.9128 0.0000 0.4085
vn 0.5937 0.0000 0.8047
vn -0.0002 0.0000 1.0000
vn -0.5936 0.0000 0.8048
vn -0.9128 0.0000 0.4084
vn -0.9951 0.0000 0.0988
# 49 vertex normals

vt 0.9655 0.4357 0.0000
vt 0.9655 0.0048 0.0000
vt 0.9784 0.0048 0.0000
vt 0.9784 0.4357 0.0000
vt 0.8366 0.2487 0.0000
vt 0.8366 0.1481 0.0000
vt 0.8495 0.1481 0.0000
vt 0.8495 0.2487 0.0000
vt 0.8548 0.2894 0.0000
vt 0.8548 0.1485 0.0000
vt 0.8600 0.1485 0.0000
vt 0.8600 0.2894 0.0000
vt 0.8423 0.1000 0.0000
vt 0.8423 0.0538 0.0000
vt 0.8475 0.0538 0.0000
vt 0.8475 0.1000 0.0000
vt 0.8475 0.1368 0.0000
vt 0.8423 0.1368 0.0000
vt 0.8476 0.8449 0.0000
vt 0.8109 0.8083 0.0000
vt 0.8109 0.7620 0.0000
vt 0.8476 0.7620 0.0000
vt 0.9624 0.4376 0.0000
vt 0.8619 0.4376 0.0000
vt 0.8619 0.0067 0.0000
vt 0.9624 0.0067 0.0000
vt 0.8476 0.8450 0.0000
vt 0.9886 0.8450 0.0000
vt 0.9886 0.7620 0.0000
vt 0.8109 0.8082 0.0000
vt 0.9895 0.6618 0.0000
vt 0.9895 0.6814 0.0000
vt 0.9322 0.6814 0.0000
vt 0.9322 0.6618 0.0000
vt 0.9895 0.6957 0.0000
vt 0.9322 0.6957 0.0000
vt 0.8645 0.7273 0.0000
vt 0.8645 0.7126 0.0000
vt 0.9218 0.7126 0.0000
vt 0.9218 0.7273 0.0000
vt 0.8645 0.6980 0.0000
vt 0.9218 0.6980 0.0000
vt 0.8645 0.6957 0.0000
vt 0.8645 0.6814 0.0000
vt 0.9218 0.6814 0.0000
vt 0.9218 0.6957 0.0000
vt 0.8645 0.6618 0.0000
vt 0.9218 0.6618 0.0000
vt 0.8645 0.5094 0.0000
vt 0.8645 0.4899 0.0000
vt 0.9218 0.4899 0.0000
vt 0.9218 0.5094 0.0000
vt 0.8645 0.4756 0.0000
vt 0.9218 0.4756 0.0000
vt 0.9895 0.4451 0.0000
vt 0.9895 0.4598 0.0000
vt 0.9322 0.4598 0.0000
vt 0.9322 0.4451 0.0000
vt 0.9895 0.4744 0.0000
vt 0.9322 0.4744 0.0000
vt 0.9895 0.4756 0.0000
vt 0.9895 0.4899 0.0000
vt 0.9322 0.4899 0.0000
vt 0.9322 0.4756 0.0000
vt 0.9895 0.5094 0.0000
vt 0.9322 0.5094 0.0000
vt 0.9895 0.7126 0.0000
vt 0.9895 0.7273 0.0000
vt 0.9895 0.6980 0.0000
vt 0.8645 0.4598 0.0000
vt 0.8645 0.4451 0.0000
vt 0.8645 0.4744 0.0000
vt 0.8548 0.0075 0.0000
vt 0.8600 0.0075 0.0000
vt 0.9885 0.8449 0.0000
vt 0.9885 0.7620 0.0000
# 76 texture coords

g Object001
usemtl props
s 1
f 1/1/1 2/2/2 3/3/3 4/4/4 
f 2/5/2 5/6/5 6/7/6 3/8/3 
f 7/9/7 8/10/8 9/11/9 10/12/10 
f 11/13/11 12/14/12 13/15/6 14/16/13 
f 15/16/14 7/17/7 10/18/10 16/13/15 
f 17/17/16 11/16/11 14/13/13 18/18/17 
f 18/19/17 14/20/13 13/21/6 19/22/18 
f 5/23/5 2/24/2 1/25/1 20/26/19 
f 21/25/20 4/26/4 3/23/3 6/24/6 
f 20/7/19 1/8/1 4/5/4 21/6/20 
f 22/22/18 10/27/10 9/28/9 23/29/18 
f 24/15/21 15/16/14 16/13/15 25/14/20 
f 25/21/20 16/30/15 10/27/10 22/22/18 
f 26/4/22 27/1/23 28/2/24 29/3/25 
f 29/8/25 28/5/24 6/6/6 5/7/5 
f 30/12/26 31/9/27 32/10/28 33/11/29 
f 34/16/30 35/13/31 13/14/6 12/15/12 
f 36/13/32 37/16/33 31/17/27 30/18/26 
f 38/17/34 39/18/35 35/13/31 34/16/30 
f 39/19/35 19/22/18 13/21/6 35/20/31 
f 5/24/5 20/25/19 26/26/22 29/23/25 
f 21/26/20 6/23/6 28/24/24 27/25/23 
f 20/6/19 21/7/20 27/8/23 26/5/22 
f 22/22/18 23/29/18 32/28/28 31/27/27 
f 24/14/21 25/15/20 37/16/33 36/13/32 
f 25/21/20 22/22/18 31/27/27 37/30/33 
f 40/31/36 41/32/37 42/33/37 43/34/36 
f 41/32/37 44/35/38 45/36/38 42/33/37 
f 44/37/38 46/38/39 47/39/39 45/40/38 
f 46/38/39 48/41/40 49/42/40 47/39/39 
f 48/43/40 50/44/41 51/45/41 49/46/40 
f 50/44/41 52/47/42 53/48/42 51/45/41 
f 54/49/43 55/50/44 56/51/44 57/52/43 
f 55/50/44 58/53/45 59/54/45 56/51/44 
f 58/55/45 60/56/46 61/57/46 59/58/45 
f 60/56/46 62/59/47 63/60/47 61/57/46 
f 62/61/47 64/62/48 65/63/48 63/64/47 
f 64/62/48 66/65/49 67/66/49 65/63/48 
f 54/49/43 57/52/43 53/48/42 52/47/42 
f 67/66/49 66/65/49 40/31/36 43/34/36 
f 43/34/36 42/33/37 68/44/37 69/47/36 
f 42/33/37 45/36/38 70/43/38 68/44/37 
f 45/40/38 47/39/39 71/67/39 70/68/38 
f 47/39/39 49/42/40 72/69/40 71/67/39 
f 49/46/40 51/45/41 73/32/41 72/35/40 
f 51/45/41 53/48/42 74/31/42 73/32/41 
f 53/48/42 57/52/43 75/65/43 74/31/42 
f 57/52/43 56/51/44 76/62/44 75/65/43 
f 56/51/44 59/54/45 77/61/45 76/62/44 
f 59/58/45 61/57/46 78/70/46 77/71/45 
f 61/57/46 63/60/47 79/72/47 78/70/46 
f 63/64/47 65/63/48 80/50/48 79/53/47 
f 65/63/48 67/66/49 81/49/49 80/50/48 
f 67/66/49 43/34/36 69/47/36 81/49/49 
f 8/10/8 17/73/16 18/74/17 9/11/9 
f 9/75/9 18/19/17 19/22/18 23/76/18 
f 32/10/28 39/73/35 38/74/34 33/11/29 
f 23/76/18 19/22/18 39/19/35 32/75/28 
# 58 polygons

