# 3ds Max Wavefront OBJ Exporter v0.97b - (c)2007 guruware
# File Created: 12.02.2018 15:05:32

mtllib tavolo1.mtl

#
# object tavolo1
#

v  0.6954 0.8900 1.5016
v  0.6954 0.8900 -1.4984
v  0.6954 0.9800 -1.4984
v  0.6954 0.9800 1.5016
v  -0.0046 0.8900 -1.4984
v  -0.0046 0.9800 -1.4984
v  0.5726 -0.0108 0.9881
v  0.5726 -0.0108 -0.9740
v  0.5726 0.0257 -0.9740
v  0.5726 0.0257 0.9881
v  0.3169 -0.0108 -1.2297
v  -0.0046 -0.0108 -1.2297
v  -0.0046 0.0257 -1.2297
v  0.3169 0.0257 -1.2297
v  0.3169 -0.0108 1.2438
v  0.3169 0.0257 1.2438
v  -0.0046 0.0257 -0.9740
v  -0.0046 0.8900 1.5016
v  -0.0046 0.9800 1.5016
v  -0.0046 0.0257 0.9881
v  -0.0046 -0.0108 1.2438
v  -0.0046 0.0257 1.2438
v  -0.7046 0.8900 1.5016
v  -0.7046 0.9800 1.5016
v  -0.7046 0.9800 -1.4984
v  -0.7046 0.8900 -1.4984
v  -0.5817 -0.0108 0.9881
v  -0.5817 0.0257 0.9881
v  -0.5817 0.0257 -0.9740
v  -0.5817 -0.0108 -0.9740
v  -0.3260 -0.0108 -1.2297
v  -0.3260 0.0257 -1.2297
v  -0.3260 -0.0108 1.2438
v  -0.3260 0.0257 1.2438
v  -0.2086 0.8900 -0.5234
v  -0.1813 0.8900 -0.6595
v  -0.1813 0.4911 -0.6595
v  -0.2086 0.4911 -0.5234
v  -0.1066 0.8900 -0.7591
v  -0.1066 0.4911 -0.7591
v  -0.0046 0.8900 -0.7956
v  -0.0046 0.4911 -0.7956
v  0.0975 0.8900 -0.7591
v  0.0975 0.4911 -0.7591
v  0.1721 0.8900 -0.6595
v  0.1721 0.4911 -0.6595
v  0.1995 0.8900 -0.5234
v  0.1995 0.4911 -0.5234
v  0.1995 0.8900 0.5375
v  0.1721 0.8900 0.6736
v  0.1721 0.4911 0.6736
v  0.1995 0.4911 0.5375
v  0.0975 0.8900 0.7732
v  0.0975 0.4911 0.7732
v  -0.0046 0.8900 0.8097
v  -0.0046 0.4911 0.8097
v  -0.1066 0.8900 0.7732
v  -0.1066 0.4911 0.7732
v  -0.1813 0.8900 0.6736
v  -0.1813 0.4911 0.6736
v  -0.2086 0.8900 0.5375
v  -0.2086 0.4911 0.5375
v  -0.1813 0.0200 -0.6595
v  -0.2086 0.0200 -0.5234
v  -0.1066 0.0200 -0.7591
v  -0.0046 0.0200 -0.7956
v  0.0975 0.0200 -0.7591
v  0.1721 0.0200 -0.6595
v  0.1995 0.0200 -0.5234
v  0.1995 0.0200 0.5375
v  0.1721 0.0200 0.6736
v  0.0975 0.0200 0.7732
v  -0.0046 0.0200 0.8097
v  -0.1066 0.0200 0.7732
v  -0.1813 0.0200 0.6736
v  -0.2086 0.0200 0.5375
# 76 vertices

vn 0.5774 -0.5774 0.5774
vn 0.5774 -0.5774 -0.5774
vn 0.5774 0.5774 -0.5774
vn 0.5774 0.5774 0.5774
vn 0.0000 -0.7071 -0.7071
vn 0.0000 0.7071 -0.7071
vn 0.9239 0.0000 0.3827
vn 0.9239 0.0000 -0.3827
vn 0.7173 0.6303 -0.2971
vn 0.7173 0.6303 0.2971
vn 0.3827 0.0000 -0.9239
vn 0.0000 0.0000 -1.0000
vn 0.2971 0.6303 -0.7173
vn 0.3827 0.0000 0.9239
vn 0.2971 0.6303 0.7173
vn 0.0000 1.0000 -0.0000
vn 0.0000 -0.7071 0.7071
vn 0.0000 0.7071 0.7071
vn 0.0000 0.0000 1.0000
vn -0.5774 -0.5774 0.5774
vn -0.5774 0.5774 0.5774
vn -0.5774 0.5774 -0.5774
vn -0.5774 -0.5774 -0.5774
vn -0.9239 0.0000 0.3827
vn -0.7173 0.6303 0.2971
vn -0.7173 0.6303 -0.2971
vn -0.9239 0.0000 -0.3827
vn -0.3827 0.0000 -0.9239
vn -0.2971 0.6303 -0.7173
vn -0.3827 0.0000 0.9239
vn -0.2971 0.6303 0.7173
vn -0.9951 0.0000 -0.0990
vn -0.9128 0.0000 -0.4084
vn -0.5935 0.0000 -0.8048
vn -0.0000 0.0000 -1.0000
vn 0.5935 0.0000 -0.8048
vn 0.9128 0.0000 -0.4084
vn 0.9951 0.0000 -0.0990
vn 0.9951 0.0000 0.0990
vn 0.9128 0.0000 0.4084
vn 0.5935 0.0000 0.8048
vn -0.0000 0.0000 1.0000
vn -0.5935 0.0000 0.8048
vn -0.9128 0.0000 0.4084
vn -0.9951 0.0000 0.0990
# 45 vertex normals

vt 0.3342 0.8854 0.0000
vt 0.3342 0.3943 0.0000
vt 0.3195 0.3943 0.0000
vt 0.3195 0.8854 0.0000
vt 0.1986 0.8618 0.0000
vt 0.1986 0.7472 0.0000
vt 0.1839 0.7472 0.0000
vt 0.1839 0.8618 0.0000
vt 0.1993 0.7187 0.0000
vt 0.1993 0.3974 0.0000
vt 0.1934 0.3974 0.0000
vt 0.1934 0.7187 0.0000
vt 0.1824 0.8202 0.0000
vt 0.1824 0.7676 0.0000
vt 0.1765 0.7676 0.0000
vt 0.1765 0.8202 0.0000
vt 0.1824 0.8621 0.0000
vt 0.1765 0.8621 0.0000
vt 0.0465 0.0991 0.0000
vt 0.0046 0.0573 0.0000
vt 0.0046 0.0046 0.0000
vt 0.0465 0.0046 0.0000
vt 0.2014 0.8876 0.0000
vt 0.3160 0.8876 0.0000
vt 0.3160 0.3965 0.0000
vt 0.2014 0.3965 0.0000
vt 0.3677 0.0046 0.0000
vt 0.3677 0.0991 0.0000
vt 0.4095 0.0046 0.0000
vt 0.4095 0.0573 0.0000
vt 0.0822 0.2981 0.0000
vt 0.0599 0.2981 0.0000
vt 0.0599 0.2328 0.0000
vt 0.0822 0.2328 0.0000
vt 0.0436 0.2981 0.0000
vt 0.0436 0.2328 0.0000
vt 0.0076 0.2981 0.0000
vt 0.0243 0.2981 0.0000
vt 0.0243 0.2328 0.0000
vt 0.0076 0.2328 0.0000
vt 0.0410 0.2981 0.0000
vt 0.0410 0.2328 0.0000
vt 0.2559 0.2981 0.0000
vt 0.2782 0.2981 0.0000
vt 0.2782 0.2328 0.0000
vt 0.2559 0.2328 0.0000
vt 0.2945 0.2981 0.0000
vt 0.2945 0.2328 0.0000
vt 0.3292 0.2981 0.0000
vt 0.3125 0.2981 0.0000
vt 0.3125 0.2328 0.0000
vt 0.3292 0.2328 0.0000
vt 0.2958 0.2981 0.0000
vt 0.2958 0.2328 0.0000
vt 0.0599 0.1557 0.0000
vt 0.0822 0.1557 0.0000
vt 0.0436 0.1557 0.0000
vt 0.0243 0.1557 0.0000
vt 0.0076 0.1557 0.0000
vt 0.0410 0.1557 0.0000
vt 0.2559 0.1557 0.0000
vt 0.2782 0.1557 0.0000
vt 0.2945 0.1557 0.0000
vt 0.3125 0.1557 0.0000
vt 0.3292 0.1557 0.0000
vt 0.2958 0.1557 0.0000
# 66 texture coords

g tavolo1
usemtl _sediawire_138008110
s 1
f 1/1/1 2/2/2 3/3/3 4/4/4 
f 2/5/2 5/6/5 6/7/6 3/8/3 
f 7/9/7 8/10/8 9/11/9 10/12/10 
f 11/13/11 12/14/12 13/15/6 14/16/13 
f 15/13/14 7/17/7 10/18/10 16/16/15 
f 8/17/8 11/13/11 14/16/13 9/18/9 
f 9/19/9 14/20/13 13/21/6 17/22/16 
f 5/23/5 2/24/2 1/25/1 18/26/17 
f 19/26/18 4/25/4 3/24/3 6/23/6 
f 18/6/17 1/5/1 4/8/4 19/7/18 
f 20/27/16 10/28/10 9/19/9 17/22/16 
f 21/14/19 15/13/14 16/16/15 22/15/18 
f 22/29/18 16/30/15 10/28/10 20/27/16 
f 23/1/20 24/4/21 25/3/22 26/2/23 
f 26/5/23 25/8/22 6/7/6 5/6/5 
f 27/9/24 28/12/25 29/11/26 30/10/27 
f 31/13/28 32/16/29 13/15/6 12/14/12 
f 33/13/30 34/16/31 28/18/25 27/17/24 
f 30/17/27 29/18/26 32/16/29 31/13/28 
f 29/19/26 17/22/16 13/21/6 32/20/29 
f 5/23/5 18/26/17 23/25/20 26/24/23 
f 19/26/18 6/23/6 25/24/22 24/25/21 
f 18/6/17 19/7/18 24/8/21 23/5/20 
f 20/27/16 17/22/16 29/19/26 28/28/25 
f 21/14/19 22/15/18 34/16/31 33/13/30 
f 22/29/18 20/27/16 28/28/25 34/30/31 
f 35/31/32 36/32/33 37/33/33 38/34/32 
f 36/32/33 39/35/34 40/36/34 37/33/33 
f 39/37/34 41/38/35 42/39/35 40/40/34 
f 41/38/35 43/41/36 44/42/36 42/39/35 
f 43/35/36 45/32/37 46/33/37 44/36/36 
f 45/32/37 47/31/38 48/34/38 46/33/37 
f 49/43/39 50/44/40 51/45/40 52/46/39 
f 50/44/40 53/47/41 54/48/41 51/45/40 
f 53/49/41 55/50/42 56/51/42 54/52/41 
f 55/50/42 57/53/43 58/54/43 56/51/42 
f 57/47/43 59/44/44 60/45/44 58/48/43 
f 59/44/44 61/43/45 62/46/45 60/45/44 
f 49/43/39 52/46/39 48/34/38 47/31/38 
f 62/46/45 61/43/45 35/31/32 38/34/32 
f 38/34/32 37/33/33 63/55/33 64/56/32 
f 37/33/33 40/36/34 65/57/34 63/55/33 
f 40/40/34 42/39/35 66/58/35 65/59/34 
f 42/39/35 44/42/36 67/60/36 66/58/35 
f 44/36/36 46/33/37 68/55/37 67/57/36 
f 46/33/37 48/34/38 69/56/38 68/55/37 
f 48/34/38 52/46/39 70/61/39 69/56/38 
f 52/46/39 51/45/40 71/62/40 70/61/39 
f 51/45/40 54/48/41 72/63/41 71/62/40 
f 54/52/41 56/51/42 73/64/42 72/65/41 
f 56/51/42 58/54/43 74/66/43 73/64/42 
f 58/48/43 60/45/44 75/62/44 74/63/43 
f 60/45/44 62/46/45 76/61/45 75/62/44 
f 62/46/45 38/34/32 64/56/32 76/61/45 
# 54 polygons

