# 3ds Max Wavefront OBJ Exporter v0.97b - (c)2007 guruware
# File Created: 08.12.2017 11:46:58

mtllib Lab_medico_struttura.mtl

#
# object Object044
#

v  -3.3469 0.0000 -16.0000
v  -7.8457 0.0000 -16.0000
v  -7.8457 0.0000 -12.0000
v  -3.3469 0.0000 -12.0000
v  -3.3469 7.9078 -12.0000
v  -7.8457 7.9078 -12.0000
v  -7.8457 7.9078 -16.0000
v  -3.3469 7.9078 -16.0000
v  -0.0933 0.0000 -12.0000
v  -0.0933 3.4144 -12.0000
v  -0.0933 3.4144 -16.0000
v  -0.0933 0.0000 -16.0000
v  -11.0857 0.0000 -16.0000
v  -11.0857 5.4197 -16.0000
v  -11.0857 5.4197 -12.0000
v  -11.0857 0.0000 -12.0000
v  -1.8264 0.0000 -16.0000
v  -1.8264 0.0000 -12.0000
v  -9.3662 0.0000 -12.0000
v  -9.3662 0.0000 -16.0000
v  -0.5453 5.8930 -12.0000
v  -1.8264 6.3475 -12.0000
v  -1.8264 6.3475 -16.0000
v  -0.5453 5.8930 -16.0000
v  -10.6554 5.8930 -16.0000
v  -9.3662 6.3475 -16.0000
v  -9.3662 6.3475 -12.0000
v  -10.6554 5.8930 -12.0000
v  -7.8457 0.1368 -12.0000
v  -7.8457 0.1368 -15.8107
v  -3.3469 0.1368 -15.8107
v  -3.3469 0.1368 -12.0000
v  -7.6903 7.5393 -15.8107
v  -7.6903 7.5392 -12.0000
v  -3.5024 7.5392 -12.0000
v  -3.5024 7.5393 -15.8107
v  -0.4165 5.5998 -15.8107
v  -0.4165 5.5998 -12.0000
v  -0.3792 0.1368 -12.0000
v  -0.3792 0.1368 -15.8107
v  -10.7761 5.5998 -12.0000
v  -10.7761 5.5998 -15.8107
v  -10.8135 0.1368 -15.8107
v  -10.8135 0.1368 -12.0000
v  -1.8264 0.1368 -12.0000
v  -1.8264 0.1368 -15.8107
v  -9.3662 0.1368 -15.8107
v  -9.3662 0.1368 -12.0000
v  -2.0327 6.0048 -15.8107
v  -2.0327 6.0048 -12.0000
v  -9.1599 6.0048 -12.0000
v  -9.1599 6.0048 -15.8107
v  -0.0933 5.4197 -16.0000
v  -0.0933 5.4197 -12.0000
v  -7.8457 0.0000 -8.0000
v  -3.3469 0.0000 -8.0000
v  -3.3469 7.9078 -8.0000
v  -7.8457 7.9078 -8.0000
v  -0.0933 0.0000 -8.0000
v  -0.0933 3.4144 -8.0000
v  -11.0857 5.4197 -8.0000
v  -11.0857 0.0000 -8.0000
v  -1.8264 0.0000 -8.0000
v  -9.3662 0.0000 -8.0000
v  -0.5453 5.8930 -8.0000
v  -1.8264 6.3475 -8.0000
v  -9.3662 6.3475 -8.0000
v  -10.6555 5.8930 -8.0000
v  -7.8457 0.1368 -8.0000
v  -3.3469 0.1368 -8.0000
v  -7.6903 7.5392 -8.0000
v  -3.5024 7.5392 -8.0000
v  -0.4165 5.5998 -8.0000
v  -0.3792 0.1368 -8.0000
v  -10.7761 5.5998 -8.0000
v  -10.8135 0.1368 -8.0000
v  -1.8264 0.1368 -8.0000
v  -9.3662 0.1368 -8.0000
v  -2.0327 6.0048 -8.0000
v  -9.1599 6.0048 -8.0000
v  -0.0933 5.4197 -8.0000
v  -7.8457 0.0000 -4.0000
v  -3.3469 0.0000 -4.0000
v  -3.3469 7.9078 -4.0000
v  -7.8457 7.9078 -4.0000
v  -0.0933 0.0000 -4.0000
v  -0.0933 3.4144 -4.0000
v  -11.0857 5.4197 -4.0000
v  -11.0857 0.0000 -4.0000
v  -1.8264 0.0000 -4.0000
v  -9.3662 0.0000 -4.0000
v  -0.5453 5.8930 -4.0000
v  -1.8264 6.3475 -4.0000
v  -9.3662 6.3475 -4.0000
v  -10.6555 5.8930 -4.0000
v  -7.8457 0.1368 -4.0000
v  -3.3469 0.1368 -4.0000
v  -7.6903 7.5392 -4.0000
v  -3.5024 7.5392 -4.0000
v  -0.4165 5.5998 -4.0000
v  -0.3792 0.1368 -4.0000
v  -10.7761 5.5998 -4.0000
v  -10.8135 0.1368 -4.0000
v  -1.8264 0.1368 -4.0000
v  -9.3662 0.1368 -4.0000
v  -2.0327 6.0048 -4.0000
v  -9.1599 6.0048 -4.0000
v  -0.0933 5.4197 -4.0000
v  -7.8457 0.0000 -1.3473
v  -3.3469 0.0000 -1.3473
v  -3.3469 7.9078 1.3000
v  -7.8457 7.9078 1.3000
v  -7.8457 7.9078 -1.3473
v  -3.3469 7.9078 -1.3473
v  -11.0857 5.4197 -1.3473
v  -11.0857 0.0000 -1.3473
v  -1.8264 0.0000 -1.3473
v  -0.0933 0.0000 -1.3473
v  -1.8264 6.3475 1.3000
v  -1.8264 6.3475 -1.3473
v  -9.3662 6.3475 -1.3473
v  -10.6555 5.8930 -1.3473
v  -7.8457 0.1368 -0.0000
v  -3.3469 0.1368 -0.0000
v  -7.6903 7.5392 0.0000
v  -3.5024 7.5392 0.0000
v  -10.7761 5.5998 -0.0000
v  -10.8135 0.1368 -0.0000
v  -1.8264 0.1368 -0.0000
v  -0.3792 0.1368 -0.0000
v  -9.3662 0.1368 -0.0000
v  -2.0327 6.0048 0.0000
v  -0.4165 5.5998 0.0000
v  -9.1599 6.0048 0.0000
v  -7.8457 -0.0000 1.3000
v  -3.3469 -0.0000 1.3000
v  -3.3469 7.9078 4.0000
v  -7.8457 7.9078 4.0000
v  -0.0933 -0.0000 4.0000
v  -0.0933 3.4144 4.0000
v  -0.0933 3.4144 1.3000
v  -0.0933 -0.0000 1.3000
v  -11.0857 5.4197 1.3000
v  -11.0857 -0.0000 1.3000
v  -1.8264 -0.0000 1.3000
v  -11.0857 -0.0000 4.0000
v  -9.3662 -0.0000 4.0000
v  -9.3662 -0.0000 1.3000
v  -7.8457 -0.0000 4.0000
v  -0.5453 5.8930 4.0000
v  -1.8264 6.3475 4.0000
v  -0.5453 5.8930 1.3000
v  -9.3662 6.3475 1.3000
v  -10.6554 5.8930 1.3000
v  -7.8457 0.1368 4.0000
v  -3.3469 0.1368 4.0000
v  -7.6903 7.5392 4.0000
v  -3.5024 7.5392 4.0000
v  -10.7761 5.5998 4.0000
v  -10.8135 0.1368 4.0000
v  -1.8264 0.1368 4.0000
v  -0.3792 0.1368 4.0000
v  -9.3662 0.1368 4.0000
v  -2.0327 6.0048 4.0000
v  -0.4165 5.5998 4.0000
v  -9.1599 6.0048 4.0000
v  -0.0933 5.4197 4.0000
v  -0.0933 5.4197 1.3000
v  -3.3469 -0.0000 4.0000
v  -7.8457 -0.0000 8.0000
v  -3.3469 -0.0000 8.0000
v  -3.3469 7.9078 8.0000
v  -7.8457 7.9078 8.0000
v  -0.0933 -0.0000 8.0000
v  -0.0933 3.4144 8.0000
v  -11.0857 5.4197 4.0000
v  -11.0857 5.4197 8.0000
v  -11.0857 -0.0000 8.0000
v  -1.8264 -0.0000 4.0000
v  -1.8264 -0.0000 8.0000
v  -9.3662 -0.0000 8.0000
v  -0.5453 5.8930 8.0000
v  -1.8264 6.3475 8.0000
v  -10.6555 5.8930 4.0000
v  -9.3662 6.3475 4.0000
v  -9.3662 6.3475 8.0000
v  -10.6555 5.8930 8.0000
v  -7.8457 0.1368 8.0000
v  -3.3469 0.1368 8.0000
v  -7.6903 7.5392 8.0000
v  -3.5024 7.5392 8.0000
v  -0.4165 5.5998 8.0000
v  -0.3792 0.1368 8.0000
v  -10.7761 5.5998 8.0000
v  -10.8135 0.1368 8.0000
v  -1.8264 0.1368 8.0000
v  -9.3662 0.1368 8.0000
v  -2.0327 6.0048 8.0000
v  -9.1599 6.0048 8.0000
v  -7.8457 -0.0000 12.0000
v  -3.3469 -0.0000 12.0000
v  -3.3469 7.9078 12.0000
v  -7.8457 7.9078 12.0000
v  -0.0933 -0.0000 12.0000
v  -0.0933 3.4144 12.0000
v  -11.0857 5.4197 12.0000
v  -11.0857 -0.0000 12.0000
v  -1.8264 -0.0000 12.0000
v  -9.3662 -0.0000 12.0000
v  -0.5453 5.8930 12.0000
v  -1.8264 6.3475 12.0000
v  -9.3662 6.3475 12.0000
v  -10.6555 5.8930 12.0000
v  -7.8457 0.1368 12.0000
v  -3.3469 0.1368 12.0000
v  -7.6903 7.5392 12.0000
v  -3.5024 7.5392 12.0000
v  -0.4165 5.5998 12.0000
v  -0.3792 0.1368 12.0000
v  -10.7761 5.5998 12.0000
v  -10.8135 0.1368 12.0000
v  -1.8264 0.1368 12.0000
v  -9.3662 0.1368 12.0000
v  -2.0327 6.0048 12.0000
v  -9.1599 6.0048 12.0000
v  -3.3469 -0.0000 16.0000
v  -7.8457 -0.0000 16.0000
v  -3.3469 7.9078 16.0000
v  -7.8457 7.9078 16.0000
v  -0.0933 -0.0000 16.0000
v  -0.0933 3.4144 16.0000
v  -11.0857 -0.0000 16.0000
v  -11.0857 5.4197 16.0000
v  -1.8264 -0.0000 16.0000
v  -9.3662 -0.0000 16.0000
v  -0.5453 5.8930 16.0000
v  -1.8264 6.3475 16.0000
v  -10.6555 5.8930 16.0000
v  -9.3662 6.3475 16.0000
v  -3.3469 0.1368 15.8107
v  -7.8457 0.1368 15.8107
v  -7.6903 7.5392 15.8107
v  -3.5024 7.5392 15.8107
v  -0.4165 5.5998 15.8107
v  -0.3792 0.1368 15.8107
v  -10.8135 0.1368 15.8107
v  -10.7761 5.5998 15.8107
v  -1.8264 0.1368 15.8107
v  -9.3662 0.1368 15.8107
v  -2.0327 6.0048 15.8107
v  -9.1599 6.0048 15.8107
v  -0.0933 5.4197 16.0000
v  -0.0933 5.4197 8.0000
v  -0.0933 5.4197 12.0000
v  -9.3662 0.0000 -1.3473
v  -0.5453 5.8930 -1.3473
v  -0.0933 5.4197 -1.3473
v  -0.0933 3.4144 -1.3473
# 258 vertices

vn -0.0000 -0.7071 -0.7071
vn 0.0000 -0.7071 -0.7071
vn 0.0000 -1.0000 -0.0000
vn -0.0000 -1.0000 -0.0000
vn 0.3886 0.9214 0.0000
vn -0.3886 0.9214 0.0000
vn -0.3020 0.7161 -0.6292
vn 0.3021 0.7161 -0.6292
vn 0.7071 -0.7071 -0.0000
vn 1.0000 0.0000 0.0000
vn 0.7071 0.0000 -0.7071
vn 0.5774 -0.5774 -0.5774
vn -0.5774 -0.5774 -0.5774
vn -0.7211 0.2787 -0.6342
vn -0.9327 0.3605 -0.0000
vn -0.7071 -0.7071 -0.0000
vn 0.5436 0.8394 0.0000
vn 0.5393 0.8421 0.0000
vn 0.3493 0.5455 -0.7619
vn 0.4091 0.6317 -0.6585
vn -0.4174 0.6288 -0.6560
vn -0.3487 0.5456 -0.7621
vn -0.5385 0.8426 0.0000
vn -0.5530 0.8332 -0.0000
vn -0.0000 1.0000 0.0000
vn -0.0000 0.7071 0.7071
vn 0.0000 0.7071 0.7071
vn 0.3054 -0.7154 0.6285
vn 0.3926 -0.9197 -0.0000
vn -0.3926 -0.9197 -0.0000
vn -0.3054 -0.7154 0.6285
vn -0.6337 -0.4981 0.5918
vn -0.7863 -0.6179 -0.0000
vn -0.7095 0.7047 0.0000
vn -0.5796 0.5755 0.5769
vn 0.7863 -0.6179 -0.0000
vn 0.6337 -0.4981 0.5918
vn 0.5796 0.5755 0.5769
vn 0.7095 0.7047 0.0000
vn -0.3174 -0.5464 0.7751
vn -0.5023 -0.8647 -0.0000
vn 0.5023 -0.8647 -0.0000
vn 0.3174 -0.5464 0.7751
vn 0.7192 0.2882 -0.6322
vn 0.9282 0.3720 0.0000
vn -0.9328 0.3605 -0.0000
vn -0.7094 0.7048 0.0000
vn 0.7863 -0.6178 -0.0000
vn -0.5530 0.8332 0.0000
vn -0.6068 -0.7948 -0.0000
vn -0.4485 0.8938 0.0000
vn -0.9327 0.3605 0.0000
vn 0.4472 -0.8944 -0.0000
vn -0.2431 -0.9700 -0.0000
vn -0.3886 0.9214 -0.0000
vn 1.0000 -0.0000 0.0000
vn 0.5436 0.8394 -0.0000
vn 0.5436 0.8393 0.0000
vn 0.0000 1.0000 0.0000
vn 0.3926 -0.9197 0.0000
vn 0.7096 0.7046 0.0000
vn -0.6067 -0.7949 -0.0000
vn -0.5384 0.8427 0.0000
vn -0.7862 -0.6180 -0.0000
vn 0.7862 -0.6180 -0.0000
vn 0.7094 0.7048 0.0000
vn 0.3886 0.9214 -0.0000
vn 0.7071 -0.7071 0.0000
vn 0.5435 0.8394 0.0000
vn -0.7863 -0.6178 -0.0000
vn -0.7095 0.7047 -0.0000
vn 0.7863 -0.6179 0.0000
vn -0.5023 -0.8647 0.0000
vn 0.5023 -0.8647 0.0000
vn -0.0000 -0.7071 0.7071
vn 0.0000 -0.7071 0.7071
vn 0.3021 0.7161 0.6292
vn -0.3021 0.7161 0.6292
vn 0.5774 -0.5774 0.5774
vn 0.7071 0.0000 0.7071
vn -0.5774 -0.5774 0.5774
vn -0.7211 0.2787 0.6343
vn 0.4091 0.6317 0.6585
vn 0.3493 0.5455 0.7618
vn -0.4174 0.6288 0.6560
vn -0.3486 0.5456 0.7621
vn 0.0000 0.7071 -0.7071
vn -0.0000 0.7071 -0.7071
vn 0.3054 -0.7154 -0.6285
vn -0.3054 -0.7154 -0.6285
vn -0.6337 -0.4981 -0.5918
vn -0.5794 0.5756 -0.5770
vn 0.5796 0.5755 -0.5769
vn 0.6337 -0.4981 -0.5918
vn -0.3174 -0.5464 -0.7751
vn 0.3174 -0.5464 -0.7751
vn 0.7192 0.2882 0.6322
# 97 vertex normals

vt 0.3992 1.0000 0.0000
vt 0.6008 1.0000 0.0000
vt 0.6008 0.0000 0.0000
vt 0.3992 0.0000 0.0000
vt 0.0000 0.0000 0.0000
vt 0.0000 0.6268 0.0000
vt 1.0000 0.6268 0.0000
vt 1.0000 0.0000 0.0000
vt 0.0000 0.9949 0.0000
vt 1.0000 0.9949 0.0000
vt 0.0000 1.0000 0.0000
vt 0.1975 1.0000 0.0000
vt 0.1975 0.0000 0.0000
vt 0.8025 0.0000 0.0000
vt 0.8025 1.0000 0.0000
vt 1.0000 1.0000 0.0000
vt 0.9967 0.0000 0.0000
vt 0.9967 1.0000 0.0000
vt 0.0033 1.0000 0.0000
vt 0.0033 0.0000 0.0000
vt 0.0166 1.0000 0.0000
vt 0.9905 -0.0000 0.0000
vt 0.9905 1.0000 0.0000
vt 0.0095 1.0000 0.0000
vt 0.0095 0.0000 0.0000
vt 0.6008 0.3250 0.0000
vt 0.3992 0.3250 0.0000
vt 0.6008 -0.3136 0.0000
vt 0.3992 -0.3136 0.0000
vt 0.6750 0.9949 0.0000
vt 0.6750 0.0000 0.0000
vt 0.1975 0.3250 0.0000
vt 0.0000 0.3250 0.0000
vt 0.8025 -0.3136 0.0000
vt 0.8025 0.3250 0.0000
vt 0.0033 0.3250 0.0000
vt 0.0095 0.3250 0.0000
vt 0.3992 0.6750 0.0000
vt 0.6008 0.6750 0.0000
vt 0.6750 0.6268 0.0000
vt 1.3136 0.9949 0.0000
vt 1.3136 -0.0000 0.0000
vt 0.1975 -0.3136 0.0000
vt 0.8025 0.6750 0.0000
vt 1.0000 0.6750 0.0000
vt 0.9967 0.6750 0.0000
vt 0.0033 -0.3136 0.0000
vt 0.9905 0.6750 0.0000
vt 0.0095 -0.3136 0.0000
vt 1.0074 1.0000 0.0000
vt 1.0074 0.0000 0.0000
vt -0.0074 -0.0000 0.0000
vt -0.0074 1.0000 0.0000
vt 0.3250 0.9949 0.0000
vt 0.3250 0.0000 0.0000
vt 0.1975 0.6750 0.0000
vt 0.0000 0.6750 0.0000
vt 1.0000 0.3250 0.0000
vt 1.0000 -0.3136 0.0000
vt 0.9967 0.3250 0.0000
vt 0.9967 -0.3136 0.0000
vt 0.0033 0.6750 0.0000
vt 0.9905 0.3250 0.0000
vt 0.9905 -0.3136 0.0000
vt 0.0095 0.6750 0.0000
vt -0.3136 0.9949 0.0000
vt 0.3250 0.6268 0.0000
vt -0.3136 0.6268 0.0000
vt -0.0000 -0.3136 0.0000
# 69 texture coords

o Object044
g Object044
usemtl wire_085028177
s 1
f 4/4/4 3/3/3 2/2/2 1/1/1 
f 8/2/8 7/1/7 6/4/6 5/3/5 
s 2
f 12/8/12 11/7/11 10/6/10 9/5/9 
f 16/8/16 15/10/15 14/9/14 13/5/13 
s 1
f 9/5/9 18/13/4 17/12/1 12/11/12 
f 18/13/4 4/4/4 1/1/1 17/12/1 
f 13/16/13 20/15/2 19/14/3 16/8/16 
f 20/15/2 2/2/2 3/3/3 19/14/3 
s 4
f 24/18/20 23/15/19 22/14/18 21/17/17 
f 23/15/19 8/2/8 5/3/5 22/14/18 
f 28/20/24 27/13/23 26/12/22 25/19/21 
f 27/13/23 6/4/6 7/1/7 26/12/22 
s 1
f 32/4/25 31/1/27 30/2/26 29/3/25 
f 36/2/31 35/3/30 34/4/29 33/1/28 
s 2
f 40/8/35 39/5/34 38/9/33 37/18/32 
f 44/8/39 43/5/38 42/9/37 41/10/36 
s 1
f 39/5/34 40/11/35 46/12/26 45/13/25 
f 45/13/25 46/12/26 31/1/27 32/4/25 
f 43/16/38 44/8/39 48/14/25 47/15/26 
f 47/15/26 48/14/25 29/3/25 30/2/26 
f 37/18/32 38/17/33 50/14/41 49/15/40 
s 2
f 49/15/40 50/14/41 35/3/30 36/2/31 
s 1
f 41/20/36 42/19/37 52/12/43 51/13/42 
s 2
f 51/13/42 52/12/43 33/1/28 34/4/29 
s 8
f 11/7/11 12/8/12 17/12/1 23/15/19 24/18/20 53/10/44 
f 17/12/1 1/1/1 8/2/8 23/15/19 
f 1/1/1 2/2/2 7/1/7 8/2/8 
f 2/2/2 20/11/2 26/16/22 7/1/7 
f 20/11/2 13/5/13 14/9/14 25/21/21 26/16/22 
s 4
f 43/16/38 47/15/26 52/12/43 42/9/37 
f 47/15/26 30/14/26 33/13/28 52/12/43 
f 30/14/26 31/17/27 36/20/31 33/13/28 
f 31/17/27 46/12/26 49/15/40 36/20/31 
f 46/12/26 40/8/35 37/18/32 49/15/40 
f 53/23/44 24/18/20 21/17/17 54/22/45 
f 15/25/15 28/20/24 25/19/21 14/24/14 
s 1
f 56/4/4 55/3/3 3/2/3 4/1/4 
f 5/2/5 6/1/6 58/4/6 57/3/5 
s 2
f 9/8/9 10/7/10 60/6/10 59/5/9 
f 62/8/16 61/10/46 15/9/15 16/5/16 
s 1
f 59/5/9 63/13/4 18/12/4 9/11/9 
f 63/13/4 56/4/4 4/1/4 18/12/4 
f 16/16/16 19/15/3 64/14/3 62/8/16 
f 19/15/3 3/2/3 55/3/3 64/14/3 
s 4
f 21/18/17 22/15/18 66/14/18 65/17/17 
f 22/15/18 5/2/5 57/3/5 66/14/18 
f 68/20/24 67/13/23 27/12/23 28/19/24 
f 67/13/23 58/4/6 6/1/6 27/12/23 
s 1
f 70/4/25 32/1/25 29/2/25 69/3/25 
f 35/2/30 72/3/30 71/4/29 34/1/29 
s 2
f 39/8/34 74/5/47 73/9/33 38/10/33 
f 76/8/39 44/5/39 41/9/36 75/10/48 
s 1
f 74/5/47 39/11/34 45/12/25 77/13/25 
f 77/13/25 45/12/25 32/1/25 70/4/25 
f 44/16/39 76/8/39 78/14/25 48/15/25 
f 48/15/25 78/14/25 69/3/25 29/2/25 
f 38/18/33 73/17/33 79/14/41 50/15/41 
s 2
f 50/15/41 79/14/41 72/3/30 35/2/30 
s 1
f 75/20/48 41/19/36 51/12/42 80/13/42 
s 2
f 80/13/42 51/12/42 34/1/29 71/4/29 
s 4
f 54/23/45 21/18/17 65/17/17 81/22/45 
f 61/25/46 68/20/24 28/19/24 15/24/15 
s 1
f 83/4/4 82/3/3 55/2/3 56/1/4 
f 57/2/5 58/1/6 85/4/6 84/3/5 
s 2
f 59/8/9 60/7/10 87/6/10 86/5/9 
f 89/8/16 88/10/46 61/9/46 62/5/16 
s 1
f 86/5/9 90/13/4 63/12/4 59/11/9 
f 90/13/4 83/4/4 56/1/4 63/12/4 
f 62/16/16 64/15/3 91/14/3 89/8/16 
f 64/15/3 55/2/3 82/3/3 91/14/3 
s 4
f 65/18/17 66/15/18 93/14/18 92/17/17 
f 66/15/18 57/2/5 84/3/5 93/14/18 
f 95/20/49 94/13/23 67/12/23 68/19/24 
f 94/13/23 85/4/6 58/1/6 67/12/23 
s 1
f 97/4/25 70/1/25 69/2/25 96/3/25 
f 72/2/30 99/3/30 98/4/29 71/1/29 
s 2
f 74/8/47 101/5/51 100/9/50 73/10/33 
f 103/8/39 76/5/39 75/9/48 102/10/36 
s 1
f 101/5/51 74/11/47 77/12/25 104/13/25 
f 104/13/25 77/12/25 70/1/25 97/4/25 
f 76/16/39 103/8/39 105/14/25 78/15/25 
f 78/15/25 105/14/25 96/3/25 69/2/25 
f 73/18/33 100/17/50 106/14/41 79/15/41 
s 2
f 79/15/41 106/14/41 99/3/30 72/2/30 
s 1
f 102/20/36 75/19/48 80/12/42 107/13/42 
s 2
f 107/13/42 80/12/42 71/1/29 98/4/29 
s 4
f 81/23/45 65/18/17 92/17/17 108/22/45 
f 88/25/46 95/20/49 68/19/24 61/24/46 
s 1
f 110/27/4 109/26/3 82/2/3 83/1/4 
f 114/26/5 113/27/6 112/29/6 111/28/5 
s 2
f 116/31/16 115/30/52 88/9/46 89/5/16 
s 1
f 118/33/53 117/32/4 90/12/4 86/11/9 
f 117/32/4 110/27/4 83/1/4 90/12/4 
s 4
f 120/35/18 114/26/5 111/28/5 119/34/18 
f 122/36/49 121/32/23 94/12/23 95/19/49 
f 121/32/23 113/27/6 85/1/6 94/12/23 
s 1
f 124/4/25 97/1/25 96/2/25 123/3/25 
f 99/2/30 126/3/30 125/4/29 98/1/29 
s 2
f 128/8/39 103/5/39 102/9/36 127/10/36 
s 1
f 130/5/25 101/11/51 104/12/25 129/13/25 
f 129/13/25 104/12/25 97/1/25 124/4/25 
f 103/16/39 128/8/39 131/14/25 105/15/25 
f 105/15/25 131/14/25 123/3/25 96/2/25 
f 100/18/50 133/17/54 132/14/41 106/15/41 
s 2
f 106/15/41 132/14/41 126/3/30 99/2/30 
s 1
f 127/20/36 102/19/36 107/12/42 134/13/42 
s 2
f 134/13/42 107/12/42 98/1/29 125/4/29 
s 4
f 115/37/52 122/36/49 95/19/49 88/24/46 
s 1
f 136/29/4 135/28/3 109/26/3 110/27/4 
f 111/39/5 112/38/6 138/4/55 137/3/5 
s 2
f 142/31/53 141/40/56 140/6/10 139/5/9 
f 144/42/16 143/41/15 115/30/52 116/31/16 
s 1
f 145/43/4 136/29/4 110/27/4 117/32/4 
f 144/45/16 148/44/3 147/14/3 146/8/16 
f 148/44/3 135/39/3 149/3/3 147/14/3 
s 4
f 152/46/58 119/44/18 151/14/18 150/17/57 
f 119/44/18 111/39/5 137/3/5 151/14/18 
f 154/47/49 153/43/23 121/32/23 122/36/49 
s 1
f 156/4/59 124/1/25 123/2/25 155/3/25 
f 126/2/30 158/3/30 157/4/60 125/1/29 
s 2
f 160/8/61 128/5/39 127/9/36 159/10/48 
s 1
f 162/5/51 130/11/25 129/12/25 161/13/25 
f 161/13/25 129/12/25 124/1/25 156/4/59 
f 128/16/39 160/8/61 163/14/25 131/15/25 
f 131/15/25 163/14/25 155/3/25 123/2/25 
f 133/18/54 165/17/62 164/14/41 132/15/41 
s 2
f 132/15/41 164/14/41 158/3/30 126/2/30 
s 1
f 159/20/48 127/19/36 134/12/42 166/13/42 
s 2
f 166/13/42 134/12/42 125/1/29 157/4/60 
s 4
f 168/48/45 152/46/58 150/17/57 167/22/45 
f 143/49/15 154/47/49 122/36/49 115/37/52 
s 1
f 171/4/4 170/3/3 149/2/3 169/1/4 
f 137/2/5 138/1/55 173/4/6 172/3/5 
s 2
f 139/8/9 140/7/10 175/6/10 174/5/9 
f 178/8/16 177/10/46 176/9/15 146/5/16 
s 1
f 174/5/9 180/13/4 179/12/4 139/11/9 
f 180/13/4 171/4/4 169/1/4 179/12/4 
f 146/16/16 147/15/3 181/14/3 178/8/16 
f 147/15/3 149/2/3 170/3/3 181/14/3 
s 4
f 150/18/57 151/15/18 183/14/18 182/17/17 
f 151/15/18 137/2/5 172/3/5 183/14/18 
f 187/20/49 186/13/63 185/12/23 184/19/24 
f 186/13/63 173/4/6 138/1/55 185/12/23 
s 1
f 189/4/25 156/1/59 155/2/25 188/3/25 
f 158/2/30 191/3/30 190/4/29 157/1/60 
s 2
f 162/8/51 193/5/47 192/9/64 165/10/62 
f 195/8/66 160/5/61 159/9/48 194/10/65 
s 1
f 193/5/47 162/11/51 161/12/25 196/13/25 
f 196/13/25 161/12/25 156/1/59 189/4/25 
f 160/16/61 195/8/66 197/14/25 163/15/25 
f 163/15/25 197/14/25 188/3/25 155/2/25 
f 165/18/62 192/17/64 198/14/41 164/15/41 
s 2
f 164/15/41 198/14/41 191/3/30 158/2/30 
s 1
f 194/20/65 159/19/48 166/12/42 199/13/42 
s 2
f 199/13/42 166/12/42 157/1/60 190/4/29 
s 1
f 201/4/4 200/3/3 170/2/3 171/1/4 
f 172/2/5 173/1/6 203/4/55 202/3/67 
s 2
f 174/8/9 175/7/10 205/6/10 204/5/68 
f 207/8/16 206/10/46 177/9/46 178/5/16 
s 1
f 204/5/68 208/13/4 180/12/4 174/11/9 
f 208/13/4 201/4/4 171/1/4 180/12/4 
f 178/16/16 181/15/3 209/14/3 207/8/16 
f 181/15/3 170/2/3 200/3/3 209/14/3 
s 4
f 182/18/17 183/15/18 211/14/18 210/17/69 
f 183/15/18 172/2/5 202/3/67 211/14/18 
f 213/20/49 212/13/23 186/12/63 187/19/49 
f 212/13/23 203/4/55 173/1/6 186/12/63 
s 1
f 215/4/25 189/1/25 188/2/25 214/3/25 
f 191/2/30 217/3/30 216/4/29 190/1/29 
s 2
f 193/8/47 219/5/71 218/9/70 192/10/64 
f 221/8/66 195/5/66 194/9/65 220/10/72 
s 1
f 219/5/71 193/11/47 196/12/25 222/13/25 
f 222/13/25 196/12/25 189/1/25 215/4/25 
f 195/16/66 221/8/66 223/14/25 197/15/25 
f 197/15/25 223/14/25 214/3/25 188/2/25 
f 192/18/64 218/17/70 224/14/73 198/15/41 
s 2
f 198/15/41 224/14/73 217/3/30 191/2/30 
s 1
f 220/20/72 194/19/65 199/12/42 225/13/74 
s 2
f 225/13/74 199/12/42 190/1/29 216/4/29 
s 1
f 227/2/76 200/3/3 201/4/4 226/1/75 
f 203/4/55 229/1/78 228/2/77 202/3/67 
s 2
f 205/6/10 231/7/80 230/8/79 204/5/68 
f 233/9/82 206/10/46 207/8/16 232/5/81 
s 1
f 234/12/75 208/13/4 204/5/68 230/11/79 
f 226/1/75 201/4/4 208/13/4 234/12/75 
f 209/14/3 235/15/76 232/16/81 207/8/16 
f 200/3/3 227/2/76 235/15/76 209/14/3 
s 4
f 211/14/18 237/15/84 236/18/83 210/17/69 
f 202/3/67 228/2/77 237/15/84 211/14/18 
f 239/12/86 212/13/23 213/20/49 238/19/85 
f 229/1/78 203/4/55 212/13/23 239/12/86 
s 1
f 241/2/88 240/1/87 215/4/25 214/3/25 
f 216/4/29 217/3/30 243/2/90 242/1/89 
s 2
f 218/9/70 219/5/71 245/8/92 244/10/91 
f 247/9/94 246/5/93 221/8/66 220/10/72 
s 1
f 248/12/87 245/11/92 219/5/71 222/13/25 
f 240/1/87 248/12/87 222/13/25 215/4/25 
f 223/14/25 221/8/66 246/16/93 249/15/87 
f 214/3/25 223/14/25 249/15/87 241/2/88 
f 224/14/73 218/17/70 244/18/91 250/15/95 
s 2
f 217/3/30 224/14/73 250/15/95 243/2/90 
s 1
f 251/12/96 247/19/94 220/20/72 225/13/74 
s 2
f 242/1/89 251/12/96 225/13/74 216/4/29 
s 8
f 237/15/84 234/12/75 230/8/79 231/7/80 252/10/97 236/18/83 
f 228/2/77 226/1/75 234/12/75 237/15/84 
f 229/1/78 227/2/76 226/1/75 228/2/77 
f 239/16/86 235/11/76 227/2/76 229/1/78 
f 238/21/85 233/9/82 232/5/81 235/11/76 239/16/86 
s 4
f 251/12/96 249/15/87 246/16/93 247/9/94 
f 242/13/89 241/14/88 249/15/87 251/12/96 
f 243/20/90 240/17/87 241/14/88 242/13/89 
f 250/15/95 248/12/87 240/17/87 243/20/90 
f 244/18/91 245/8/92 248/12/87 250/15/95 
f 167/23/45 150/18/57 182/17/17 253/22/45 
f 177/25/46 187/20/49 184/19/24 176/24/15 
f 253/23/45 182/18/17 210/17/69 254/22/45 
f 206/25/46 213/20/49 187/19/49 177/24/46 
f 254/51/45 210/17/69 236/18/83 252/50/97 
f 233/53/82 238/19/85 213/20/49 206/52/46 
s 2
f 11/7/11 53/10/44 54/9/45 10/6/10 
f 10/7/10 54/10/45 81/9/45 60/6/10 
f 60/7/10 81/10/45 108/9/45 87/6/10 
f 141/40/56 168/30/45 167/9/45 140/6/10 
f 140/7/10 167/10/45 253/9/45 175/6/10 
f 175/7/10 253/10/45 254/9/45 205/6/10 
f 205/6/10 254/9/45 252/10/97 231/7/80 
s 1
f 136/38/4 169/4/4 149/3/3 135/39/3 
s 2
f 144/55/16 146/8/16 176/10/15 143/54/15 
s 1
f 142/57/53 139/5/9 179/13/4 145/56/4 
f 145/56/4 179/13/4 169/4/4 136/38/4 
f 144/59/16 116/58/16 255/35/3 148/34/3 
f 148/34/3 255/35/3 109/26/3 135/28/3 
s 4
f 152/61/58 256/60/69 120/35/18 119/34/18 
f 154/62/49 184/20/24 185/13/23 153/56/23 
f 153/56/23 185/13/23 138/4/55 112/38/6 
f 168/64/45 257/63/45 256/60/69 152/61/58 
f 143/65/15 176/25/15 184/20/24 154/62/49 
s 2
f 141/68/56 258/67/10 257/54/45 168/66/45 
s 1
f 114/26/5 84/2/5 85/1/6 113/27/6 
s 2
f 118/55/53 86/8/9 87/7/10 258/67/10 
s 1
f 118/33/53 142/69/53 145/43/4 117/32/4 
f 116/58/16 89/16/16 91/15/3 255/35/3 
f 255/35/3 91/15/3 82/2/3 109/26/3 
s 4
f 256/60/69 92/18/17 93/15/18 120/35/18 
f 120/35/18 93/15/18 84/2/5 114/26/5 
f 121/32/23 153/43/23 112/29/6 113/27/6 
f 257/63/45 108/23/45 92/18/17 256/60/69 
s 2
f 258/67/10 87/7/10 108/10/45 257/54/45 
# 248 polygons

