# 3ds Max Wavefront OBJ Exporter v0.97b - (c)2007 guruware
# File Created: 27.03.2018 15:20:13

mtllib borraccia.mtl

#
# object borraccia
#

v  -0.0991 0.0097 0.0387
v  -0.1230 0.0194 0.0387
v  -0.0886 0.0194 -0.0459
v  -0.0712 0.0097 -0.0285
v  -0.0040 0.0194 -0.0803
v  -0.0040 0.0097 -0.0564
v  0.0806 0.0194 -0.0459
v  0.0633 0.0097 -0.0285
v  0.1102 0.0199 0.0387
v  0.0911 0.0097 0.0387
v  0.0806 0.0194 0.1233
v  0.0633 0.0097 0.1060
v  -0.0040 0.0194 0.1578
v  -0.0040 0.0097 0.1338
v  -0.0886 0.0194 0.1233
v  -0.0712 0.0097 0.1060
v  -0.1385 0.0375 0.0387
v  -0.0991 0.0375 -0.0564
v  -0.0040 0.0375 -0.0958
v  0.0911 0.0375 -0.0564
v  0.1219 0.0375 0.0387
v  0.0911 0.0375 0.1338
v  -0.0040 0.0375 0.1732
v  -0.0991 0.0375 0.1338
v  -0.1398 0.4550 0.0387
v  -0.1004 0.4550 -0.0564
v  -0.0053 0.4550 -0.0958
v  0.0898 0.4550 -0.0564
v  0.1206 0.4550 0.0387
v  0.0898 0.4550 0.1338
v  -0.0053 0.4550 0.1732
v  -0.1004 0.4550 0.1338
v  -0.0040 0.0097 0.0387
v  -0.1492 0.4684 0.0402
v  -0.1334 0.5003 0.0388
v  -0.0959 0.5003 -0.0518
v  -0.1061 0.4684 -0.0640
v  -0.0053 0.5003 -0.0894
v  -0.0066 0.4684 -0.1051
v  0.0854 0.5003 -0.0519
v  0.0978 0.4684 -0.0616
v  0.1237 0.5000 0.0388
v  0.1305 0.4666 0.0378
v  0.0854 0.5003 0.1295
v  0.0957 0.4684 0.1415
v  -0.0053 0.5003 0.1670
v  -0.0039 0.4684 0.1827
v  -0.0959 0.5003 0.1294
v  -0.1080 0.4684 0.1396
v  -0.1050 0.5232 0.0388
v  -0.0758 0.5232 -0.0318
v  -0.0053 0.5232 -0.0610
v  0.0653 0.5232 -0.0318
v  0.0944 0.5232 0.0388
v  0.0653 0.5232 0.1094
v  -0.0053 0.5232 0.1386
v  -0.0758 0.5232 0.1094
v  -0.0580 0.5330 0.0388
v  -0.0425 0.5330 0.0015
v  -0.0053 0.5330 -0.0139
v  0.0320 0.5330 0.0015
v  0.0475 0.5330 0.0388
v  0.0320 0.5330 0.0761
v  -0.0053 0.5330 0.0915
v  -0.0425 0.5330 0.0761
v  -0.0053 0.5330 0.0388
v  -0.0174 0.4173 -0.1015
v  -0.0958 0.4173 -0.0690
v  0.1274 0.4173 0.0274
v  0.1021 0.4173 -0.0510
v  0.0069 0.4173 0.1791
v  0.0853 0.4173 0.1466
v  -0.1455 0.4173 0.0510
v  -0.1131 0.4173 0.1294
v  -0.1363 0.4069 0.0471
v  -0.1038 0.4069 0.1255
v  0.0031 0.4069 0.1698
v  0.0815 0.4069 0.1373
v  0.1179 0.4069 0.0304
v  0.0925 0.4069 -0.0480
v  -0.0136 0.4069 -0.0923
v  -0.0920 0.4069 -0.0598
v  -0.0298 0.4465 -0.0647
v  -0.0298 0.4897 -0.0647
v  -0.0298 0.4876 -0.1059
v  -0.0298 0.4428 -0.0996
v  0.0169 0.4391 -0.1237
v  0.0193 0.4851 -0.1359
v  0.0193 0.4876 -0.1059
v  0.0193 0.4428 -0.0996
v  -0.0053 0.4032 -0.0647
v  -0.0298 0.4032 -0.0647
v  -0.0298 0.3977 -0.0839
v  -0.0053 0.3977 -0.0943
v  -0.0053 0.4391 -0.1237
v  -0.0274 0.4391 -0.1237
v  -0.0298 0.4851 -0.1359
v  -0.0053 0.4851 -0.1359
v  -0.0053 0.5401 -0.1318
v  -0.0298 0.5401 -0.1318
v  -0.0298 0.5509 -0.1055
v  -0.0053 0.5509 -0.1055
v  -0.0053 0.5298 -0.0139
v  -0.0298 0.5298 -0.0139
v  -0.0298 0.4897 -0.0139
v  -0.0053 0.4897 -0.0139
v  -0.0298 0.5276 -0.0652
v  -0.0298 0.5524 -0.0656
v  -0.0298 0.5192 -0.1048
v  -0.0261 0.3977 -0.1099
v  0.0193 0.5188 -0.1403
v  0.0193 0.5401 -0.1318
v  0.0193 0.5509 -0.1055
v  0.0193 0.5192 -0.1048
v  0.0193 0.4465 -0.0647
v  0.0193 0.4032 -0.0647
v  0.0193 0.3977 -0.0839
v  -0.0053 0.5188 -0.1403
v  -0.0298 0.5188 -0.1403
v  0.0156 0.3977 -0.1099
v  -0.0053 0.3977 -0.1099
v  0.0193 0.5298 -0.0139
v  0.0193 0.5464 -0.0330
v  -0.0053 0.5464 -0.0330
v  0.0138 0.2777 -0.1033
v  0.0171 0.2777 -0.0839
v  -0.0053 0.2777 -0.0943
v  -0.0053 0.2777 -0.1033
v  -0.0053 0.5524 -0.0656
v  0.0193 0.5524 -0.0656
v  0.0193 0.4897 -0.0139
v  -0.0298 0.5464 -0.0330
v  0.0193 0.4897 -0.0647
v  -0.0276 0.2777 -0.0839
v  -0.0243 0.2777 -0.1033
v  0.0193 0.5276 -0.0652
# 136 vertices

vn -0.2364 -0.9717 0.0009
vn -0.6202 -0.7845 -0.0013
vn -0.4442 -0.7791 -0.4423
vn -0.1627 -0.9729 -0.1641
vn 0.0013 -0.7845 -0.6201
vn -0.0010 -0.9717 -0.2364
vn 0.4641 -0.7751 -0.4287
vn 0.1738 -0.9718 -0.1593
vn 0.6942 -0.7197 -0.0092
vn 0.2932 -0.9560 -0.0111
vn 0.4596 -0.7750 0.4338
vn 0.1638 -0.9726 0.1647
vn -0.0012 -0.7836 0.6212
vn 0.0006 -0.9719 0.2355
vn -0.4427 -0.7790 0.4441
vn -0.1643 -0.9728 0.1635
vn -0.9465 -0.3227 -0.0009
vn -0.6715 -0.3150 -0.6707
vn 0.0013 -0.3212 -0.9470
vn 0.6965 -0.3108 -0.6467
vn 0.9613 -0.2755 -0.0030
vn 0.6960 -0.3080 0.6486
vn -0.0003 -0.3200 0.9474
vn -0.6704 -0.3149 0.6719
vn -0.8664 -0.2378 -0.4391
vn -0.9325 -0.2310 -0.2777
vn 0.4441 -0.2362 -0.8643
vn 0.3087 -0.2249 -0.9242
vn 0.8562 -0.2694 0.4409
vn 0.9425 -0.2323 0.2404
vn -0.4433 -0.2387 0.8640
vn -0.2742 -0.2324 0.9332
vn 0.0000 -1.0000 -0.0000
vn -0.9932 0.0811 -0.0834
vn -0.7993 0.6009 -0.0058
vn -0.5697 0.6012 -0.5604
vn -0.7618 0.0828 -0.6425
vn 0.0054 0.6001 -0.7999
vn 0.0846 0.0797 -0.9932
vn 0.5591 0.6000 -0.5722
vn 0.6657 0.0731 -0.7426
vn 0.8668 0.4980 0.0247
vn 0.9918 -0.0590 0.1136
vn 0.5868 0.5909 0.5536
vn 0.7811 0.0849 0.6187
vn -0.0064 0.5998 0.8001
vn -0.0853 0.0786 0.9933
vn -0.5617 0.6003 0.5693
vn -0.6417 0.0813 0.7626
vn -0.4730 0.8811 0.0000
vn -0.3346 0.8809 -0.3348
vn -0.0003 0.8811 -0.4730
vn 0.3346 0.8811 -0.3342
vn 0.4688 0.8833 -0.0010
vn 0.3335 0.8814 0.3345
vn -0.0002 0.8811 0.4729
vn -0.3347 0.8809 0.3347
vn -0.1278 0.9918 -0.0001
vn -0.0902 0.9918 -0.0902
vn -0.0001 0.9918 -0.1275
vn 0.0901 0.9918 -0.0903
vn 0.1281 0.9918 0.0002
vn 0.0903 0.9918 0.0903
vn -0.0000 0.9918 0.1275
vn -0.0901 0.9918 0.0903
vn 0.0000 1.0000 -0.0000
vn 0.1895 -0.3469 -0.9186
vn -0.7700 -0.3545 -0.5305
vn 0.8979 -0.3486 0.2688
vn 0.5929 -0.3542 -0.7232
vn -0.1912 -0.3489 0.9174
vn 0.7681 -0.3561 0.5322
vn -0.9192 -0.3476 -0.1848
vn -0.5274 -0.3558 0.7716
vn -0.7641 -0.6361 -0.1076
vn -0.4541 -0.6484 0.6110
vn -0.1102 -0.6398 0.7606
vn 0.6119 -0.6461 0.4563
vn 0.7512 -0.6379 0.1694
vn 0.5037 -0.6452 -0.5745
vn 0.1061 -0.6368 -0.7637
vn -0.6105 -0.6438 -0.4612
vn -1.0000 0.0000 -0.0000
vn -0.9990 -0.0213 -0.0404
vn 0.6680 -0.2253 -0.7093
vn 0.6974 -0.1539 -0.6999
vn 0.9999 -0.0103 -0.0069
vn 0.9983 -0.0194 -0.0541
vn 0.0219 -0.9789 0.2030
vn -0.7622 -0.6223 0.1782
vn -0.8297 -0.4481 0.3329
vn 0.0104 -0.5627 0.8266
vn 0.0000 -0.2864 -0.9581
vn -0.6574 -0.2354 -0.7158
vn -0.6933 -0.1444 -0.7060
vn 0.0000 -0.1933 -0.9811
vn 0.0000 0.7036 -0.7106
vn -0.6289 0.5470 -0.5525
vn -0.6697 0.7257 -0.1574
vn 0.0000 0.9773 -0.2120
vn 0.0000 0.4147 0.9099
vn -0.6246 0.3239 0.7106
vn -0.7071 0.0000 0.7071
vn 0.0000 0.0000 1.0000
vn -0.6833 0.7283 0.0527
vn -0.6793 -0.1560 -0.7171
vn 0.6545 0.0942 -0.7501
vn 0.6289 0.5470 -0.5525
vn 0.6697 0.7257 -0.1574
vn 1.0000 0.0000 -0.0000
vn 0.7481 -0.6468 0.1482
vn 0.8183 -0.4483 0.3597
vn 0.0000 0.1246 -0.9922
vn -0.6545 0.0942 -0.7501
vn 0.6834 -0.1458 -0.7154
vn 0.0000 -0.1872 -0.9823
vn 0.6246 0.3239 0.7106
vn 0.6523 0.6829 0.3288
vn 0.0000 0.9010 0.4338
vn 0.5194 -0.6059 -0.6026
vn 0.4970 -0.5579 0.6646
vn 0.0019 -0.8144 0.5803
vn 0.0000 -0.7263 -0.6874
vn 0.0000 0.9974 0.0722
vn 0.6833 0.7283 0.0527
vn 0.7071 0.0000 0.7071
vn -0.6523 0.6829 0.3288
vn -0.4991 -0.5584 0.6626
vn -0.5211 -0.6047 -0.6023
# 129 vertex normals

vt 0.3789 0.7137 0.0000
vt 0.3833 0.7137 0.0000
vt 0.3778 0.7268 0.0000
vt 0.3747 0.7237 0.0000
vt 0.3647 0.7323 0.0000
vt 0.3647 0.7279 0.0000
vt 0.3515 0.7268 0.0000
vt 0.3546 0.7237 0.0000
vt 0.3461 0.7137 0.0000
vt 0.3504 0.7137 0.0000
vt 0.3515 0.7005 0.0000
vt 0.3546 0.7036 0.0000
vt 0.3647 0.6951 0.0000
vt 0.3647 0.6994 0.0000
vt 0.3778 0.7005 0.0000
vt 0.3747 0.7036 0.0000
vt 0.0584 0.9275 0.1193
vt 0.0584 0.9299 0.1295
vt 0.0416 0.9299 0.1310
vt 0.0415 0.9275 0.1208
vt 0.0252 0.9299 0.1346
vt 0.0251 0.9275 0.1244
vt 0.0092 0.9299 0.1381
vt 0.0091 0.9275 0.1278
vt 0.1389 0.9275 0.1278
vt 0.1390 0.9299 0.1381
vt 0.1233 0.9299 0.1308
vt 0.1233 0.9275 0.1292
vt 0.1076 0.9299 0.1381
vt 0.1076 0.9275 0.1278
vt 0.0916 0.9299 0.1346
vt 0.0917 0.9275 0.1244
vt 0.0752 0.9299 0.1310
vt 0.0752 0.9275 0.1208
vt 0.0584 0.9924 0.1308
vt 0.0417 0.9924 0.1319
vt 0.0254 0.9924 0.1346
vt 0.0093 0.9924 0.1371
vt 0.1233 0.9924 0.1295
vt 0.1391 0.9924 0.1371
vt 0.1074 0.9924 0.1371
vt 0.0914 0.9924 0.1346
vt 0.0750 0.9924 0.1319
vt 0.3647 0.7137 0.0000
vt 0.3521 0.7502 0.0000
vt 0.3545 0.7504 0.0000
vt 0.3601 0.7640 0.0000
vt 0.3586 0.7658 0.0000
vt 0.3737 0.7696 0.0000
vt 0.3735 0.7719 0.0000
vt 0.3872 0.7640 0.0000
vt 0.3891 0.7654 0.0000
vt 0.3930 0.7504 0.0000
vt 0.3940 0.7506 0.0000
vt 0.3872 0.7368 0.0000
vt 0.3888 0.7350 0.0000
vt 0.3737 0.7312 0.0000
vt 0.3739 0.7289 0.0000
vt 0.3601 0.7368 0.0000
vt 0.3583 0.7353 0.0000
vt 0.3587 0.7504 0.0000
vt 0.3631 0.7610 0.0000
vt 0.3737 0.7653 0.0000
vt 0.3842 0.7610 0.0000
vt 0.3886 0.7504 0.0000
vt 0.3842 0.7398 0.0000
vt 0.3737 0.7355 0.0000
vt 0.3631 0.7398 0.0000
vt 0.3658 0.7504 0.0000
vt 0.3681 0.7560 0.0000
vt 0.3737 0.7583 0.0000
vt 0.3793 0.7560 0.0000
vt 0.3816 0.7504 0.0000
vt 0.3793 0.7448 0.0000
vt 0.3737 0.7425 0.0000
vt 0.3681 0.7448 0.0000
vt 0.3737 0.7504 0.0000
vt 0.3475 0.7802 0.0000
vt 0.3592 0.7802 0.0000
vt 0.3607 0.7879 0.0000
vt 0.3458 0.7879 0.0000
vt 0.3721 0.7737 0.0000
vt 0.3838 0.7737 0.0000
vt 0.3854 0.7814 0.0000
vt 0.3705 0.7811 0.0000
vt 0.3717 0.7835 0.0000
vt 0.3834 0.7835 0.0000
vt 0.3850 0.7911 0.0000
vt 0.3700 0.7911 0.0000
vt 0.3478 0.7903 0.0000
vt 0.3595 0.7903 0.0000
vt 0.3610 0.7980 0.0000
vt 0.3461 0.7980 0.0000
vt 0.4007 0.7871 0.0000
vt 0.3851 0.7871 0.0000
vt 0.3862 0.7851 0.0000
vt 0.4005 0.7851 0.0000
vt 0.3522 0.7448 0.0000
vt 0.3518 0.7487 0.0000
vt 0.3515 0.7465 0.0000
vt 0.3516 0.7428 0.0000
vt 0.3472 0.7888 0.0000
vt 0.3589 0.7888 0.0000
vt 0.3528 0.7472 0.0000
vt 0.3529 0.7430 0.0000
vt 0.3539 0.7412 0.0000
vt 0.3536 0.7450 0.0000
vt 0.4011 0.7848 0.0000
vt 0.3855 0.7848 0.0000
vt 0.3867 0.7828 0.0000
vt 0.4009 0.7828 0.0000
vt 0.3569 0.7341 0.0000
vt 0.3554 0.7416 0.0000
vt 0.3546 0.7393 0.0000
vt 0.3559 0.7322 0.0000
vt 0.3711 0.7819 0.0000
vt 0.3828 0.7819 0.0000
vt 0.3512 0.7424 0.0000
vt 0.3518 0.7348 0.0000
vt 0.3534 0.7335 0.0000
vt 0.3527 0.7406 0.0000
vt 0.4017 0.7820 0.0000
vt 0.3862 0.7822 0.0000
vt 0.3873 0.7802 0.0000
vt 0.4015 0.7802 0.0000
vt 0.3563 0.7339 0.0000
vt 0.3549 0.7412 0.0000
vt 0.3539 0.7391 0.0000
vt 0.3554 0.7321 0.0000
vt 0.3717 0.7722 0.0000
vt 0.3834 0.7722 0.0000
vt 0.3517 0.7425 0.0000
vt 0.3524 0.7349 0.0000
vt 0.3541 0.7336 0.0000
vt 0.3532 0.7407 0.0000
vt 0.3921 0.7696 0.0000
vt 0.3856 0.7696 0.0000
vt 0.3849 0.7676 0.0000
vt 0.3907 0.7676 0.0000
vt 0.3503 0.7599 0.0000
vt 0.3497 0.7675 0.0000
vt 0.3511 0.7655 0.0000
vt 0.3517 0.7583 0.0000
vt 0.3469 0.7787 0.0000
vt 0.3586 0.7787 0.0000
vt 0.3935 0.7470 0.0000
vt 0.3934 0.7391 0.0000
vt 0.3949 0.7376 0.0000
vt 0.3949 0.7449 0.0000
vt 0.3536 0.7620 0.0000
vt 0.3536 0.7685 0.0000
vt 0.3474 0.7682 0.0000
vt 0.3483 0.7615 0.0000
vt 0.4014 0.7627 0.0000
vt 0.4033 0.7696 0.0000
vt 0.3988 0.7700 0.0000
vt 0.3978 0.7633 0.0000
vt 0.3654 0.7884 0.0000
vt 0.3618 0.7883 0.0000
vt 0.3618 0.7864 0.0000
vt 0.3655 0.7858 0.0000
vt 0.3427 0.7373 0.0000
vt 0.3460 0.7373 0.0000
vt 0.3464 0.7442 0.0000
vt 0.3427 0.7442 0.0000
vt 0.4036 0.7563 0.0000
vt 0.3999 0.7563 0.0000
vt 0.3999 0.7524 0.0000
vt 0.4036 0.7524 0.0000
vt 0.3652 0.7944 0.0000
vt 0.3616 0.7943 0.0000
vt 0.3616 0.7888 0.0000
vt 0.3652 0.7889 0.0000
vt 0.3535 0.7742 0.0000
vt 0.3534 0.7779 0.0000
vt 0.3475 0.7777 0.0000
vt 0.3476 0.7729 0.0000
vt 0.3447 0.7609 0.0000
vt 0.3468 0.7548 0.0000
vt 0.3507 0.7548 0.0000
vt 0.4039 0.7746 0.0000
vt 0.4026 0.7778 0.0000
vt 0.3987 0.7795 0.0000
vt 0.3986 0.7747 0.0000
vt 0.3926 0.7638 0.0000
vt 0.3926 0.7573 0.0000
vt 0.3955 0.7565 0.0000
vt 0.3427 0.7493 0.0000
vt 0.3464 0.7493 0.0000
vt 0.3464 0.7525 0.0000
vt 0.3427 0.7525 0.0000
vt 0.3394 0.7373 0.0000
vt 0.3396 0.7312 0.0000
vt 0.3427 0.7312 0.0000
vt 0.4036 0.7387 0.0000
vt 0.4072 0.7387 0.0000
vt 0.4072 0.7415 0.0000
vt 0.4036 0.7415 0.0000
vt 0.3927 0.7912 0.0000
vt 0.3932 0.7883 0.0000
vt 0.3898 0.7899 0.0000
vt 0.3898 0.7912 0.0000
vt 0.3391 0.7442 0.0000
vt 0.4036 0.7464 0.0000
vt 0.4072 0.7464 0.0000
vt 0.4072 0.7524 0.0000
vt 0.3689 0.7889 0.0000
vt 0.3689 0.7944 0.0000
vt 0.3391 0.7525 0.0000
vt 0.3391 0.7493 0.0000
vt 0.3459 0.7312 0.0000
vt 0.3999 0.7415 0.0000
vt 0.3999 0.7387 0.0000
vt 0.3429 0.7678 0.0000
vt 0.3926 0.7703 0.0000
vt 0.3865 0.7883 0.0000
vt 0.3870 0.7912 0.0000
vt 0.3999 0.7464 0.0000
vt 0.3435 0.7761 0.0000
vt 0.3422 0.7729 0.0000
vt 0.3612 0.7745 0.0000
vt 0.3583 0.7770 0.0000
vt 0.3612 0.7685 0.0000
vt 0.3536 0.7556 0.0000
vt 0.3927 0.7760 0.0000
vt 0.3927 0.7797 0.0000
vt 0.3879 0.7788 0.0000
vt 0.3850 0.7763 0.0000
vt 0.3850 0.7703 0.0000
vt 0.3994 0.7565 0.0000
vt 0.3692 0.7865 0.0000
vt 0.3691 0.7884 0.0000
vt 0.4072 0.7563 0.0000
vt 0.3478 0.7368 0.0000
vt 0.3507 0.7368 0.0000
vt 0.3427 0.7132 0.0000
vt 0.3456 0.7132 0.0000
vt 0.3399 0.7132 0.0000
vt 0.3955 0.7386 0.0000
vt 0.3984 0.7386 0.0000
vt 0.3655 0.7694 0.0000
vt 0.3688 0.7700 0.0000
vt 0.3622 0.7700 0.0000
# 243 texture coords

g borraccia
usemtl props
s 1
f 1/1/1 2/2/2 3/3/3 4/4/4 
f 4/4/4 3/3/3 5/5/5 6/6/6 
f 6/6/6 5/5/5 7/7/7 8/8/8 
f 8/8/8 7/7/7 9/9/9 10/10/10 
f 10/10/10 9/9/9 11/11/11 12/12/12 
f 12/12/12 11/11/11 13/13/13 14/14/14 
f 14/14/14 13/13/13 15/15/15 16/16/16 
f 16/16/16 15/15/15 2/2/2 1/1/1 
f 2/17/2 17/18/17 18/19/18 3/20/3 
f 3/20/3 18/19/18 19/21/19 5/22/5 
f 5/22/5 19/21/19 20/23/20 7/24/7 
f 7/25/7 20/26/20 21/27/21 9/28/9 
f 9/28/9 21/27/21 22/29/22 11/30/11 
f 11/30/11 22/29/22 23/31/23 13/32/13 
f 13/32/13 23/31/23 24/33/24 15/34/15 
f 15/34/15 24/33/24 17/18/17 2/17/2 
f 17/18/17 25/35/25 26/36/26 18/19/18 
f 18/19/18 26/36/26 27/37/27 19/21/19 
f 19/21/19 27/37/27 28/38/28 20/23/20 
f 29/39/29 21/27/21 20/26/20 28/40/28 
f 22/29/22 30/41/30 31/42/31 23/31/23 
f 23/31/23 31/42/31 32/43/32 24/33/24 
f 24/33/24 32/43/32 25/35/25 17/18/17 
f 21/27/21 29/39/29 30/41/30 22/29/22 
f 1/1/1 4/4/4 6/6/6 33/44/33 
f 33/44/33 6/6/6 8/8/8 10/10/10 
f 33/44/33 10/10/10 12/12/12 14/14/14 
f 1/1/1 33/44/33 14/14/14 16/16/16 
f 34/45/34 35/46/35 36/47/36 37/48/37 
f 37/48/37 36/47/36 38/49/38 39/50/39 
f 39/50/39 38/49/38 40/51/40 41/52/41 
f 41/52/41 40/51/40 42/53/42 43/54/43 
f 43/54/43 42/53/42 44/55/44 45/56/45 
f 45/56/45 44/55/44 46/57/46 47/58/47 
f 47/58/47 46/57/46 48/59/48 49/60/49 
f 49/60/49 48/59/48 35/46/35 34/45/34 
f 35/46/35 50/61/50 51/62/51 36/47/36 
f 36/47/36 51/62/51 52/63/52 38/49/38 
f 38/49/38 52/63/52 53/64/53 40/51/40 
f 40/51/40 53/64/53 54/65/54 42/53/42 
f 42/53/42 54/65/54 55/66/55 44/55/44 
f 44/55/44 55/66/55 56/67/56 46/57/46 
f 46/57/46 56/67/56 57/68/57 48/59/48 
f 48/59/48 57/68/57 50/61/50 35/46/35 
f 50/61/50 58/69/58 59/70/59 51/62/51 
f 51/62/51 59/70/59 60/71/60 52/63/52 
f 52/63/52 60/71/60 61/72/61 53/64/53 
f 53/64/53 61/72/61 62/73/62 54/65/54 
f 54/65/54 62/73/62 63/74/63 55/66/55 
f 55/66/55 63/74/63 64/75/64 56/67/56 
f 56/67/56 64/75/64 65/76/65 57/68/57 
f 57/68/57 65/76/65 58/69/58 50/61/50 
f 59/70/59 58/69/58 66/77/66 60/71/60 
f 66/77/66 62/73/62 61/72/61 60/71/60 
f 66/77/66 58/69/58 65/76/65 64/75/64 
f 63/74/63 62/73/62 66/77/66 64/75/64 
f 67/78/67 68/79/68 37/80/37 39/81/39 
f 69/82/69 70/83/70 41/84/41 43/85/43 
f 71/86/71 72/87/72 45/88/45 47/89/47 
f 73/90/73 74/91/74 49/92/49 34/93/34 
f 34/94/34 37/95/37 26/96/26 25/97/25 
f 73/98/73 34/99/34 25/100/25 75/101/75 
f 74/91/74 73/90/73 75/102/75 76/103/76 
f 49/104/49 74/105/74 76/106/76 32/107/32 
f 47/108/47 49/109/49 32/110/32 31/111/31 
f 71/112/71 47/113/47 31/114/31 77/115/77 
f 72/87/72 71/86/71 77/116/77 78/117/78 
f 45/118/45 72/119/72 78/120/78 30/121/30 
f 43/122/43 45/123/45 30/124/30 29/125/29 
f 69/126/69 43/127/43 29/128/29 79/129/79 
f 70/83/70 69/82/69 79/130/79 80/131/80 
f 41/132/41 70/133/70 80/134/80 28/135/28 
f 39/136/39 41/137/41 28/138/28 27/139/27 
f 67/140/67 39/141/39 27/142/27 81/143/81 
f 68/79/68 67/78/67 81/144/81 82/145/82 
f 37/146/37 68/147/68 82/148/82 26/149/26 
f 83/150/83 84/151/83 85/152/83 86/153/84 
f 87/154/85 88/155/86 89/156/87 90/157/88 
f 91/158/89 92/159/90 93/160/91 94/161/92 
f 95/162/93 96/163/94 97/164/95 98/165/96 
f 99/166/97 100/167/98 101/168/99 102/169/100 
f 103/170/101 104/171/102 105/172/103 106/173/104 
f 107/174/83 108/175/105 101/176/99 109/177/83 
f 84/151/83 107/174/83 109/177/83 85/152/83 
f 96/178/94 110/179/106 93/180/91 86/153/84 
f 111/181/107 112/182/108 113/183/109 114/184/110 
f 88/155/86 111/181/107 114/184/110 89/156/87 
f 115/185/110 116/186/111 117/187/112 90/157/88 
f 118/188/113 119/189/114 100/190/98 99/191/97 
f 98/165/96 97/164/95 119/189/114 118/188/113 
f 95/162/93 87/192/85 120/193/115 121/194/116 
f 103/195/101 122/196/117 123/197/118 124/198/119 
f 125/199/120 126/200/121 127/201/122 128/202/123 
f 95/162/93 98/165/96 88/203/86 87/192/85 
f 129/204/124 130/205/125 113/206/109 102/169/100 
f 103/170/101 106/173/104 131/207/126 122/208/117 
f 118/188/113 99/191/97 112/209/108 111/210/107 
f 98/165/96 118/188/113 111/210/107 88/203/86 
f 95/162/93 121/194/116 110/211/106 96/163/94 
f 103/195/101 124/198/119 132/212/127 104/213/102 
f 86/153/84 85/152/83 97/214/95 96/178/94 
f 90/157/88 89/156/87 133/215/110 115/185/110 
f 127/201/122 134/216/128 135/217/129 128/202/123 
f 129/204/124 108/218/105 132/212/127 124/198/119 
f 102/169/100 101/168/99 108/218/105 129/204/124 
f 109/177/83 101/176/99 100/219/98 119/220/114 
f 108/175/105 107/174/83 104/221/102 132/222/127 
f 85/152/83 109/177/83 119/220/114 97/214/95 
f 107/174/83 84/151/83 105/223/103 104/221/102 
f 86/153/84 93/180/91 92/224/90 83/150/83 
f 136/225/110 130/226/125 123/227/118 122/228/117 
f 114/184/110 113/183/109 130/226/125 136/225/110 
f 133/215/110 136/225/110 122/228/117 131/229/126 
f 89/156/87 114/184/110 136/225/110 133/215/110 
f 90/157/88 117/187/112 120/230/115 87/154/85 
f 94/161/92 117/231/112 116/232/111 91/158/89 
f 99/166/97 102/169/100 113/206/109 112/233/108 
f 130/205/125 129/204/124 124/198/119 123/197/118 
f 135/234/129 134/235/128 93/180/91 110/179/106 
f 128/236/123 135/237/129 110/211/106 121/194/116 
f 125/238/120 128/236/123 121/194/116 120/193/115 
f 126/239/121 125/240/120 120/230/115 117/187/112 
f 127/241/122 126/242/121 117/231/112 94/161/92 
f 134/243/128 127/241/122 94/161/92 93/160/91 
# 124 polygons

