# 3ds Max Wavefront OBJ Exporter v0.97b - (c)2007 guruware
# File Created: 27.03.2018 15:20:49

mtllib cacciavite.mtl

#
# object cacciavite
#

v  -0.0066 0.0000 0.0027
v  0.0205 0.0000 -0.3498
v  -0.0020 0.0545 -0.3498
v  -0.0212 0.0354 0.0027
v  -0.0566 0.0771 -0.3498
v  -0.0566 0.0500 0.0027
v  -0.1111 0.0545 -0.3498
v  -0.0919 0.0354 0.0027
v  -0.1336 0.0000 -0.3498
v  -0.1066 0.0000 0.0027
v  -0.1111 -0.0545 -0.3498
v  -0.0919 -0.0354 0.0027
v  -0.0566 -0.0771 -0.3498
v  -0.0566 -0.0500 0.0027
v  -0.0020 -0.0545 -0.3498
v  -0.0212 -0.0354 0.0027
v  0.0147 0.0000 -0.3793
v  -0.0062 0.0504 -0.3793
v  -0.0566 0.0712 -0.3793
v  -0.1069 0.0504 -0.3793
v  -0.1278 0.0000 -0.3793
v  -0.1069 -0.0504 -0.3793
v  -0.0566 -0.0712 -0.3793
v  -0.0062 -0.0504 -0.3793
v  -0.0020 0.0000 -0.4043
v  -0.0180 0.0385 -0.4043
v  -0.0566 0.0545 -0.4043
v  -0.0951 0.0385 -0.4043
v  -0.1111 0.0000 -0.4043
v  -0.0951 -0.0385 -0.4043
v  -0.0566 -0.0545 -0.4043
v  -0.0180 -0.0385 -0.4043
v  -0.0271 0.0000 -0.4209
v  -0.0357 0.0209 -0.4209
v  -0.0566 0.0295 -0.4209
v  -0.0774 0.0209 -0.4209
v  -0.0861 0.0000 -0.4209
v  -0.0774 -0.0209 -0.4209
v  -0.0566 -0.0295 -0.4209
v  -0.0357 -0.0209 -0.4209
v  -0.0566 0.0000 -0.4209
v  -0.0341 0.0225 0.0205
v  -0.0247 0.0000 0.0205
v  -0.0566 0.0318 0.0205
v  -0.0791 0.0225 0.0205
v  -0.0884 0.0000 0.0205
v  -0.0791 -0.0225 0.0205
v  -0.0566 -0.0318 0.0205
v  -0.0341 -0.0225 0.0205
v  -0.0277 0.0288 0.0394
v  -0.0158 0.0000 0.0394
v  -0.0566 0.0408 0.0394
v  -0.0854 0.0288 0.0394
v  -0.0973 0.0000 0.0394
v  -0.0854 -0.0288 0.0394
v  -0.0566 -0.0408 0.0394
v  -0.0277 -0.0288 0.0394
v  -0.0277 0.0288 0.0510
v  -0.0158 0.0000 0.0510
v  -0.0566 0.0408 0.0510
v  -0.0854 0.0288 0.0510
v  -0.0973 0.0000 0.0510
v  -0.0854 -0.0288 0.0510
v  -0.0566 -0.0408 0.0510
v  -0.0277 -0.0288 0.0510
v  -0.0566 0.0000 0.0510
v  -0.0466 0.0173 0.3158
v  -0.0366 0.0000 0.3158
v  -0.0366 0.0000 0.0510
v  -0.0466 0.0173 0.0510
v  -0.0666 0.0173 0.3158
v  -0.0666 0.0173 0.0510
v  -0.0766 0.0000 0.3158
v  -0.0766 0.0000 0.0510
v  -0.0666 -0.0173 0.3158
v  -0.0666 -0.0173 0.0510
v  -0.0466 -0.0173 0.3158
v  -0.0466 -0.0173 0.0510
v  -0.0470 0.0146 0.4029
v  -0.0374 0.0000 0.4029
v  -0.0661 0.0146 0.4029
v  -0.0757 0.0000 0.4029
v  -0.0661 -0.0146 0.4029
v  -0.0470 -0.0146 0.4029
v  -0.0309 0.0131 0.4246
v  -0.0153 0.0052 0.4246
v  -0.0823 0.0131 0.4246
v  -0.0978 0.0052 0.4246
v  -0.0823 -0.0131 0.4246
v  -0.0978 -0.0052 0.4246
v  -0.0309 -0.0131 0.4246
v  -0.0153 -0.0052 0.4246
v  -0.0407 0.0112 0.5333
v  -0.0313 0.0045 0.5333
v  -0.0724 0.0112 0.5333
v  -0.0819 0.0045 0.5333
v  -0.0724 -0.0112 0.5333
v  -0.0819 -0.0045 0.5333
v  -0.0407 -0.0112 0.5333
v  -0.0313 -0.0045 0.5333
# 100 vertices

vn 0.9193 0.0003 0.3935
vn 0.9984 0.0002 -0.0571
vn 0.7063 0.7055 -0.0581
vn 0.6498 0.6497 0.3945
vn -0.0002 0.9983 -0.0583
vn -0.0005 0.9190 0.3942
vn -0.7065 0.7054 -0.0577
vn -0.6495 0.6504 0.3939
vn -0.9984 -0.0002 -0.0571
vn -0.9191 0.0002 0.3939
vn -0.7065 -0.7053 -0.0581
vn -0.6494 -0.6505 0.3939
vn -0.0005 -0.9983 -0.0583
vn -0.0004 -0.9190 0.3942
vn 0.7063 -0.7056 -0.0577
vn 0.6496 -0.6501 0.3942
vn 0.9306 0.0004 -0.3660
vn 0.6572 0.6583 -0.3670
vn -0.0003 0.9301 -0.3673
vn -0.6570 0.6582 -0.3675
vn -0.9306 -0.0004 -0.3660
vn -0.6574 -0.6581 -0.3670
vn -0.0004 -0.9301 -0.3673
vn 0.6568 -0.6584 -0.3675
vn 0.7292 0.0000 -0.6843
vn 0.5157 0.5155 -0.6843
vn -0.0006 0.7296 -0.6839
vn -0.5158 0.5157 -0.6842
vn -0.7296 -0.0002 -0.6839
vn -0.5160 -0.5152 -0.6843
vn -0.0001 -0.7296 -0.6839
vn 0.5156 -0.5157 -0.6843
vn 0.3525 -0.0005 -0.9358
vn 0.2497 0.2509 -0.9352
vn 0.0000 0.3536 -0.9354
vn -0.2497 0.2505 -0.9354
vn -0.3538 -0.0001 -0.9353
vn -0.2497 -0.2508 -0.9353
vn -0.0007 -0.3535 -0.9354
vn 0.2505 -0.2503 -0.9352
vn 0.0000 0.0000 -1.0000
vn 0.6905 0.6926 0.2088
vn 0.9778 0.0001 0.2096
vn -0.0007 0.9779 0.2091
vn -0.6916 0.6909 0.2104
vn -0.9776 0.0003 0.2107
vn -0.6918 -0.6909 0.2101
vn 0.0003 -0.9780 0.2088
vn 0.6898 -0.6928 0.2103
vn 0.6922 0.6911 -0.2079
vn 0.9783 -0.0004 -0.2073
vn -0.0007 0.9780 -0.2085
vn -0.6925 0.6910 -0.2073
vn -0.9784 0.0000 -0.2069
vn -0.6928 -0.6908 -0.2070
vn -0.0003 -0.9780 -0.2084
vn 0.6922 -0.6909 -0.2085
vn 0.5495 0.5485 0.6303
vn 0.7763 -0.0000 0.6304
vn -0.0005 0.7766 0.6300
vn -0.5497 0.5481 0.6304
vn -0.7763 0.0000 0.6304
vn -0.5497 -0.5481 0.6304
vn -0.0005 -0.7766 0.6300
vn 0.5495 -0.5485 0.6303
vn 0.0000 0.0000 1.0000
vn 0.4982 0.8670 0.0145
vn 1.0000 0.0018 0.0075
vn 1.0000 0.0000 -0.0000
vn 0.4998 0.8662 -0.0000
vn -0.4968 0.8678 0.0120
vn -0.4998 0.8662 -0.0000
vn -1.0000 -0.0018 0.0081
vn -1.0000 -0.0000 -0.0000
vn -0.4983 -0.8669 0.0148
vn -0.4998 -0.8662 -0.0000
vn 0.4966 -0.8679 0.0117
vn 0.4998 -0.8662 -0.0000
vn 0.3876 0.9194 -0.0675
vn 0.9229 0.0020 -0.3850
vn -0.3853 0.9205 -0.0643
vn -0.9227 -0.0020 -0.3855
vn -0.3870 -0.9196 -0.0676
vn 0.3859 -0.9203 -0.0642
vn 0.3154 0.9317 -0.1801
vn 0.8337 0.4693 -0.2910
vn -0.3193 0.9310 -0.1768
vn -0.8336 0.4714 -0.2879
vn -0.3166 -0.9312 -0.1808
vn -0.8340 -0.4685 -0.2913
vn 0.3182 -0.9316 -0.1759
vn 0.8332 -0.4723 -0.2875
vn 0.2111 0.7173 0.6641
vn 0.6565 0.3541 0.6660
vn -0.2155 0.7189 0.6609
vn -0.6570 0.3629 0.6608
vn -0.2095 -0.7175 0.6643
vn -0.6562 -0.3561 0.6653
vn 0.2175 -0.7187 0.6604
vn 0.6574 -0.3613 0.6613
# 100 vertex normals

vt 0.1467 0.6230 0.0500
vt 0.1467 0.6758 0.0771
vt 0.1558 0.6758 0.0771
vt 0.1558 0.6230 0.0500
vt 0.0833 0.6230 0.0500
vt 0.0833 0.6758 0.0771
vt 0.0924 0.6758 0.0771
vt 0.0924 0.6230 0.0500
vt 0.1014 0.6758 0.0771
vt 0.1014 0.6230 0.0500
vt 0.1105 0.6758 0.0771
vt 0.1105 0.6230 0.0500
vt 0.1195 0.6758 0.0771
vt 0.1195 0.6230 0.0500
vt 0.1286 0.6758 0.0771
vt 0.1286 0.6230 0.0500
vt 0.1377 0.6758 0.0771
vt 0.1377 0.6230 0.0500
vt 0.1467 0.6802 0.0712
vt 0.1558 0.6802 0.0712
vt 0.0833 0.6802 0.0712
vt 0.0924 0.6802 0.0712
vt 0.1014 0.6802 0.0712
vt 0.1105 0.6802 0.0712
vt 0.1195 0.6802 0.0712
vt 0.1286 0.6802 0.0712
vt 0.1377 0.6802 0.0712
vt 0.1786 0.6893 0.0000
vt 0.1761 0.6893 0.0000
vt 0.1738 0.6950 0.0000
vt 0.1755 0.6968 0.0000
vt 0.1680 0.6974 0.0000
vt 0.1680 0.6999 0.0000
vt 0.1622 0.6950 0.0000
vt 0.1605 0.6968 0.0000
vt 0.1598 0.6893 0.0000
vt 0.1573 0.6893 0.0000
vt 0.1622 0.6835 0.0000
vt 0.1605 0.6817 0.0000
vt 0.1680 0.6811 0.0000
vt 0.1680 0.6786 0.0000
vt 0.1738 0.6835 0.0000
vt 0.1755 0.6817 0.0000
vt 0.1724 0.6893 0.0000
vt 0.1711 0.6924 0.0000
vt 0.1680 0.6937 0.0000
vt 0.1649 0.6924 0.0000
vt 0.1636 0.6893 0.0000
vt 0.1649 0.6862 0.0000
vt 0.1680 0.6849 0.0000
vt 0.1711 0.6862 0.0000
vt 0.1680 0.6893 0.0000
vt 0.1462 0.6853 0.0318
vt 0.1403 0.6853 0.0318
vt 0.1403 0.6880 0.0500
vt 0.1462 0.6880 0.0500
vt 0.1051 0.6853 0.0318
vt 0.0992 0.6853 0.0318
vt 0.0992 0.6880 0.0500
vt 0.1051 0.6880 0.0500
vt 0.1110 0.6853 0.0318
vt 0.1110 0.6880 0.0500
vt 0.1168 0.6853 0.0318
vt 0.1168 0.6880 0.0500
vt 0.1227 0.6853 0.0318
vt 0.1227 0.6880 0.0500
vt 0.1286 0.6853 0.0318
vt 0.1286 0.6880 0.0500
vt 0.1345 0.6853 0.0318
vt 0.1345 0.6880 0.0500
vt 0.1462 0.6825 0.0408
vt 0.1403 0.6825 0.0408
vt 0.1051 0.6825 0.0408
vt 0.0992 0.6825 0.0408
vt 0.1110 0.6825 0.0408
vt 0.1168 0.6825 0.0408
vt 0.1227 0.6825 0.0408
vt 0.1286 0.6825 0.0408
vt 0.1345 0.6825 0.0408
vt 0.1462 0.6807 0.0408
vt 0.1403 0.6807 0.0408
vt 0.1051 0.6807 0.0408
vt 0.0992 0.6807 0.0408
vt 0.1110 0.6807 0.0408
vt 0.1168 0.6807 0.0408
vt 0.1227 0.6807 0.0408
vt 0.1286 0.6807 0.0408
vt 0.1345 0.6807 0.0408
vt 0.0984 0.6867 0.0000
vt 0.0923 0.6867 0.0000
vt 0.0923 0.6806 0.0000
vt 0.0966 0.6823 0.0000
vt 0.0862 0.6867 0.0000
vt 0.0880 0.6823 0.0000
vt 0.0966 0.6910 0.0000
vt 0.0923 0.6928 0.0000
vt 0.0880 0.6910 0.0000
vt 0.1757 0.6368 0.0200
vt 0.1726 0.6368 0.0200
vt 0.1726 0.6765 0.0200
vt 0.1757 0.6765 0.0200
vt 0.1601 0.6368 0.0200
vt 0.1569 0.6368 0.0200
vt 0.1569 0.6765 0.0200
vt 0.1601 0.6765 0.0200
vt 0.1632 0.6368 0.0200
vt 0.1632 0.6765 0.0200
vt 0.1663 0.6368 0.0200
vt 0.1663 0.6765 0.0200
vt 0.1695 0.6368 0.0200
vt 0.1695 0.6765 0.0200
vt 0.1756 0.6238 0.0174
vt 0.1726 0.6238 0.0191
vt 0.1602 0.6238 0.0174
vt 0.1568 0.6238 0.0174
vt 0.1632 0.6238 0.0191
vt 0.1662 0.6238 0.0174
vt 0.1696 0.6238 0.0174
vt 0.1558 0.6969 0.0000
vt 0.1581 0.6969 0.0000
vt 0.1548 0.7001 0.0000
vt 0.1534 0.7001 0.0000
vt 0.1505 0.7001 0.0000
vt 0.1481 0.6969 0.0000
vt 0.1491 0.7001 0.0000
vt 0.1458 0.6969 0.0000
vt 0.1543 0.6806 0.0000
vt 0.1557 0.6806 0.0000
vt 0.1496 0.6806 0.0000
vt 0.1482 0.6806 0.0000
vt 0.1592 0.6770 0.0000
vt 0.1559 0.6777 0.0000
vt 0.1592 0.6785 0.0000
vt 0.1755 0.6784 0.0000
vt 0.1755 0.6771 0.0000
vt 0.1493 0.7039 0.0000
vt 0.1493 0.7005 0.0000
vt 0.1540 0.7005 0.0000
vt 0.1540 0.7039 0.0000
vt 0.1554 0.7015 0.0000
vt 0.1554 0.7029 0.0000
vt 0.1479 0.7029 0.0000
vt 0.1479 0.7015 0.0000
# 143 texture coords

g cacciavite
usemtl props
s 1
f 1/1/1 2/2/2 3/3/3 4/4/4 
f 4/5/4 3/6/3 5/7/5 6/8/6 
f 6/8/6 5/7/5 7/9/7 8/10/8 
f 8/10/8 7/9/7 9/11/9 10/12/10 
f 10/12/10 9/11/9 11/13/11 12/14/12 
f 12/14/12 11/13/11 13/15/13 14/16/14 
f 14/16/14 13/15/13 15/17/15 16/18/16 
f 16/18/16 15/17/15 2/2/2 1/1/1 
f 2/2/2 17/19/17 18/20/18 3/3/3 
f 3/6/3 18/21/18 19/22/19 5/7/5 
f 5/7/5 19/22/19 20/23/20 7/9/7 
f 7/9/7 20/23/20 21/24/21 9/11/9 
f 9/11/9 21/24/21 22/25/22 11/13/11 
f 11/13/11 22/25/22 23/26/23 13/15/13 
f 13/15/13 23/26/23 24/27/24 15/17/15 
f 15/17/15 24/27/24 17/19/17 2/2/2 
f 17/28/17 25/29/25 26/30/26 18/31/18 
f 18/31/18 26/30/26 27/32/27 19/33/19 
f 19/33/19 27/32/27 28/34/28 20/35/20 
f 20/35/20 28/34/28 29/36/29 21/37/21 
f 21/37/21 29/36/29 30/38/30 22/39/22 
f 22/39/22 30/38/30 31/40/31 23/41/23 
f 23/41/23 31/40/31 32/42/32 24/43/24 
f 24/43/24 32/42/32 25/29/25 17/28/17 
f 25/29/25 33/44/33 34/45/34 26/30/26 
f 26/30/26 34/45/34 35/46/35 27/32/27 
f 27/32/27 35/46/35 36/47/36 28/34/28 
f 28/34/28 36/47/36 37/48/37 29/36/29 
f 29/36/29 37/48/37 38/49/38 30/38/30 
f 30/38/30 38/49/38 39/50/39 31/40/31 
f 31/40/31 39/50/39 40/51/40 32/42/32 
f 32/42/32 40/51/40 33/44/33 25/29/25 
f 34/45/34 33/44/33 41/52/41 35/46/35 
f 42/53/42 43/54/43 1/55/1 4/56/4 
f 44/57/44 42/58/42 4/59/4 6/60/6 
f 45/61/45 44/57/44 6/60/6 8/62/8 
f 46/63/46 45/61/45 8/62/8 10/64/10 
f 47/65/47 46/63/46 10/64/10 12/66/12 
f 48/67/48 47/65/47 12/66/12 14/68/14 
f 49/69/49 48/67/48 14/68/14 16/70/16 
f 43/54/43 49/69/49 16/70/16 1/55/1 
f 50/71/50 51/72/51 43/54/43 42/53/42 
f 52/73/52 50/74/50 42/58/42 44/57/44 
f 53/75/53 52/73/52 44/57/44 45/61/45 
f 54/76/54 53/75/53 45/61/45 46/63/46 
f 55/77/55 54/76/54 46/63/46 47/65/47 
f 56/78/56 55/77/55 47/65/47 48/67/48 
f 57/79/57 56/78/56 48/67/48 49/69/49 
f 51/72/51 57/79/57 49/69/49 43/54/43 
f 58/80/58 59/81/59 51/72/51 50/71/50 
f 60/82/60 58/83/58 50/74/50 52/73/52 
f 61/84/61 60/82/60 52/73/52 53/75/53 
f 62/85/62 61/84/61 53/75/53 54/76/54 
f 63/86/63 62/85/62 54/76/54 55/77/55 
f 64/87/64 63/86/63 55/77/55 56/78/56 
f 65/88/65 64/87/64 56/78/56 57/79/57 
f 59/81/59 65/88/65 57/79/57 51/72/51 
f 59/89/59 66/90/66 64/91/64 65/92/65 
f 66/90/66 62/93/62 63/94/63 64/91/64 
f 59/89/59 58/95/58 60/96/60 66/90/66 
f 61/97/61 62/93/62 66/90/66 60/96/60 
f 41/52/41 33/44/33 40/51/40 39/50/39 
f 41/52/41 39/50/39 38/49/38 37/48/37 
f 36/47/36 35/46/35 41/52/41 37/48/37 
f 67/98/67 68/99/68 69/100/69 70/101/70 
f 71/102/71 67/103/67 70/104/70 72/105/72 
f 73/106/73 71/102/71 72/105/72 74/107/74 
f 75/108/75 73/106/73 74/107/74 76/109/76 
f 77/110/77 75/108/75 76/109/76 78/111/78 
f 68/99/68 77/110/77 78/111/78 69/100/69 
f 79/112/79 80/113/80 68/99/68 67/98/67 
f 81/114/81 79/115/79 67/103/67 71/102/71 
f 82/116/82 81/114/81 71/102/71 73/106/73 
f 83/117/83 82/116/82 73/106/73 75/108/75 
f 84/118/84 83/117/83 75/108/75 77/110/77 
f 80/113/80 84/118/84 77/110/77 68/99/68 
f 85/119/85 86/120/86 80/121/80 79/122/79 
f 85/119/85 79/122/79 81/123/81 87/124/87 
f 87/124/87 81/123/81 82/125/82 88/126/88 
f 89/124/89 90/126/90 82/125/82 83/123/83 
f 89/124/89 83/123/83 84/122/84 91/119/91 
f 91/119/91 84/122/84 80/121/80 92/120/92 
f 86/120/86 85/119/85 93/127/93 94/128/94 
f 85/119/85 87/124/87 95/129/95 93/127/93 
f 87/124/87 88/126/88 96/130/96 95/129/95 
f 90/126/90 89/124/89 97/129/97 98/130/98 
f 89/124/89 91/119/91 99/127/99 97/129/97 
f 91/119/91 92/120/92 100/128/100 99/127/99 
f 92/131/92 80/132/80 86/133/86 
f 88/133/88 82/132/82 90/131/90 
f 94/134/94 100/135/100 92/131/92 86/133/86 
f 98/135/98 96/134/96 88/133/88 90/131/90 
f 95/136/95 97/137/97 99/138/99 93/139/93 
f 99/138/99 100/140/100 94/141/94 93/139/93 
f 95/136/95 96/142/96 98/143/98 97/137/97 
# 93 polygons - 2 triangles

