# 3ds Max Wavefront OBJ Exporter v0.97b - (c)2007 guruware
# File Created: 27.03.2018 13:51:20

mtllib tavolopc.mtl

#
# object pc_props
#

v  -0.1768 1.2000 -0.7142
v  -0.3871 1.2000 -0.7142
v  -0.3871 1.2000 0.7471
v  -0.1768 1.2000 0.7471
v  -0.1768 1.1807 0.7665
v  -0.4065 1.1807 0.7665
v  -0.4065 0.0000 0.7665
v  -0.1768 0.0000 0.7665
v  0.1935 0.9536 -0.7335
v  0.1935 0.9536 0.7665
v  0.1935 0.0000 0.7665
v  0.1935 0.0000 -0.7335
v  -0.1768 0.0000 -0.7335
v  -0.1768 1.1807 -0.7335
v  -0.4065 1.1807 -0.7335
v  -0.4065 0.0000 -0.7335
v  0.1770 0.9831 -0.7142
v  0.1770 0.9831 0.7471
v  -0.2436 1.3222 0.6688
v  -0.3107 1.3541 0.6688
v  -0.3518 1.1826 0.6712
v  -0.2795 1.1683 0.6712
v  -0.2505 1.2930 0.3451
v  -0.2795 1.1683 0.3516
v  -0.2795 1.1683 0.0539
v  -0.2539 1.2836 0.0539
v  -0.2282 1.3371 0.6831
v  -0.3125 1.3772 0.6831
v  -0.3193 1.3582 0.6831
v  -0.2350 1.3182 0.6831
v  -0.2352 1.3079 0.3523
v  -0.2419 1.2889 0.3523
v  -0.2453 1.2795 0.0539
v  -0.2385 1.2985 0.0539
v  -0.3195 1.3479 0.3523
v  -0.3228 1.3385 0.0539
v  -0.3176 1.3249 0.3451
v  -0.3518 1.1826 0.3516
v  -0.3262 1.3289 0.3523
v  -0.3210 1.3155 0.0539
v  -0.3518 1.1826 0.0539
v  -0.3296 1.3196 0.0539
v  -0.2436 1.3222 -0.5610
v  -0.2795 1.1683 -0.5634
v  -0.3518 1.1826 -0.5634
v  -0.3107 1.3541 -0.5610
v  -0.2505 1.2930 -0.2373
v  -0.2795 1.1683 -0.2438
v  -0.2282 1.3371 -0.5753
v  -0.2350 1.3182 -0.5753
v  -0.3193 1.3582 -0.5753
v  -0.3125 1.3772 -0.5753
v  -0.2352 1.3079 -0.2445
v  -0.2419 1.2889 -0.2445
v  -0.3195 1.3479 -0.2445
v  -0.3176 1.3249 -0.2373
v  -0.3518 1.1826 -0.2438
v  -0.3262 1.3289 -0.2445
v  -0.1341 1.1914 0.4085
v  -0.1341 1.1914 0.7062
v  -0.0270 1.1257 0.7062
v  -0.0270 1.1257 0.4085
v  0.0053 1.1001 -0.0606
v  -0.0591 1.1396 -0.0570
v  -0.0591 1.1396 0.0900
v  0.0053 1.1001 0.0936
v  0.1500 1.0172 0.7062
v  0.1500 1.0172 0.4085
v  0.0428 1.0829 0.4085
v  0.0428 1.0829 0.7062
v  -0.1410 1.1898 -0.6541
v  0.1516 1.0104 -0.6541
v  0.1464 1.0018 -0.6541
v  -0.1462 1.1812 -0.6541
v  -0.1462 1.1812 -0.3947
v  -0.1410 1.1898 -0.3947
v  0.1464 1.0018 -0.3947
v  0.1516 1.0104 -0.3947
v  -0.1410 1.1898 0.4035
v  -0.1462 1.1812 0.4035
v  -0.1462 1.1812 0.7112
v  -0.1410 1.1898 0.7112
v  -0.0305 1.1103 0.7112
v  -0.0253 1.1188 0.7112
v  -0.0305 1.1103 0.4035
v  -0.0253 1.1188 0.4035
v  0.0307 1.0728 0.7112
v  0.1464 1.0018 0.7112
v  0.1516 1.0104 0.7112
v  0.0359 1.0813 0.7112
v  0.1464 1.0018 0.4035
v  0.1516 1.0104 0.4035
v  0.0307 1.0728 0.4035
v  0.0359 1.0813 0.4035
v  -0.1341 1.1914 -0.6491
v  0.1500 1.0172 -0.6491
v  -0.1341 1.1914 -0.3997
v  0.1500 1.0172 -0.3997
v  0.0477 1.0741 -0.0624
v  0.0477 1.0741 0.0954
v  -0.0591 1.1396 0.1985
v  0.0053 1.1001 0.2083
v  -0.0362 1.1255 -0.1975
v  -0.0591 1.1396 -0.1655
v  0.0053 1.1001 -0.1741
v  0.0053 1.1001 -0.1975
v  0.0634 1.0644 0.2131
v  0.0631 1.0646 -0.1778
v  0.0657 1.0630 -0.1975
v  -0.0362 1.1255 0.2304
v  0.0053 1.1001 0.2304
v  0.0657 1.0630 0.2304
v  -0.0474 1.1324 -0.2256
v  0.0053 1.1001 -0.2256
v  0.0001 1.0915 -0.2256
v  -0.0526 1.1238 -0.2256
v  -0.0832 1.1543 -0.1739
v  -0.0884 1.1458 -0.1739
v  -0.0832 1.1543 -0.0569
v  -0.0884 1.1458 -0.0569
v  -0.0832 1.1543 0.0899
v  -0.0884 1.1458 0.0899
v  -0.0832 1.1543 0.2069
v  -0.0884 1.1458 0.2069
v  -0.0474 1.1324 0.2586
v  -0.0526 1.1238 0.2586
v  0.0053 1.1001 0.2586
v  0.0001 1.0915 0.2586
v  0.0938 1.0458 0.2586
v  0.0886 1.0373 0.2586
v  0.0872 1.0499 0.2096
v  0.0820 1.0413 0.2096
v  0.0717 1.0594 0.0936
v  0.0665 1.0508 0.0936
v  0.0717 1.0594 -0.0606
v  0.0665 1.0508 -0.0606
v  0.0869 1.0500 -0.1743
v  0.0817 1.0415 -0.1743
v  0.0938 1.0458 -0.2256
v  0.0886 1.0373 -0.2256
v  -0.0427 1.1354 -0.2206
v  0.0079 1.1043 -0.2206
v  -0.0763 1.1559 -0.1739
v  -0.0763 1.1559 -0.0570
v  -0.0763 1.1559 0.0900
v  -0.0763 1.1559 0.2070
v  -0.0427 1.1354 0.2536
v  0.0079 1.1043 0.2536
v  0.0914 1.0532 0.2536
v  0.0856 1.0567 0.2095
v  0.0701 1.0662 0.0936
v  0.0701 1.0662 -0.0606
v  0.0853 1.0569 -0.1742
v  0.0914 1.0532 -0.2206
v  -0.0363 1.1315 -0.2045
v  0.0079 1.1043 -0.2045
v  -0.0625 1.1475 -0.1680
v  -0.0625 1.1475 -0.0570
v  -0.0625 1.1475 0.0900
v  -0.0625 1.1475 0.2011
v  -0.0363 1.1315 0.2375
v  0.0079 1.1043 0.2375
v  0.0754 1.0630 0.2375
v  0.0720 1.0651 0.2120
v  0.0563 1.0747 0.0949
v  0.0563 1.0747 -0.0619
v  0.0717 1.0652 -0.1767
v  0.0754 1.0630 -0.2045
# 168 vertices

vn 0.2438 0.9026 -0.3547
vn -0.2991 0.9057 -0.3003
vn -0.2992 0.9061 0.2992
vn 0.2440 0.9030 0.3537
vn 0.1398 0.4284 0.8927
vn -0.6505 0.3922 0.6505
vn -0.7071 0.0000 0.7071
vn 0.0000 0.0000 1.0000
vn 0.7084 0.2490 -0.6604
vn 0.7083 0.2493 0.6604
vn 0.7071 0.0000 0.7071
vn 0.7071 0.0000 -0.7071
vn 0.0000 0.0000 -1.0000
vn 0.1394 0.4272 -0.8933
vn -0.6507 0.3918 -0.6505
vn -0.7071 0.0000 -0.7071
vn 0.6484 0.7064 -0.2838
vn 0.6486 0.7067 0.2827
vn -0.1656 -0.8965 0.4110
vn -0.5881 -0.7517 0.2986
vn -0.6910 0.1764 0.7010
vn 0.6801 -0.1475 0.7181
vn 0.4254 -0.9041 0.0399
vn 0.9740 -0.2266 -0.0001
vn 0.9757 -0.2193 -0.0000
vn 0.4495 -0.8933 -0.0000
vn 0.7548 0.3381 0.5621
vn -0.3015 0.7827 0.5445
vn -0.7477 -0.3027 0.5911
vn 0.3096 -0.7471 0.5882
vn 0.9269 0.3735 -0.0372
vn 0.3519 -0.9341 0.0594
vn 0.3714 -0.9285 -0.0000
vn 0.9282 0.3721 -0.0000
vn -0.3916 0.9188 -0.0492
vn -0.3913 0.9203 -0.0000
vn -0.8963 -0.4422 0.0337
vn -0.9726 0.2327 0.0013
vn -0.9054 -0.4218 0.0490
vn -0.9055 -0.4243 -0.0000
vn -0.9742 0.2258 -0.0000
vn -0.9207 -0.3903 0.0000
vn -0.1656 -0.8965 -0.4110
vn 0.6801 -0.1475 -0.7181
vn -0.6910 0.1764 -0.7010
vn -0.5881 -0.7517 -0.2986
vn 0.4254 -0.9041 -0.0399
vn 0.9740 -0.2266 0.0001
vn 0.7548 0.3381 -0.5621
vn 0.3096 -0.7471 -0.5882
vn -0.7477 -0.3027 -0.5911
vn -0.3015 0.7827 -0.5445
vn 0.9269 0.3735 0.0372
vn 0.3519 -0.9341 -0.0594
vn -0.3916 0.9188 0.0492
vn -0.8963 -0.4422 -0.0337
vn -0.9726 0.2327 -0.0013
vn -0.9054 -0.4218 -0.0490
vn 0.2209 0.9282 -0.2994
vn 0.2209 0.9282 0.2993
vn 0.7274 0.6170 0.3001
vn 0.7274 0.6171 -0.3002
vn 0.5228 0.8525 -0.0000
vn 0.7561 0.6545 -0.0000
vn 0.7309 0.6139 0.2983
vn 0.7309 0.6139 -0.2983
vn 0.2207 0.9283 -0.2992
vn 0.2207 0.9283 0.2992
vn -0.3513 0.6742 -0.6497
vn 0.7587 -0.0039 -0.6514
vn 0.6063 -0.3666 -0.7057
vn -0.6039 0.3652 -0.7085
vn -0.6039 0.3652 0.7085
vn -0.3513 0.6742 0.6497
vn 0.6063 -0.3666 0.7057
vn 0.7587 -0.0039 0.6514
vn -0.6040 0.3652 -0.7084
vn -0.6040 0.3652 0.7084
vn 0.6033 -0.3691 0.7069
vn 0.7598 -0.0052 0.6502
vn 0.6033 -0.3691 -0.7069
vn 0.7598 -0.0052 -0.6502
vn -0.6029 0.3688 0.7074
vn 0.6064 -0.3666 0.7056
vn -0.3495 0.6749 0.6499
vn 0.6064 -0.3666 -0.7056
vn -0.6029 0.3688 -0.7074
vn -0.3495 0.6749 -0.6499
vn 0.2208 0.9283 -0.2993
vn 0.7309 0.6138 -0.2982
vn 0.2208 0.9283 0.2993
vn 0.7309 0.6138 0.2982
vn 0.2533 0.9671 -0.0226
vn 0.2532 0.9671 0.0226
vn 0.7669 0.6309 -0.1174
vn 0.5230 0.8524 0.0002
vn 0.6177 0.7179 0.3212
vn 0.7673 0.6301 0.1193
vn 0.5229 0.8524 -0.0002
vn 0.4979 0.8127 0.3027
vn 0.2389 0.9699 0.0477
vn 0.2439 0.9687 -0.0469
vn 0.2888 0.9335 0.2125
vn 0.6162 0.7202 -0.3189
vn 0.4991 0.8131 -0.2996
vn 0.2872 0.9350 -0.2080
vn -0.1488 0.5241 -0.8385
vn 0.2013 0.3287 -0.9227
vn -0.3666 0.2219 -0.9035
vn -0.5722 0.7629 -0.3009
vn -0.8038 0.4917 -0.3348
vn -0.5849 0.8111 -0.0000
vn -0.8530 0.5219 -0.0000
vn -0.5751 0.7619 0.2980
vn -0.8040 0.4916 0.3345
vn -0.1482 0.5216 0.8402
vn -0.3665 0.2216 0.9037
vn 0.2017 0.3284 0.9227
vn 0.8032 -0.0236 0.5953
vn 0.6492 -0.3965 0.6491
vn 0.9778 -0.1533 -0.1431
vn 0.8454 -0.5112 -0.1552
vn 0.9863 -0.1478 -0.0726
vn 0.8531 -0.5159 -0.0777
vn 0.9864 -0.1477 0.0727
vn 0.8531 -0.5160 0.0779
vn 0.9769 -0.1578 0.1440
vn 0.8427 -0.5155 0.1552
vn 0.8029 -0.0237 -0.5957
vn 0.6486 -0.3968 -0.6496
vn 0.3091 0.8637 -0.3982
vn 0.4835 0.7885 -0.3802
vn 0.0945 0.9770 -0.1909
vn 0.1588 0.9873 -0.0000
vn 0.0938 0.9779 0.1870
vn 0.3138 0.8618 0.3986
vn 0.4837 0.7884 0.3801
vn 0.7417 0.6141 0.2697
vn 0.8098 0.5836 -0.0604
vn 0.8000 0.5993 -0.0278
vn 0.8000 0.5993 0.0276
vn 0.8090 0.5846 0.0609
vn 0.7412 0.6146 -0.2700
vn 0.5867 0.7872 0.1901
vn 0.4981 0.8125 0.3028
vn 0.6904 0.7192 0.0780
vn 0.7550 0.6558 -0.0000
vn 0.6898 0.7197 -0.0779
vn 0.5857 0.7883 -0.1886
vn 0.4992 0.8131 -0.2995
vn 0.4554 0.8880 -0.0637
vn 0.2397 0.9697 0.0474
vn 0.2263 0.9737 0.0247
vn 0.2264 0.9737 -0.0249
vn 0.2427 0.9690 -0.0463
vn 0.4556 0.8878 0.0648
# 156 vertex normals

vt 0.5690 0.2620 0.0000
vt 0.5690 0.2935 0.0000
vt 0.3503 0.2935 0.0000
vt 0.3503 0.2620 0.0000
vt 0.5252 0.1224 0.0000
vt 0.5252 0.1568 0.0000
vt 0.3485 0.1568 0.0000
vt 0.3485 0.1224 0.0000
vt 0.3409 0.2916 0.0000
vt 0.3409 0.0671 0.0000
vt 0.1982 0.0671 0.0000
vt 0.1982 0.2916 0.0000
vt 0.4912 0.0670 0.0000
vt 0.3485 0.0670 0.0000
vt 0.1924 0.0650 0.0000
vt 0.1924 0.2895 0.0000
vt 0.0157 0.2895 0.0000
vt 0.0157 0.0650 0.0000
vt 0.5690 0.2091 0.0000
vt 0.3503 0.2091 0.0000
vt 0.3474 0.2620 0.0000
vt 0.3474 0.2964 0.0000
vt 0.5719 0.2964 0.0000
vt 0.5719 0.2620 0.0000
vt 0.3474 0.2066 0.0000
vt 0.5719 0.2066 0.0000
vt 0.3453 0.2887 0.0000
vt 0.3453 0.0700 0.0000
vt 0.0746 0.8047 0.0000
vt 0.0584 0.8085 0.0000
vt 0.0583 0.7693 0.0000
vt 0.0747 0.7699 0.0000
vt 0.1275 0.8927 0.0000
vt 0.1260 0.8654 0.0000
vt 0.1921 0.8652 0.0000
vt 0.1922 0.8904 0.0000
vt 0.0771 0.8090 0.0000
vt 0.0569 0.8134 0.0000
vt 0.0564 0.8089 0.0000
vt 0.0766 0.8046 0.0000
vt 0.1260 0.8960 0.0000
vt 0.1259 0.8917 0.0000
vt 0.1922 0.8893 0.0000
vt 0.1922 0.8936 0.0000
vt 0.1255 0.6928 0.0000
vt 0.1451 0.6933 0.0000
vt 0.1430 0.6963 0.0000
vt 0.1275 0.6961 0.0000
vt 0.1221 0.8328 0.0000
vt 0.1237 0.7666 0.0000
vt 0.1257 0.7681 0.0000
vt 0.1241 0.8328 0.0000
vt 0.1428 0.7667 0.0000
vt 0.1228 0.7664 0.0000
vt 0.1211 0.8325 0.0000
vt 0.1411 0.8330 0.0000
vt 0.0557 0.8994 0.0000
vt 0.0550 0.8656 0.0000
vt 0.1138 0.7667 0.0000
vt 0.0826 0.7651 0.0000
vt 0.0828 0.6942 0.0000
vt 0.1206 0.6949 0.0000
vt 0.0525 0.9029 0.0000
vt 0.0525 0.8986 0.0000
vt 0.1205 0.7652 0.0000
vt 0.1162 0.7652 0.0000
vt 0.1231 0.6918 0.0000
vt 0.1274 0.6919 0.0000
vt 0.1435 0.7668 0.0000
vt 0.1414 0.7683 0.0000
vt 0.1445 0.6929 0.0000
vt 0.1245 0.6928 0.0000
vt 0.1115 0.8313 0.0000
vt 0.0823 0.8312 0.0000
vt 0.1181 0.8314 0.0000
vt 0.1138 0.8313 0.0000
vt 0.1421 0.8332 0.0000
vt 0.1400 0.8332 0.0000
vt 0.0746 0.8050 0.0000
vt 0.1921 0.8651 0.0000
vt 0.1260 0.8653 0.0000
vt 0.1254 0.6929 0.0000
vt 0.1425 0.6954 0.0000
vt 0.1449 0.6925 0.0000
vt 0.1257 0.7683 0.0000
vt 0.1428 0.7666 0.0000
vt 0.1140 0.7667 0.0000
vt 0.1435 0.7669 0.0000
vt 0.1415 0.7684 0.0000
vt 0.1116 0.8313 0.0000
vt 0.3961 0.2068 0.0000
vt 0.3516 0.2068 0.0000
vt 0.3516 0.1879 0.0000
vt 0.3961 0.1879 0.0000
vt 0.4480 0.1746 0.0000
vt 0.4474 0.1842 0.0000
vt 0.4254 0.1842 0.0000
vt 0.4249 0.1746 0.0000
vt 0.3519 0.1658 0.0000
vt 0.3965 0.1658 0.0000
vt 0.3965 0.1846 0.0000
vt 0.3519 0.1846 0.0000
vt 0.4990 0.2041 0.0000
vt 0.4476 0.2054 0.0000
vt 0.4476 0.2069 0.0000
vt 0.4990 0.2056 0.0000
vt 0.5258 0.1594 0.0000
vt 0.5258 0.1982 0.0000
vt 0.4744 0.1982 0.0000
vt 0.4744 0.1594 0.0000
vt 0.3969 0.2075 0.0000
vt 0.3508 0.2075 0.0000
vt 0.4787 0.2061 0.0000
vt 0.4786 0.2046 0.0000
vt 0.3508 0.1872 0.0000
vt 0.3969 0.1872 0.0000
vt 0.4679 0.2064 0.0000
vt 0.4679 0.2049 0.0000
vt 0.3512 0.1650 0.0000
vt 0.3973 0.1650 0.0000
vt 0.3973 0.1853 0.0000
vt 0.3512 0.1853 0.0000
vt 0.5250 0.1601 0.0000
vt 0.4752 0.1601 0.0000
vt 0.5250 0.1974 0.0000
vt 0.4752 0.1974 0.0000
vt 0.4482 0.1682 0.0000
vt 0.4246 0.1682 0.0000
vt 0.4092 0.1842 0.0000
vt 0.4077 0.1746 0.0000
vt 0.4684 0.1808 0.0000
vt 0.4637 0.1842 0.0000
vt 0.4649 0.1746 0.0000
vt 0.4684 0.1746 0.0000
vt 0.4070 0.1659 0.0000
vt 0.4655 0.1659 0.0000
vt 0.4684 0.1655 0.0000
vt 0.4044 0.1808 0.0000
vt 0.4044 0.1746 0.0000
vt 0.4044 0.1655 0.0000
vt 0.4825 0.2045 0.0000
vt 0.4733 0.2047 0.0000
vt 0.4733 0.2062 0.0000
vt 0.4826 0.2060 0.0000
vt 0.4888 0.2043 0.0000
vt 0.4888 0.2058 0.0000
vt 0.4949 0.2008 0.0000
vt 0.5124 0.2008 0.0000
vt 0.5124 0.1993 0.0000
vt 0.4949 0.1993 0.0000
vt 0.4729 0.2008 0.0000
vt 0.4729 0.1993 0.0000
vt 0.4554 0.2008 0.0000
vt 0.4554 0.1993 0.0000
vt 0.4578 0.2052 0.0000
vt 0.4578 0.2067 0.0000
vt 0.4550 0.2008 0.0000
vt 0.4477 0.2008 0.0000
vt 0.4477 0.1993 0.0000
vt 0.4550 0.1993 0.0000
vt 0.4724 0.2008 0.0000
vt 0.4724 0.1993 0.0000
vt 0.4954 0.2008 0.0000
vt 0.4954 0.1993 0.0000
vt 0.5201 0.2008 0.0000
vt 0.5201 0.1993 0.0000
vt 0.4727 0.1825 0.0000
vt 0.4719 0.1818 0.0000
vt 0.4719 0.1742 0.0000
vt 0.4727 0.1746 0.0000
vt 0.4649 0.1878 0.0000
vt 0.4649 0.1868 0.0000
vt 0.4474 0.1878 0.0000
vt 0.4474 0.1868 0.0000
vt 0.4254 0.1878 0.0000
vt 0.4254 0.1868 0.0000
vt 0.4079 0.1878 0.0000
vt 0.4079 0.1868 0.0000
vt 0.4002 0.1825 0.0000
vt 0.4009 0.1818 0.0000
vt 0.4002 0.1746 0.0000
vt 0.4009 0.1742 0.0000
vt 0.4002 0.1613 0.0000
vt 0.4009 0.1617 0.0000
vt 0.4075 0.1623 0.0000
vt 0.4075 0.1626 0.0000
vt 0.4249 0.1646 0.0000
vt 0.4249 0.1649 0.0000
vt 0.4480 0.1646 0.0000
vt 0.4480 0.1649 0.0000
vt 0.4650 0.1624 0.0000
vt 0.4650 0.1626 0.0000
vt 0.4727 0.1613 0.0000
vt 0.4719 0.1617 0.0000
vt 0.4695 0.1808 0.0000
vt 0.4695 0.1742 0.0000
vt 0.4640 0.1847 0.0000
vt 0.4474 0.1847 0.0000
vt 0.4254 0.1847 0.0000
vt 0.4088 0.1847 0.0000
vt 0.4034 0.1808 0.0000
vt 0.4034 0.1742 0.0000
vt 0.4034 0.1641 0.0000
vt 0.4072 0.1646 0.0000
vt 0.4247 0.1670 0.0000
vt 0.4482 0.1670 0.0000
vt 0.4653 0.1647 0.0000
vt 0.4695 0.1641 0.0000
# 208 texture coords

g pc_props
usemtl props
s 1
f 1/1/1 2/2/2 3/3/3 4/4/4 
f 5/5/5 6/6/6 7/7/7 8/8/8 
f 9/9/9 10/10/10 11/11/11 12/12/12 
f 9/13/9 12/14/12 13/8/13 14/5/14 
f 6/15/6 15/16/15 16/17/16 7/18/7 
f 17/19/17 1/1/1 4/4/4 18/20/18 
f 5/5/5 8/8/8 11/14/11 10/13/10 
f 14/5/14 13/8/13 16/7/16 15/6/15 
f 5/21/5 4/4/4 3/3/3 6/22/6 
f 15/23/15 2/2/2 1/1/1 14/24/14 
f 6/22/6 3/3/3 2/2/2 15/23/15 
f 10/25/10 18/20/18 4/4/4 5/21/5 
f 14/24/14 1/1/1 17/19/17 9/26/9 
f 9/9/9 17/27/17 18/28/18 10/10/10 
f 19/29/19 20/30/20 21/31/21 22/32/22 
f 23/33/23 24/34/24 25/35/25 26/36/26 
f 27/37/27 28/38/28 29/39/29 30/40/30 
f 31/41/31 32/42/32 33/43/33 34/44/34 
f 30/45/30 29/46/29 20/47/20 19/48/19 
f 33/49/33 32/50/32 23/51/23 26/52/26 
f 35/53/35 31/54/31 34/55/34 36/56/36 
f 24/34/24 23/33/23 19/57/19 22/58/22 
f 37/59/37 38/60/38 21/61/21 20/62/20 
f 32/42/32 31/41/31 27/63/27 30/64/30 
f 35/65/35 39/66/39 29/67/29 28/68/28 
f 19/48/19 23/51/23 32/50/32 30/45/30 
f 39/69/39 37/70/37 20/47/20 29/46/29 
f 31/54/31 35/53/35 28/71/28 27/72/27 
f 40/73/40 41/74/41 38/60/38 37/59/37 
f 36/75/36 42/76/42 39/66/39 35/65/35 
f 42/77/42 40/78/40 37/70/37 39/69/39 
f 43/79/43 44/32/44 45/31/45 46/30/46 
f 47/33/47 26/36/26 25/80/25 48/81/48 
f 49/37/49 50/40/50 51/39/51 52/38/52 
f 53/41/53 34/44/34 33/43/33 54/42/54 
f 50/82/50 43/48/43 46/83/46 51/84/51 
f 33/49/33 26/52/26 47/85/47 54/50/54 
f 55/86/55 36/56/36 34/55/34 53/54/53 
f 48/81/48 44/58/44 43/57/43 47/33/47 
f 56/87/56 46/62/46 45/61/45 57/60/57 
f 54/42/54 50/64/50 49/63/49 53/41/53 
f 55/65/55 52/68/52 51/67/51 58/66/58 
f 43/48/43 50/82/50 54/50/54 47/85/47 
f 58/88/58 51/84/51 46/83/46 56/89/56 
f 53/54/53 49/72/49 52/71/52 55/86/55 
f 40/90/40 56/87/56 57/60/57 41/74/41 
f 36/75/36 55/65/55 58/66/58 42/76/42 
f 42/77/42 58/88/58 56/89/56 40/78/40 
f 59/91/59 60/92/60 61/93/61 62/94/62 
f 63/95/63 64/96/64 65/97/64 66/98/63 
f 67/99/65 68/100/66 69/101/67 70/102/68 
f 71/103/69 72/104/70 73/105/71 74/106/72 
f 71/107/69 74/107/72 75/108/73 76/108/74 
f 76/103/74 75/106/73 77/105/75 78/104/76 
f 78/109/76 77/109/75 73/110/71 72/110/70 
f 79/111/69 80/111/77 81/112/78 82/112/74 
f 81/106/78 83/113/79 84/114/80 82/103/74 
f 84/115/80 83/115/79 85/116/81 86/116/82 
f 85/113/81 80/106/77 79/103/69 86/114/82 
f 87/117/83 88/105/84 89/104/76 90/118/85 
f 89/119/76 88/119/84 91/120/86 92/120/70 
f 91/105/86 93/117/87 94/118/88 92/104/70 
f 94/121/88 93/121/87 87/122/83 90/122/85 
f 71/107/69 95/123/89 96/124/90 72/110/70 
f 71/107/69 76/108/74 97/125/91 95/123/89 
f 98/126/92 97/125/91 76/108/74 78/109/76 
f 78/109/76 72/110/70 96/124/90 98/126/92 
f 79/111/69 82/112/74 60/92/60 59/91/59 
f 82/112/74 84/115/80 61/93/61 60/92/60 
f 84/115/80 86/116/82 62/94/62 61/93/61 
f 86/116/82 79/111/69 59/91/59 62/94/62 
f 90/122/85 89/119/76 67/99/65 70/102/68 
f 89/119/76 92/120/70 68/100/66 67/99/65 
f 92/120/70 94/121/88 69/101/67 68/100/66 
f 94/121/88 90/122/85 70/102/68 69/101/67 
f 99/127/93 63/95/63 66/98/63 100/128/94 
f 66/98/63 65/97/64 101/129/95 102/130/96 
f 103/131/97 104/132/98 105/133/99 106/134/100 
f 100/128/94 66/98/63 102/130/96 107/135/101 
f 106/134/100 105/133/99 108/136/102 109/137/103 
f 63/95/63 105/133/99 104/132/98 64/96/64 
f 99/127/93 108/136/102 105/133/99 63/95/63 
f 102/130/96 101/129/95 110/138/104 111/139/105 
f 107/135/101 102/130/96 111/139/105 112/140/106 
f 113/141/107 114/142/108 115/143/13 116/144/109 
f 117/145/110 113/141/107 116/144/109 118/146/111 
f 119/147/112 117/148/110 118/149/111 120/150/113 
f 121/151/112 119/147/112 120/150/113 122/152/113 
f 123/153/114 121/151/112 122/152/113 124/154/115 
f 125/141/116 123/145/114 124/146/115 126/144/117 
f 127/142/118 125/141/116 126/144/117 128/143/8 
f 129/155/119 127/142/118 128/143/8 130/156/120 
f 131/157/121 129/158/119 130/159/120 132/160/122 
f 133/161/123 131/157/121 132/160/122 134/162/124 
f 135/163/125 133/161/123 134/162/124 136/164/126 
f 137/148/127 135/163/125 136/164/126 138/149/128 
f 139/165/129 137/148/127 138/149/128 140/166/130 
f 114/142/108 139/155/129 140/156/130 115/143/13 
f 113/167/107 141/168/131 142/169/132 114/170/108 
f 117/171/110 143/172/133 141/168/131 113/167/107 
f 119/173/112 144/174/134 143/172/133 117/171/110 
f 121/175/112 145/176/134 144/174/134 119/173/112 
f 123/177/114 146/178/135 145/176/134 121/175/112 
f 125/179/116 147/180/136 146/178/135 123/177/114 
f 127/181/118 148/182/137 147/180/136 125/179/116 
f 129/183/119 149/184/138 148/182/137 127/181/118 
f 131/185/121 150/186/139 149/184/138 129/183/119 
f 133/187/123 151/188/140 150/186/139 131/185/121 
f 135/189/125 152/190/141 151/188/140 133/187/123 
f 137/191/127 153/192/142 152/190/141 135/189/125 
f 139/193/129 154/194/143 153/192/142 137/191/127 
f 114/170/108 142/169/132 154/194/143 139/193/129 
f 155/195/144 156/196/145 142/169/132 141/168/131 
f 157/197/146 155/195/144 141/168/131 143/172/133 
f 158/198/147 157/197/146 143/172/133 144/174/134 
f 159/199/147 158/198/147 144/174/134 145/176/134 
f 160/200/148 159/199/147 145/176/134 146/178/135 
f 161/201/149 160/200/148 146/178/135 147/180/136 
f 162/202/150 161/201/149 147/180/136 148/182/137 
f 163/203/151 162/202/150 148/182/137 149/184/138 
f 164/204/152 163/203/151 149/184/138 150/186/139 
f 165/205/153 164/204/152 150/186/139 151/188/140 
f 166/206/154 165/205/153 151/188/140 152/190/141 
f 167/207/155 166/206/154 152/190/141 153/192/142 
f 168/208/156 167/207/155 153/192/142 154/194/143 
f 156/196/145 168/208/156 154/194/143 142/169/132 
f 103/131/97 106/134/100 156/196/145 155/195/144 
f 104/132/98 103/131/97 155/195/144 157/197/146 
f 64/96/64 104/132/98 157/197/146 158/198/147 
f 65/97/64 64/96/64 158/198/147 159/199/147 
f 101/129/95 65/97/64 159/199/147 160/200/148 
f 110/138/104 101/129/95 160/200/148 161/201/149 
f 111/139/105 110/138/104 161/201/149 162/202/150 
f 112/140/106 111/139/105 162/202/150 163/203/151 
f 107/135/101 112/140/106 163/203/151 164/204/152 
f 100/128/94 107/135/101 164/204/152 165/205/153 
f 99/127/93 100/128/94 165/205/153 166/206/154 
f 108/136/102 99/127/93 166/206/154 167/207/155 
f 109/137/103 108/136/102 167/207/155 168/208/156 
f 106/134/100 109/137/103 168/208/156 156/196/145 
f 98/126/92 96/124/90 95/123/89 97/125/91 
# 141 polygons

