# 3ds Max Wavefront OBJ Exporter v0.97b - (c)2007 guruware
# File Created: 01.02.2018 12:56:52

mtllib medico_base.mtl

#
# object Box041
#

v  -32.0299 0.0000 -7.9232
v  -32.0299 0.0000 8.4814
v  -20.7380 0.0000 8.4814
v  -20.7380 0.0000 -7.9232
v  -20.7380 -4.5481 8.4814
v  -32.0299 -4.5481 8.4814
v  -32.0299 -4.5481 -7.9232
v  -20.7380 -4.5481 -7.9232
# 8 vertices

vn 0.0000 1.0000 -0.0000
vn 0.0000 -1.0000 -0.0000
vn 0.0000 0.0000 1.0000
vn 1.0000 0.0000 -0.0000
vn 0.0000 0.0000 -1.0000
vn -1.0000 0.0000 -0.0000
# 6 vertex normals

vt 0.0000 1.0000 0.0000
vt 0.0000 0.0000 0.0000
vt 1.0000 0.0000 0.0000
vt 1.0000 1.0000 0.0000
# 4 texture coords

g Box041
usemtl wire_059056060
s 2
f 1/1/1 2/2/1 3/3/1 4/4/1 
s 4
f 5/2/2 6/3/2 7/4/2 8/1/2 
s 8
f 3/3/3 2/2/3 6/1/3 5/4/3 
s 16
f 4/3/4 3/2/4 5/1/4 8/4/4 
s 32
f 1/3/5 4/2/5 8/1/5 7/4/5 
s 64
f 2/3/6 1/2/6 7/1/6 6/4/6 
# 6 polygons

